<svg xmlns="http://www.w3.org/2000/svg" width="60" height="60" fill="none" viewBox="0 0 60 60"><rect width="58" height="58" x="1" y="1" stroke="#fff" stroke-width="2" rx="6"/><circle cx="8" cy="8" r="1" fill="#fff" opacity=".34"/><circle cx="12" cy="8" r="1" fill="#fff" opacity=".34"/><circle cx="16" cy="8" r="1" fill="#fff" opacity=".34"/><circle cx="20" cy="8" r="1" fill="#fff" opacity=".34"/><circle cx="40" cy="8" r="1" fill="#fff" opacity=".34"/><circle cx="44" cy="8" r="1" fill="#fff" opacity=".34"/><circle cx="48" cy="8" r="1" fill="#fff" opacity=".34"/><circle cx="52" cy="8" r="1" fill="#fff" opacity=".34"/><circle cx="24" cy="8" r="1" fill="#fff" opacity=".34"/><circle cx="28" cy="8" r="1" fill="#fff" opacity=".34"/><circle cx="32" cy="8" r="1" fill="#fff" opacity=".34"/><circle cx="36" cy="8" r="1" fill="#fff" opacity=".34"/><circle cx="8" cy="12" r="1" fill="#fff" opacity=".34"/><circle cx="12" cy="12" r="1" fill="#fff" opacity=".34"/><circle cx="16" cy="12" r="1" fill="#fff" opacity=".34"/><circle cx="20" cy="12" r="1" fill="#fff" opacity=".34"/><circle cx="40" cy="12" r="1" fill="#fff" opacity=".34"/><circle cx="44" cy="12" r="1" fill="#fff" opacity=".34"/><circle cx="48" cy="12" r="1" fill="#fff" opacity=".34"/><circle cx="52" cy="12" r="1" fill="#fff" opacity=".34"/><circle cx="24" cy="12" r="1" fill="#fff" opacity=".34"/><circle cx="28" cy="12" r="1" fill="#fff" opacity=".34"/><circle cx="32" cy="12" r="1" fill="#fff" opacity=".34"/><circle cx="36" cy="12" r="1" fill="#fff" opacity=".34"/><circle cx="8" cy="16" r="1" fill="#fff" opacity=".34"/><circle cx="12" cy="16" r="1" fill="#fff" opacity=".34"/><circle cx="16" cy="16" r="1" fill="#fff" opacity=".34"/><circle cx="20" cy="16" r="1" fill="#fff" opacity=".34"/><circle cx="40" cy="16" r="1" fill="#fff" opacity=".34"/><circle cx="44" cy="16" r="1" fill="#fff" opacity=".34"/><circle cx="48" cy="16" r="1" fill="#fff" opacity=".34"/><circle cx="52" cy="16" r="1" fill="#fff" opacity=".34"/><circle cx="24" cy="16" r="1" fill="#fff" opacity=".34"/><circle cx="28" cy="16" r="1" fill="#fff" opacity=".34"/><circle cx="32" cy="16" r="1" fill="#fff" opacity=".34"/><circle cx="36" cy="16" r="1" fill="#fff" opacity=".34"/><circle cx="8" cy="20" r="1" fill="#fff" opacity=".34"/><circle cx="12" cy="20" r="1" fill="#fff" opacity=".34"/><circle cx="16" cy="20" r="1" fill="#fff" opacity=".34"/><circle cx="20" cy="20" r="1" fill="#fff" opacity=".34"/><circle cx="40" cy="20" r="1" fill="#fff" opacity=".34"/><circle cx="44" cy="20" r="1" fill="#fff" opacity=".34"/><circle cx="48" cy="20" r="1" fill="#fff" opacity=".34"/><circle cx="52" cy="20" r="1" fill="#fff" opacity=".34"/><circle cx="24" cy="20" r="1" fill="#fff" opacity=".34"/><circle cx="28" cy="20" r="1" fill="#fff" opacity=".34"/><circle cx="32" cy="20" r="1" fill="#fff" opacity=".34"/><circle cx="36" cy="20" r="1" fill="#fff" opacity=".34"/><circle cx="8" cy="24" r="1" fill="#fff" opacity=".34"/><circle cx="12" cy="24" r="1" fill="#fff" opacity=".34"/><circle cx="48" cy="24" r="1" fill="#fff" opacity=".34"/><circle cx="52" cy="24" r="1" fill="#fff" opacity=".34"/><circle cx="8" cy="28" r="1" fill="#fff" opacity=".34"/><circle cx="12" cy="28" r="1" fill="#fff" opacity=".34"/><circle cx="48" cy="28" r="1" fill="#fff" opacity=".34"/><circle cx="52" cy="28" r="1" fill="#fff" opacity=".34"/><circle cx="8" cy="32" r="1" fill="#fff" opacity=".34"/><circle cx="12" cy="32" r="1" fill="#fff" opacity=".34"/><circle cx="48" cy="32" r="1" fill="#fff" opacity=".34"/><circle cx="52" cy="32" r="1" fill="#fff" opacity=".34"/><circle cx="8" cy="36" r="1" fill="#fff" opacity=".34"/><circle cx="12" cy="36" r="1" fill="#fff" opacity=".34"/><circle cx="48" cy="36" r="1" fill="#fff" opacity=".34"/><circle cx="52" cy="36" r="1" fill="#fff" opacity=".34"/><circle cx="8" cy="40" r="1" fill="#fff" opacity=".34"/><circle cx="12" cy="40" r="1" fill="#fff" opacity=".34"/><circle cx="16" cy="40" r="1" fill="#fff" opacity=".34"/><circle cx="20" cy="40" r="1" fill="#fff" opacity=".34"/><circle cx="40" cy="40" r="1" fill="#fff" opacity=".34"/><circle cx="44" cy="40" r="1" fill="#fff" opacity=".34"/><circle cx="48" cy="40" r="1" fill="#fff" opacity=".34"/><circle cx="52" cy="40" r="1" fill="#fff" opacity=".34"/><circle cx="24" cy="40" r="1" fill="#fff" opacity=".34"/><circle cx="28" cy="40" r="1" fill="#fff" opacity=".34"/><circle cx="32" cy="40" r="1" fill="#fff" opacity=".34"/><circle cx="36" cy="40" r="1" fill="#fff" opacity=".34"/><circle cx="8" cy="44" r="1" fill="#fff" opacity=".34"/><circle cx="12" cy="44" r="1" fill="#fff" opacity=".34"/><circle cx="16" cy="44" r="1" fill="#fff" opacity=".34"/><circle cx="20" cy="44" r="1" fill="#fff" opacity=".34"/><circle cx="40" cy="44" r="1" fill="#fff" opacity=".34"/><circle cx="44" cy="44" r="1" fill="#fff" opacity=".34"/><circle cx="48" cy="44" r="1" fill="#fff" opacity=".34"/><circle cx="52" cy="44" r="1" fill="#fff" opacity=".34"/><circle cx="24" cy="44" r="1" fill="#fff" opacity=".34"/><circle cx="28" cy="44" r="1" fill="#fff" opacity=".34"/><circle cx="32" cy="44" r="1" fill="#fff" opacity=".34"/><circle cx="36" cy="44" r="1" fill="#fff" opacity=".34"/><circle cx="8" cy="48" r="1" fill="#fff" opacity=".34"/><circle cx="12" cy="48" r="1" fill="#fff" opacity=".34"/><circle cx="16" cy="48" r="1" fill="#fff" opacity=".34"/><circle cx="20" cy="48" r="1" fill="#fff" opacity=".34"/><circle cx="40" cy="48" r="1" fill="#fff" opacity=".34"/><circle cx="44" cy="48" r="1" fill="#fff" opacity=".34"/><circle cx="48" cy="48" r="1" fill="#fff" opacity=".34"/><circle cx="52" cy="48" r="1" fill="#fff" opacity=".34"/><circle cx="24" cy="48" r="1" fill="#fff" opacity=".34"/><circle cx="28" cy="48" r="1" fill="#fff" opacity=".34"/><circle cx="32" cy="48" r="1" fill="#fff" opacity=".34"/><circle cx="36" cy="48" r="1" fill="#fff" opacity=".34"/><circle cx="8" cy="52" r="1" fill="#fff" opacity=".34"/><circle cx="12" cy="52" r="1" fill="#fff" opacity=".34"/><circle cx="16" cy="52" r="1" fill="#fff" opacity=".34"/><circle cx="20" cy="52" r="1" fill="#fff" opacity=".34"/><circle cx="40" cy="52" r="1" fill="#fff" opacity=".34"/><circle cx="44" cy="52" r="1" fill="#fff" opacity=".34"/><circle cx="48" cy="52" r="1" fill="#fff" opacity=".34"/><circle cx="52" cy="52" r="1" fill="#fff" opacity=".34"/><circle cx="24" cy="52" r="1" fill="#fff" opacity=".34"/><circle cx="28" cy="52" r="1" fill="#fff" opacity=".34"/><circle cx="32" cy="52" r="1" fill="#fff" opacity=".34"/><circle cx="36" cy="52" r="1" fill="#fff" opacity=".34"/><g clip-path="url(#clip0_519_904)"><path fill="#fff" d="M20.3173 35.692C19.4533 35.692 18.7119 35.564 18.0933 35.308C17.4746 35.0413 16.9999 34.6787 16.6693 34.22C16.3386 33.7507 16.1733 33.2067 16.1733 32.588C16.1733 31.9267 16.3386 31.3507 16.6693 30.86C16.9999 30.3587 17.4746 29.9693 18.0933 29.692C18.7119 29.404 19.4533 29.2653 20.3173 29.276C21.1813 29.2653 21.9226 29.404 22.5413 29.692C23.1599 29.9693 23.6346 30.3587 23.9653 30.86C24.3066 31.3507 24.4773 31.9267 24.4773 32.588C24.4773 33.2067 24.3066 33.7507 23.9653 34.22C23.6346 34.6787 23.1599 35.0413 22.5413 35.308C21.9226 35.564 21.1813 35.692 20.3173 35.692ZM20.3173 34.124C20.9786 34.124 21.5226 33.9587 21.9493 33.628C22.3759 33.2973 22.5893 32.876 22.5893 32.364C22.5893 31.82 22.3759 31.3773 21.9493 31.036C21.5226 30.6947 20.9786 30.524 20.3173 30.524C19.8799 30.524 19.4906 30.5987 19.1493 30.748C18.8186 30.8973 18.5519 31.116 18.3493 31.404C18.1573 31.6813 18.0613 32.0013 18.0613 32.364C18.0613 32.7053 18.1573 33.0093 18.3493 33.276C18.5519 33.5427 18.8186 33.7507 19.1493 33.9C19.4906 34.0493 19.8799 34.124 20.3173 34.124ZM20.3173 30.108C19.5493 30.108 18.8826 29.9853 18.3173 29.74C17.7519 29.484 17.3146 29.1373 17.0053 28.7C16.7066 28.252 16.5573 27.7347 16.5573 27.148C16.5573 26.5507 16.7066 26.0227 17.0053 25.564C17.3146 25.1053 17.7519 24.748 18.3173 24.492C18.8826 24.236 19.5493 24.108 20.3173 24.108C21.0853 24.108 21.7519 24.236 22.3173 24.492C22.8826 24.748 23.3199 25.1053 23.6293 25.564C23.9386 26.0227 24.0933 26.5507 24.0933 27.148C24.0933 27.7347 23.9386 28.252 23.6293 28.7C23.3199 29.1373 22.8826 29.484 22.3173 29.74C21.7519 29.9853 21.0853 30.108 20.3173 30.108ZM20.3173 28.972C20.8826 28.972 21.3466 28.8227 21.7093 28.524C22.0826 28.2147 22.2693 27.8253 22.2693 27.356C22.2693 26.844 22.0826 26.428 21.7093 26.108C21.3466 25.788 20.8826 25.628 20.3173 25.628C19.7519 25.628 19.2879 25.788 18.9253 26.108C18.5626 26.428 18.3813 26.844 18.3813 27.356C18.3813 27.8253 18.5626 28.2147 18.9253 28.524C19.2879 28.8227 19.7519 28.972 20.3173 28.972ZM29.7458 35.692C28.8711 35.692 28.0924 35.4467 27.4098 34.956C26.7271 34.4547 26.1884 33.772 25.7938 32.908C25.4098 32.0333 25.2178 31.0307 25.2178 29.9C25.2178 28.7693 25.4098 27.772 25.7938 26.908C26.1884 26.0333 26.7218 25.3507 27.3938 24.86C28.0764 24.3587 28.8604 24.108 29.7458 24.108C30.6311 24.108 31.4151 24.3587 32.0978 24.86C32.7804 25.3507 33.3138 26.0333 33.6978 26.908C34.0924 27.772 34.2898 28.7693 34.2898 29.9C34.2898 31.0307 34.0924 32.0333 33.6978 32.908C33.3138 33.772 32.7804 34.4547 32.0978 34.956C31.4258 35.4467 30.6418 35.692 29.7458 35.692ZM29.7618 34.012C30.2844 34.012 30.7484 33.836 31.1538 33.484C31.5698 33.132 31.8898 32.6467 32.1138 32.028C32.3484 31.4093 32.4658 30.7 32.4658 29.9C32.4658 29.1 32.3484 28.3907 32.1138 27.772C31.8898 27.1427 31.5698 26.652 31.1538 26.3C30.7484 25.948 30.2791 25.772 29.7458 25.772C29.2124 25.772 28.7431 25.948 28.3378 26.3C27.9324 26.652 27.6124 27.1373 27.3778 27.756C27.1538 28.3747 27.0418 29.0893 27.0418 29.9C27.0418 30.7 27.1538 31.4093 27.3778 32.028C27.6124 32.6467 27.9324 33.132 28.3378 33.484C28.7538 33.836 29.2284 34.012 29.7618 34.012ZM39.4183 35.692C38.5436 35.692 37.7649 35.4467 37.0823 34.956C36.3996 34.4547 35.8609 33.772 35.4663 32.908C35.0823 32.0333 34.8903 31.0307 34.8903 29.9C34.8903 28.7693 35.0823 27.772 35.4663 26.908C35.8609 26.0333 36.3943 25.3507 37.0663 24.86C37.7489 24.3587 38.5329 24.108 39.4183 24.108C40.3036 24.108 41.0876 24.3587 41.7703 24.86C42.4529 25.3507 42.9863 26.0333 43.3703 26.908C43.7649 27.772 43.9623 28.7693 43.9623 29.9C43.9623 31.0307 43.7649 32.0333 43.3703 32.908C42.9863 33.772 42.4529 34.4547 41.7703 34.956C41.0983 35.4467 40.3143 35.692 39.4183 35.692ZM39.4343 34.012C39.9569 34.012 40.4209 33.836 40.8263 33.484C41.2423 33.132 41.5623 32.6467 41.7863 32.028C42.0209 31.4093 42.1383 30.7 42.1383 29.9C42.1383 29.1 42.0209 28.3907 41.7863 27.772C41.5623 27.1427 41.2423 26.652 40.8263 26.3C40.4209 25.948 39.9516 25.772 39.4183 25.772C38.8849 25.772 38.4156 25.948 38.0103 26.3C37.6049 26.652 37.2849 27.1373 37.0503 27.756C36.8263 28.3747 36.7143 29.0893 36.7143 29.9C36.7143 30.7 36.8263 31.4093 37.0503 32.028C37.2849 32.6467 37.6049 33.132 38.0103 33.484C38.4263 33.836 38.9009 34.012 39.4343 34.012Z"/></g><defs><clipPath id="clip0_519_904"><rect width="32" height="16" fill="#fff" transform="translate(14 22)"/></clipPath></defs></svg>