<svg xmlns="http://www.w3.org/2000/svg" width="201" height="29" fill="none" viewBox="0 0 201 29"><path fill="#fff" d="M26.7914 12.5345L15.2545 1.01012C14.5735 0.329958 13.4582 0.329958 12.7773 1.01012L1.23918 12.5345C0.558275 13.2146 0 14.5598 0 15.5223V26.0223C0 26.9848 0.788359 27.7723 1.75191 27.7723H12.5285L7.78315 23.0321C7.53905 23.1161 7.2786 23.164 7.00764 23.164C5.68787 23.164 4.61336 22.0906 4.61336 20.7723C4.61336 19.454 5.68787 18.3806 7.00764 18.3806C8.32741 18.3806 9.40191 19.454 9.40191 20.7723C9.40191 21.0441 9.35403 21.3043 9.26994 21.5481L12.9641 25.2383V11.719C12.1699 11.3293 11.621 10.515 11.621 9.57346C11.621 8.25512 12.6955 7.18179 14.0153 7.18179C15.335 7.18179 16.4095 8.25512 16.4095 9.57346C16.4095 10.515 15.8606 11.3293 15.0664 11.719V21.2005L18.7408 17.5301C18.6683 17.3015 18.6286 17.0588 18.6286 16.8068C18.6286 15.4885 19.7031 14.4151 21.0229 14.4151C22.3427 14.4151 23.4172 15.4885 23.4172 16.8068C23.4172 18.1251 22.3427 19.1985 21.0229 19.1985C20.7309 19.1985 20.453 19.1436 20.1948 19.048L15.0664 24.1708V27.7735H26.2786C27.2422 27.7735 28.0306 26.986 28.0306 26.0235V15.5235C28.0306 14.561 27.4734 13.217 26.7914 12.5356V12.5345Z"/><path fill="#fff" d="M39.2474 5.93151H42.1392V13.0482L49.6561 13.0715V5.93151H52.5759V22.9648H49.6561V15.6405L42.1392 15.6172V22.9672H39.2427L39.2474 5.93151Z"/><path fill="#fff" d="M61.0599 11.1383C62.8235 11.1383 64.2604 11.7042 65.3707 12.8358C66.4811 13.9675 67.0362 15.4223 67.0362 17.2003C67.0362 18.9698 66.4811 20.4203 65.3707 21.552C64.2604 22.6837 62.8235 23.2495 61.0599 23.2495C59.2799 23.2495 57.8352 22.6837 56.7257 21.552C55.6161 20.4203 55.0609 18.9698 55.0602 17.2003C55.0602 15.4115 55.6153 13.9551 56.7257 12.8312C57.836 11.7073 59.2807 11.143 61.0599 11.1383ZM61.0599 20.7657C62.0028 20.7657 62.769 20.4336 63.3584 19.7693C63.9478 19.1051 64.2421 18.241 64.2413 17.177C64.2413 16.1146 63.947 15.2543 63.3584 14.5963C62.7697 13.9383 62.0036 13.6101 61.0599 13.6117C60.0944 13.6117 59.3157 13.9399 58.724 14.5963C58.1322 15.2528 57.8356 16.113 57.834 17.177C57.834 18.241 58.1307 19.1051 58.724 19.7693C59.3173 20.4336 60.0959 20.7657 61.0599 20.7657Z"/><path fill="#fff" d="M86.7405 15.6405V22.966H84.0542V16.0605C84.0542 15.2641 83.8491 14.6418 83.4387 14.1938C83.0284 13.7458 82.4693 13.5215 81.7616 13.5207C81.0094 13.5207 80.4087 13.7657 79.9594 14.2557C79.5102 14.7457 79.2859 15.4313 79.2867 16.3125V22.9625H76.5782V16.0605C76.5782 15.2641 76.3785 14.6418 75.9791 14.1938C75.5797 13.7458 75.0265 13.5215 74.3195 13.5207C73.5673 13.5207 72.9631 13.7657 72.5068 14.2557C72.0505 14.7457 71.8224 15.4313 71.8224 16.3125V22.9625H69.0626V11.458H71.632L71.7231 12.5628C72.3927 11.5828 73.4828 11.0928 74.9934 11.0928C75.8755 11.0928 76.6398 11.2752 77.286 11.64C77.9316 12.0043 78.446 12.5622 78.7565 13.2348C79.0354 12.5697 79.5286 12.0166 80.158 11.6633C80.8074 11.283 81.5809 11.0928 82.4787 11.0928C83.7868 11.0928 84.8247 11.4953 85.5924 12.3003C86.3601 13.1053 86.7428 14.2187 86.7405 15.6405Z"/><path fill="#fff" d="M100.125 18.2258H91.2978C91.3889 19.0915 91.7159 19.7526 92.2789 20.2092C92.8418 20.6657 93.5566 20.8928 94.4232 20.8905C95.8294 20.8905 96.814 20.3072 97.3769 19.1405L99.6813 20.0517C99.2675 21.0383 98.5505 21.8681 97.6339 22.4212C96.6995 22.9921 95.6293 23.2771 94.4232 23.2763C92.7196 23.2763 91.3375 22.7198 90.277 21.6068C89.2165 20.4938 88.6859 19.0336 88.6851 17.226C88.6851 15.4184 89.2197 13.9488 90.2887 12.8172C91.3578 11.6855 92.7546 11.1197 94.4793 11.1197C96.1751 11.1197 97.5401 11.6777 98.5741 12.7938C99.6081 13.9099 100.125 15.3799 100.125 17.2038V18.2258ZM91.3434 16.288H97.3197C97.266 15.3547 96.9829 14.6426 96.4706 14.1518C95.9583 13.6611 95.268 13.4184 94.3999 13.4238C93.5434 13.4238 92.8426 13.6723 92.2976 14.1693C91.7525 14.6663 91.4345 15.3726 91.3434 16.288Z"/><path fill="#fff" d="M117.907 19.0005H111.418L110.016 22.9672H107.028L113.186 5.93385H116.175L122.345 22.9672H119.289L117.907 19.0005ZM117.064 16.5505L114.68 9.73718L112.273 16.5505H117.064Z"/><path fill="#fff" d="M127.756 21.0503C128.326 21.0503 128.777 20.9383 129.107 20.7143C129.27 20.6057 129.401 20.4567 129.488 20.282C129.575 20.1072 129.615 19.9129 129.604 19.718C129.604 19.1036 129.19 18.6933 128.361 18.4872L126.775 18.066C124.595 17.4733 123.505 16.353 123.505 14.7048C123.505 13.6494 123.889 12.7872 124.656 12.1183C125.424 11.4495 126.458 11.1154 127.758 11.1162C128.922 11.1162 129.895 11.3818 130.678 11.913C131.056 12.1589 131.38 12.4801 131.628 12.8565C131.876 13.2329 132.044 13.6564 132.121 14.1005L129.646 14.6838C129.625 14.4875 129.563 14.2978 129.464 14.1271C129.365 13.9564 129.231 13.8086 129.07 13.6933C128.712 13.4417 128.281 13.3135 127.844 13.3282C127.349 13.3282 126.95 13.4518 126.647 13.6992C126.5 13.8126 126.383 13.9589 126.303 14.1261C126.224 14.2933 126.185 14.4767 126.19 14.6617C126.187 14.8114 126.216 14.96 126.275 15.0977C126.334 15.2353 126.421 15.3587 126.532 15.4597C126.761 15.672 127.115 15.8427 127.593 15.9718L129.155 16.3592C130.197 16.6407 130.992 17.0662 131.539 17.6355C131.809 17.915 132.02 18.2452 132.16 18.6069C132.3 18.9687 132.367 19.3547 132.357 19.7425C132.357 20.8221 131.95 21.6803 131.136 22.3173C130.322 22.9543 129.201 23.2736 127.771 23.2752C126.448 23.2752 125.387 22.9847 124.589 22.4037C124.203 22.1306 123.878 21.7804 123.634 21.3753C123.391 20.9703 123.234 20.5192 123.174 20.0505L125.695 19.606C125.71 19.818 125.773 20.0238 125.878 20.2083C125.984 20.3927 126.13 20.5509 126.306 20.6712C126.675 20.9243 127.156 21.0503 127.756 21.0503Z"/><path fill="#fff" d="M138.221 21.0503C138.792 21.0503 139.242 20.9337 139.573 20.7143C139.735 20.6054 139.866 20.4563 139.953 20.2816C140.04 20.1069 140.08 19.9127 140.069 19.718C140.069 19.1036 139.654 18.6933 138.826 18.4872L137.241 18.066C135.061 17.4733 133.971 16.353 133.971 14.7048C133.971 13.6494 134.355 12.7872 135.122 12.1183C135.89 11.4495 136.924 11.1154 138.224 11.1162C139.388 11.1162 140.361 11.3818 141.144 11.913C141.522 12.1591 141.846 12.4803 142.094 12.8566C142.342 13.233 142.511 13.6564 142.588 14.1005L140.112 14.6838C140.091 14.4875 140.029 14.2978 139.93 14.1271C139.831 13.9564 139.697 13.8086 139.536 13.6933C139.178 13.4417 138.747 13.3135 138.31 13.3282C137.815 13.3282 137.416 13.4518 137.113 13.6992C136.966 13.8128 136.849 13.959 136.77 14.1262C136.69 14.2933 136.651 14.4767 136.656 14.6617C136.653 14.8114 136.682 14.96 136.741 15.0977C136.8 15.2353 136.887 15.3587 136.998 15.4597C137.232 15.672 137.582 15.8423 138.06 15.9718L139.622 16.3592C140.663 16.6407 141.457 17.0662 142.006 17.6355C142.275 17.9151 142.486 18.2454 142.627 18.6071C142.767 18.9688 142.834 19.3547 142.824 19.7425C142.824 20.8221 142.417 21.6803 141.603 22.3173C140.79 22.9543 139.668 23.2736 138.238 23.2752C136.915 23.2752 135.854 22.9847 135.056 22.4037C134.67 22.1306 134.345 21.7804 134.101 21.3753C133.858 20.9703 133.701 20.5192 133.641 20.0505L136.163 19.606C136.178 19.8179 136.241 20.0237 136.346 20.2082C136.452 20.3926 136.597 20.5508 136.773 20.6712C137.139 20.9243 137.621 21.0503 138.221 21.0503Z"/><path fill="#fff" d="M144.58 7.47384C144.576 7.2435 144.619 7.01468 144.705 6.80097C144.791 6.58727 144.919 6.39303 145.082 6.2298C145.245 6.06657 145.439 5.93767 145.652 5.85075C145.866 5.76384 146.095 5.72068 146.325 5.72384C146.554 5.72033 146.781 5.764 146.992 5.85213C147.203 5.94026 147.393 6.07095 147.552 6.23601C147.878 6.56385 148.06 7.00714 148.06 7.46918C148.06 7.93122 147.878 8.37451 147.552 8.70234C147.394 8.86919 147.204 9.00152 146.993 9.0909C146.782 9.18028 146.555 9.22477 146.325 9.22151C146.095 9.22451 145.867 9.17994 145.655 9.0906C145.443 9.00125 145.252 8.86907 145.093 8.70234C144.929 8.54272 144.799 8.35159 144.711 8.14046C144.623 7.92934 144.578 7.70258 144.58 7.47384ZM147.706 11.4615V22.9683H144.945V11.458L147.706 11.4615Z"/><path fill="#fff" d="M154.384 21.0503C154.954 21.0503 155.404 20.9383 155.735 20.7143C155.897 20.6056 156.029 20.4565 156.116 20.2818C156.203 20.1071 156.243 19.9128 156.232 19.718C156.232 19.1036 155.817 18.6933 154.988 18.4872L153.403 18.066C151.223 17.4733 150.133 16.353 150.133 14.7048C150.133 13.6494 150.517 12.7872 151.284 12.1183C152.052 11.4495 153.086 11.1154 154.388 11.1162C155.551 11.1162 156.524 11.3818 157.307 11.913C157.685 12.1593 158.008 12.4806 158.256 12.8569C158.504 13.2332 158.672 13.6565 158.75 14.1005L156.275 14.6838C156.254 14.4875 156.192 14.2978 156.093 14.1271C155.994 13.9564 155.86 13.8086 155.699 13.6933C155.341 13.442 154.91 13.3139 154.473 13.3282C153.978 13.3282 153.579 13.4518 153.274 13.6992C153.129 13.8129 153.011 13.9592 152.932 14.1264C152.853 14.2935 152.814 14.4768 152.819 14.6617C152.816 14.8114 152.845 14.96 152.904 15.0977C152.963 15.2353 153.05 15.3587 153.161 15.4597C153.389 15.672 153.743 15.8427 154.222 15.9718L155.784 16.3592C156.826 16.6407 157.621 17.0662 158.168 17.6355C158.438 17.915 158.649 18.2452 158.789 18.6069C158.929 18.9687 158.996 19.3547 158.986 19.7425C158.986 20.8221 158.579 21.6803 157.765 22.3173C156.952 22.9543 155.83 23.2736 154.4 23.2752C153.077 23.2752 152.016 22.9847 151.219 22.4037C150.833 22.1309 150.507 21.7809 150.264 21.3757C150.02 20.9706 149.864 20.5193 149.805 20.0505L152.325 19.606C152.34 19.8179 152.402 20.0237 152.508 20.2082C152.614 20.3926 152.759 20.5508 152.935 20.6712C153.301 20.9243 153.783 21.0503 154.384 21.0503Z"/><path fill="#fff" d="M167.233 22.9648C166.575 23.1232 165.902 23.2112 165.225 23.2273C164.062 23.2273 163.155 22.9081 162.505 22.2695C161.855 21.631 161.53 20.6817 161.53 19.4217V13.7937H159.761V11.4603H161.53V7.86934H164.267V11.458H166.924V13.7913H164.267V18.9247C164.267 20.1691 164.75 20.7913 165.715 20.7913C166.115 20.7746 166.509 20.6938 166.883 20.5522L167.233 22.9648Z"/><path fill="#fff" d="M176.477 22.9648C176.377 22.534 176.312 22.0959 176.283 21.6547C175.924 22.1684 175.434 22.5759 174.863 22.8342C174.196 23.1379 173.469 23.2878 172.736 23.2728C171.473 23.2728 170.461 22.9368 169.699 22.2648C168.938 21.5928 168.558 20.6832 168.559 19.536C168.559 18.4113 168.934 17.5321 169.683 16.8982C170.432 16.2643 171.456 15.947 172.756 15.9462H176.219V15.5028C176.219 14.7811 176.008 14.2417 175.586 13.8847C175.164 13.5277 174.573 13.3492 173.813 13.3492C172.467 13.3492 171.501 13.9111 170.915 15.035L168.909 13.8613C169.882 12.0312 171.566 11.1162 173.961 11.1162C175.412 11.1162 176.602 11.4883 177.53 12.2327C178.458 12.977 178.926 14.1884 178.932 15.8668V20.4472C178.932 21.7453 179 22.5845 179.136 22.9648H176.477ZM176.243 17.849H173.403C172.757 17.849 172.255 17.9972 171.897 18.2935C171.72 18.4417 171.579 18.6289 171.486 18.8404C171.393 19.0519 171.35 19.2819 171.361 19.5127C171.361 20.0517 171.544 20.462 171.909 20.7435C172.275 21.0247 172.794 21.1647 173.472 21.1647C174.285 21.1647 174.95 20.9084 175.468 20.3958C175.985 19.8833 176.244 19.1218 176.243 18.1115V17.849Z"/><path fill="#fff" d="M192.188 15.8668V22.9648H189.44V16.4572C189.44 15.3628 189.181 14.6146 188.664 14.2125C188.176 13.8122 187.561 13.5984 186.93 13.6093C186.563 13.5984 186.198 13.6602 185.855 13.7912C185.513 13.9222 185.2 14.1197 184.934 14.3723C184.403 14.881 184.137 15.6063 184.136 16.5482V22.9648H181.376V11.458H183.965L184.056 12.6993C184.413 12.1883 184.907 11.7878 185.482 11.5432C186.123 11.2548 186.82 11.1091 187.523 11.1162C189.014 11.1162 190.164 11.528 190.973 12.3517C191.783 13.1753 192.188 14.3471 192.188 15.8668Z"/><path fill="#fff" d="M201 22.9648C200.342 23.1219 199.67 23.2087 198.993 23.2238C197.83 23.2238 196.923 22.9046 196.273 22.266C195.623 21.6275 195.298 20.6782 195.298 19.4182V13.7937H193.53V11.4603H195.298V7.86934H198.035V11.458H200.693V13.7913H198.035V18.9247C198.035 20.1691 198.518 20.7913 199.484 20.7913C199.884 20.7746 200.278 20.6938 200.652 20.5522L201 22.9648Z"/></svg>