<svg xmlns="http://www.w3.org/2000/svg" width="410" height="22" fill="none" viewBox="0 0 410 22"><path fill="#fff" d="M13.428 21V1.4H16.676V21H13.428ZM0.324 21V1.4H3.572V21H0.324ZM2.872 12.432V9.464H14.744V12.432H2.872ZM27.176 21.336C25.776 21.336 24.5253 21.028 23.424 20.412C22.3413 19.7773 21.492 18.9093 20.876 17.808C20.26 16.7067 19.952 15.4373 19.952 14C19.952 12.5627 20.2507 11.2933 20.848 10.192C21.464 9.09067 22.3133 8.232 23.396 7.616C24.4787 6.98133 25.72 6.664 27.12 6.664C28.52 6.664 29.7613 6.98133 30.844 7.616C31.9267 8.232 32.7667 9.09067 33.364 10.192C33.98 11.2933 34.288 12.5627 34.288 14C34.288 15.4373 33.9893 16.7067 33.392 17.808C32.7947 18.9093 31.9547 19.7773 30.872 20.412C29.7893 21.028 28.5573 21.336 27.176 21.336ZM27.176 18.452C27.9413 18.452 28.6227 18.2653 29.22 17.892C29.8173 17.5 30.284 16.9773 30.62 16.324C30.956 15.652 31.124 14.8773 31.124 14C31.124 13.1227 30.9467 12.3573 30.592 11.704C30.256 11.032 29.7893 10.5093 29.192 10.136C28.5947 9.744 27.904 9.548 27.12 9.548C26.336 9.548 25.6453 9.73467 25.048 10.108C24.4507 10.4813 23.984 11.004 23.648 11.676C23.312 12.348 23.144 13.1227 23.144 14C23.144 14.8773 23.312 15.652 23.648 16.324C24.0027 16.9773 24.4787 17.5 25.076 17.892C25.692 18.2653 26.392 18.452 27.176 18.452ZM37.0055 21V7H39.9455L40.0855 8.876C40.5149 8.148 41.0655 7.59733 41.7375 7.224C42.4095 6.85067 43.1749 6.664 44.0335 6.664C45.1535 6.664 46.1055 6.916 46.8895 7.42C47.6735 7.924 48.2429 8.68933 48.5975 9.716C49.0082 8.72667 49.5869 7.97067 50.3335 7.448C51.0802 6.92533 51.9575 6.664 52.9655 6.664C54.5895 6.664 55.8402 7.18667 56.7175 8.232C57.5949 9.25867 58.0242 10.8453 58.0055 12.992V21H54.8975V13.832C54.8975 12.712 54.7762 11.8533 54.5335 11.256C54.2909 10.64 53.9642 10.2107 53.5535 9.968C53.1429 9.72533 52.6669 9.604 52.1255 9.604C51.1549 9.58533 50.3989 9.93067 49.8575 10.64C49.3349 11.3493 49.0735 12.3667 49.0735 13.692V21H45.9375V13.832C45.9375 12.712 45.8162 11.8533 45.5735 11.256C45.3495 10.64 45.0322 10.2107 44.6215 9.968C44.2109 9.72533 43.7349 9.604 43.1935 9.604C42.2229 9.58533 41.4669 9.93067 40.9255 10.64C40.4029 11.3493 40.1415 12.3667 40.1415 13.692V21H37.0055ZM67.4488 21.336C66.0861 21.336 64.8728 21.028 63.8088 20.412C62.7634 19.7773 61.9328 18.9093 61.3167 17.808C60.7194 16.7067 60.4208 15.4373 60.4208 14C60.4208 12.5627 60.7288 11.2933 61.3448 10.192C61.9608 9.09067 62.8008 8.232 63.8648 7.616C64.9474 6.98133 66.1794 6.664 67.5608 6.664C68.8114 6.664 69.9408 6.99067 70.9488 7.644C71.9568 8.27867 72.7501 9.20267 73.3288 10.416C73.9261 11.6293 74.2248 13.076 74.2248 14.756H63.2208L63.6408 14.364C63.6408 15.2227 63.8274 15.9693 64.2008 16.604C64.5741 17.22 65.0688 17.696 65.6848 18.032C66.3008 18.368 66.9821 18.536 67.7288 18.536C68.5874 18.536 69.2968 18.3493 69.8568 17.976C70.4168 17.584 70.8554 17.08 71.1728 16.464L73.9448 17.64C73.5528 18.3867 73.0488 19.04 72.4328 19.6C71.8354 20.16 71.1168 20.5893 70.2768 20.888C69.4554 21.1867 68.5128 21.336 67.4488 21.336ZM63.8368 12.74L63.3888 12.348H71.2848L70.8648 12.74C70.8648 11.9747 70.6968 11.3493 70.3608 10.864C70.0248 10.36 69.5954 9.98667 69.0728 9.744C68.5688 9.48267 68.0368 9.352 67.4768 9.352C66.9168 9.352 66.3568 9.48267 65.7968 9.744C65.2368 9.98667 64.7701 10.36 64.3968 10.864C64.0234 11.3493 63.8368 11.9747 63.8368 12.74ZM97.5485 21L89.9045 1.4H93.1525L100.993 21H97.5485ZM81.8965 21L89.7085 1.4H92.9845L85.3405 21H81.8965ZM85.5645 16.184V13.3H97.2965V16.184H85.5645ZM108.055 21.336C107.121 21.336 106.263 21.196 105.479 20.916C104.695 20.636 104.023 20.244 103.463 19.74C102.903 19.2173 102.473 18.6107 102.175 17.92L104.891 16.716C105.171 17.2387 105.581 17.6773 106.123 18.032C106.683 18.3867 107.299 18.564 107.971 18.564C108.699 18.564 109.277 18.4427 109.707 18.2C110.155 17.9387 110.379 17.584 110.379 17.136C110.379 16.7067 110.211 16.38 109.875 16.156C109.539 15.9133 109.063 15.7173 108.447 15.568L107.131 15.204C105.805 14.868 104.769 14.336 104.023 13.608C103.276 12.8613 102.903 12.012 102.903 11.06C102.903 9.66 103.351 8.57733 104.247 7.812C105.161 7.04667 106.468 6.664 108.167 6.664C109.025 6.664 109.809 6.79467 110.519 7.056C111.247 7.29867 111.872 7.65333 112.395 8.12C112.917 8.568 113.281 9.1 113.487 9.716L110.883 10.892C110.696 10.4253 110.341 10.0707 109.819 9.828C109.296 9.56667 108.717 9.436 108.083 9.436C107.448 9.436 106.953 9.576 106.599 9.856C106.244 10.1173 106.067 10.4907 106.067 10.976C106.067 11.256 106.225 11.5173 106.543 11.76C106.86 11.984 107.317 12.1707 107.915 12.32L109.567 12.712C110.481 12.936 111.228 13.2907 111.807 13.776C112.385 14.2427 112.815 14.7747 113.095 15.372C113.375 15.9507 113.515 16.5387 113.515 17.136C113.515 17.976 113.272 18.7133 112.787 19.348C112.32 19.9827 111.676 20.4773 110.855 20.832C110.033 21.168 109.1 21.336 108.055 21.336ZM121.07 21.336C120.137 21.336 119.278 21.196 118.494 20.916C117.71 20.636 117.038 20.244 116.478 19.74C115.918 19.2173 115.489 18.6107 115.19 17.92L117.906 16.716C118.186 17.2387 118.597 17.6773 119.138 18.032C119.698 18.3867 120.314 18.564 120.986 18.564C121.714 18.564 122.293 18.4427 122.722 18.2C123.17 17.9387 123.394 17.584 123.394 17.136C123.394 16.7067 123.226 16.38 122.89 16.156C122.554 15.9133 122.078 15.7173 121.462 15.568L120.146 15.204C118.821 14.868 117.785 14.336 117.038 13.608C116.292 12.8613 115.918 12.012 115.918 11.06C115.918 9.66 116.366 8.57733 117.262 7.812C118.177 7.04667 119.484 6.664 121.182 6.664C122.041 6.664 122.825 6.79467 123.534 7.056C124.262 7.29867 124.888 7.65333 125.41 8.12C125.933 8.568 126.297 9.1 126.502 9.716L123.898 10.892C123.712 10.4253 123.357 10.0707 122.834 9.828C122.312 9.56667 121.733 9.436 121.098 9.436C120.464 9.436 119.969 9.576 119.614 9.856C119.26 10.1173 119.082 10.4907 119.082 10.976C119.082 11.256 119.241 11.5173 119.558 11.76C119.876 11.984 120.333 12.1707 120.93 12.32L122.582 12.712C123.497 12.936 124.244 13.2907 124.822 13.776C125.401 14.2427 125.83 14.7747 126.11 15.372C126.39 15.9507 126.53 16.5387 126.53 17.136C126.53 17.976 126.288 18.7133 125.802 19.348C125.336 19.9827 124.692 20.4773 123.87 20.832C123.049 21.168 122.116 21.336 121.07 21.336ZM129.213 21V7H132.321V21H129.213ZM130.781 4.34C130.277 4.34 129.839 4.16267 129.465 3.808C129.111 3.43467 128.933 2.996 128.933 2.492C128.933 1.988 129.111 1.55867 129.465 1.204C129.839 0.849333 130.277 0.672 130.781 0.672C131.285 0.672 131.715 0.849333 132.069 1.204C132.443 1.55867 132.629 1.988 132.629 2.492C132.629 2.996 132.443 3.43467 132.069 3.808C131.715 4.16267 131.285 4.34 130.781 4.34ZM141.113 21.336C140.18 21.336 139.321 21.196 138.537 20.916C137.753 20.636 137.081 20.244 136.521 19.74C135.961 19.2173 135.532 18.6107 135.233 17.92L137.949 16.716C138.229 17.2387 138.64 17.6773 139.181 18.032C139.741 18.3867 140.357 18.564 141.029 18.564C141.757 18.564 142.336 18.4427 142.765 18.2C143.213 17.9387 143.437 17.584 143.437 17.136C143.437 16.7067 143.269 16.38 142.933 16.156C142.597 15.9133 142.121 15.7173 141.505 15.568L140.189 15.204C138.864 14.868 137.828 14.336 137.081 13.608C136.335 12.8613 135.961 12.012 135.961 11.06C135.961 9.66 136.409 8.57733 137.305 7.812C138.22 7.04667 139.527 6.664 141.225 6.664C142.084 6.664 142.868 6.79467 143.577 7.056C144.305 7.29867 144.931 7.65333 145.453 8.12C145.976 8.568 146.34 9.1 146.545 9.716L143.941 10.892C143.755 10.4253 143.4 10.0707 142.877 9.828C142.355 9.56667 141.776 9.436 141.141 9.436C140.507 9.436 140.012 9.576 139.657 9.856C139.303 10.1173 139.125 10.4907 139.125 10.976C139.125 11.256 139.284 11.5173 139.601 11.76C139.919 11.984 140.376 12.1707 140.973 12.32L142.625 12.712C143.54 12.936 144.287 13.2907 144.865 13.776C145.444 14.2427 145.873 14.7747 146.153 15.372C146.433 15.9507 146.573 16.5387 146.573 17.136C146.573 17.976 146.331 18.7133 145.845 19.348C145.379 19.9827 144.735 20.4773 143.913 20.832C143.092 21.168 142.159 21.336 141.113 21.336ZM154.632 21.336C153.158 21.336 152.028 20.972 151.244 20.244C150.479 19.4973 150.096 18.4333 150.096 17.052V2.632H153.204V16.464C153.204 17.1173 153.354 17.612 153.652 17.948C153.97 18.284 154.427 18.452 155.024 18.452C155.211 18.452 155.416 18.4147 155.64 18.34C155.864 18.2653 156.116 18.1253 156.396 17.92L157.544 20.3C157.059 20.636 156.574 20.888 156.088 21.056C155.603 21.2427 155.118 21.336 154.632 21.336ZM147.772 9.688V7H156.984V9.688H147.772ZM168.401 21L168.261 18.368V13.804C168.261 12.852 168.158 12.0587 167.953 11.424C167.766 10.7707 167.449 10.276 167.001 9.94C166.572 9.58533 165.993 9.408 165.265 9.408C164.593 9.408 164.005 9.548 163.501 9.828C162.997 10.108 162.568 10.5467 162.213 11.144L159.469 10.136C159.768 9.52 160.16 8.95067 160.645 8.428C161.149 7.88667 161.774 7.45733 162.521 7.14C163.286 6.82267 164.201 6.664 165.265 6.664C166.628 6.664 167.766 6.93467 168.681 7.476C169.596 7.99867 170.268 8.75467 170.697 9.744C171.145 10.7333 171.369 11.928 171.369 13.328L171.285 21H168.401ZM164.369 21.336C162.689 21.336 161.382 20.9627 160.449 20.216C159.534 19.4693 159.077 18.4147 159.077 17.052C159.077 15.596 159.562 14.4853 160.533 13.72C161.522 12.9547 162.894 12.572 164.649 12.572H168.401V14.98H165.657C164.406 14.98 163.529 15.1573 163.025 15.512C162.521 15.848 162.269 16.3333 162.269 16.968C162.269 17.5093 162.484 17.9387 162.913 18.256C163.361 18.5547 163.977 18.704 164.761 18.704C165.47 18.704 166.086 18.5453 166.609 18.228C167.132 17.9107 167.533 17.4907 167.813 16.968C168.112 16.4453 168.261 15.8573 168.261 15.204H169.185C169.185 17.108 168.802 18.6107 168.037 19.712C167.272 20.7947 166.049 21.336 164.369 21.336ZM174.545 21V7H177.485L177.681 9.576V21H174.545ZM184.037 21V13.832H187.173V21H184.037ZM184.037 13.832C184.037 12.712 183.906 11.8533 183.645 11.256C183.402 10.64 183.047 10.2107 182.581 9.968C182.133 9.72533 181.601 9.604 180.985 9.604C179.939 9.58533 179.127 9.93067 178.549 10.64C177.97 11.3493 177.681 12.3667 177.681 13.692H176.505C176.505 12.2173 176.719 10.9573 177.149 9.912C177.578 8.848 178.194 8.04533 178.997 7.504C179.799 6.944 180.751 6.664 181.853 6.664C182.973 6.664 183.925 6.888 184.709 7.336C185.511 7.784 186.118 8.484 186.529 9.436C186.958 10.3693 187.173 11.592 187.173 13.104V13.832H184.037ZM195.921 21.336C194.447 21.336 193.317 20.972 192.533 20.244C191.768 19.4973 191.385 18.4333 191.385 17.052V2.632H194.493V16.464C194.493 17.1173 194.643 17.612 194.941 17.948C195.259 18.284 195.716 18.452 196.313 18.452C196.5 18.452 196.705 18.4147 196.929 18.34C197.153 18.2653 197.405 18.1253 197.685 17.92L198.833 20.3C198.348 20.636 197.863 20.888 197.377 21.056C196.892 21.2427 196.407 21.336 195.921 21.336ZM189.061 9.688V7H198.273V9.688H189.061ZM217.251 21.336C215.403 21.336 213.761 20.9067 212.323 20.048C210.905 19.1707 209.785 17.976 208.963 16.464C208.161 14.9333 207.759 13.1787 207.759 11.2C207.759 9.22133 208.161 7.476 208.963 5.964C209.766 4.43333 210.877 3.23867 212.295 2.38C213.714 1.50267 215.338 1.064 217.167 1.064C218.269 1.064 219.342 1.26933 220.387 1.68C221.451 2.072 222.413 2.632 223.271 3.36C224.13 4.06933 224.793 4.89067 225.259 5.824L223.775 6.748C223.383 5.94533 222.833 5.24533 222.123 4.648C221.433 4.032 220.658 3.556 219.799 3.22C218.941 2.86533 218.063 2.688 217.167 2.688C215.693 2.688 214.377 3.052 213.219 3.78C212.081 4.508 211.185 5.516 210.531 6.804C209.878 8.07333 209.551 9.53867 209.551 11.2C209.551 12.88 209.878 14.364 210.531 15.652C211.185 16.94 212.09 17.948 213.247 18.676C214.423 19.404 215.758 19.768 217.251 19.768C218.166 19.768 219.053 19.5813 219.911 19.208C220.77 18.816 221.545 18.284 222.235 17.612C222.945 16.94 223.495 16.1747 223.887 15.316L225.371 16.24C224.886 17.2293 224.214 18.116 223.355 18.9C222.515 19.6653 221.563 20.2627 220.499 20.692C219.435 21.1213 218.353 21.336 217.251 21.336ZM234.632 21.336C233.288 21.336 232.094 21.028 231.048 20.412C230.022 19.7773 229.21 18.9093 228.612 17.808C228.034 16.7067 227.744 15.4373 227.744 14C227.744 12.5627 228.034 11.2933 228.612 10.192C229.191 9.09067 229.994 8.232 231.02 7.616C232.066 6.98133 233.251 6.664 234.576 6.664C235.92 6.664 237.106 6.98133 238.132 7.616C239.178 8.232 239.99 9.09067 240.568 10.192C241.147 11.2933 241.436 12.5627 241.436 14C241.436 15.4373 241.147 16.7067 240.568 17.808C239.99 18.9093 239.187 19.7773 238.16 20.412C237.134 21.028 235.958 21.336 234.632 21.336ZM234.632 19.796C235.64 19.796 236.527 19.5533 237.292 19.068C238.058 18.564 238.655 17.8827 239.084 17.024C239.532 16.1467 239.756 15.1387 239.756 14C239.756 12.8613 239.532 11.8627 239.084 11.004C238.655 10.1267 238.048 9.44533 237.264 8.96C236.48 8.456 235.584 8.204 234.576 8.204C233.568 8.204 232.672 8.456 231.888 8.96C231.123 9.44533 230.516 10.1267 230.068 11.004C229.639 11.8627 229.424 12.8613 229.424 14C229.424 15.1387 229.648 16.1467 230.096 17.024C230.544 17.8827 231.16 18.564 231.944 19.068C232.728 19.5533 233.624 19.796 234.632 19.796ZM244.799 21V7H246.367L246.479 9.576V21H244.799ZM254.851 21V13.832H256.531V21H254.851ZM254.851 13.832C254.851 12.2827 254.665 11.1067 254.291 10.304C253.937 9.50133 253.442 8.96 252.807 8.68C252.191 8.38133 251.491 8.232 250.707 8.232C249.382 8.232 248.346 8.72667 247.599 9.716C246.853 10.6867 246.479 12.0493 246.479 13.804H245.443C245.443 12.3107 245.658 11.032 246.087 9.968C246.517 8.904 247.142 8.092 247.963 7.532C248.803 6.95333 249.821 6.664 251.015 6.664C252.098 6.664 253.05 6.888 253.871 7.336C254.711 7.76533 255.365 8.456 255.831 9.408C256.317 10.36 256.55 11.62 256.531 13.188V13.832H254.851ZM260.303 21V7H261.871L261.983 9.576V21H260.303ZM270.355 21V13.832H272.035V21H270.355ZM270.355 13.832C270.355 12.2827 270.168 11.1067 269.795 10.304C269.44 9.50133 268.946 8.96 268.311 8.68C267.695 8.38133 266.995 8.232 266.211 8.232C264.886 8.232 263.85 8.72667 263.103 9.716C262.356 10.6867 261.983 12.0493 261.983 13.804H260.947C260.947 12.3107 261.162 11.032 261.591 9.968C262.02 8.904 262.646 8.092 263.467 7.532C264.307 6.95333 265.324 6.664 266.519 6.664C267.602 6.664 268.554 6.888 269.375 7.336C270.215 7.76533 270.868 8.456 271.335 9.408C271.82 10.36 272.054 11.62 272.035 13.188V13.832H270.355ZM281.855 21.336C280.511 21.336 279.316 21.028 278.271 20.412C277.244 19.7773 276.432 18.9093 275.835 17.808C275.256 16.7067 274.967 15.4373 274.967 14C274.967 12.5627 275.256 11.2933 275.835 10.192C276.414 9.09067 277.207 8.232 278.215 7.616C279.242 6.98133 280.408 6.664 281.715 6.664C283.04 6.664 284.16 6.99067 285.075 7.644C286.008 8.27867 286.718 9.16533 287.203 10.304C287.688 11.424 287.931 12.7213 287.931 14.196H275.975L276.619 13.664C276.619 14.952 276.834 16.0533 277.263 16.968C277.692 17.8827 278.299 18.5827 279.083 19.068C279.886 19.5533 280.81 19.796 281.855 19.796C282.938 19.796 283.852 19.5347 284.599 19.012C285.364 18.4707 285.962 17.78 286.391 16.94L287.791 17.808C287.436 18.4987 286.97 19.1147 286.391 19.656C285.831 20.1787 285.168 20.5893 284.403 20.888C283.638 21.1867 282.788 21.336 281.855 21.336ZM276.759 13.16L276.059 12.656H286.839L286.139 13.188C286.139 12.1987 285.952 11.3307 285.579 10.584C285.224 9.83733 284.72 9.25867 284.067 8.848C283.414 8.41867 282.63 8.204 281.715 8.204C280.819 8.204 279.988 8.41867 279.223 8.848C278.476 9.25867 277.879 9.83733 277.431 10.584C276.983 11.312 276.759 12.1707 276.759 13.16ZM297.058 21.336C295.714 21.336 294.519 21.028 293.474 20.412C292.447 19.7773 291.635 18.9093 291.038 17.808C290.459 16.7067 290.17 15.4373 290.17 14C290.17 12.5627 290.459 11.2933 291.038 10.192C291.617 9.09067 292.419 8.232 293.446 7.616C294.491 6.98133 295.677 6.664 297.002 6.664C298.327 6.664 299.503 6.96267 300.53 7.56C301.557 8.13867 302.35 8.95067 302.91 9.996L301.454 10.78C301.025 9.97733 300.418 9.352 299.634 8.904C298.869 8.43733 297.991 8.204 297.002 8.204C295.994 8.204 295.098 8.456 294.314 8.96C293.549 9.44533 292.942 10.1267 292.494 11.004C292.065 11.8627 291.85 12.8613 291.85 14C291.85 15.1387 292.074 16.1467 292.522 17.024C292.97 17.8827 293.586 18.564 294.37 19.068C295.154 19.5533 296.05 19.796 297.058 19.796C298.066 19.796 298.962 19.544 299.746 19.04C300.53 18.5173 301.127 17.7987 301.538 16.884L303.022 17.668C302.462 18.8067 301.659 19.7027 300.614 20.356C299.587 21.0093 298.402 21.336 297.058 21.336ZM311.172 21.336C309.884 21.336 308.876 21 308.148 20.328C307.42 19.6373 307.056 18.6667 307.056 17.416V2.632H308.736V17.416C308.736 18.1627 308.951 18.7507 309.38 19.18C309.809 19.5907 310.407 19.796 311.172 19.796C311.396 19.796 311.611 19.768 311.816 19.712C312.04 19.6373 312.357 19.46 312.768 19.18L313.468 20.636C312.964 20.9347 312.544 21.1213 312.208 21.196C311.872 21.2893 311.527 21.336 311.172 21.336ZM304.564 8.54V7H313.188V8.54H304.564ZM322.713 21V19.376L335.733 3.024H322.797V1.4H337.945V3.024L324.925 19.376H337.861V21H322.713ZM357.644 21L363.86 1.4H365.652L359.464 21H357.644ZM345.66 21L339.612 1.4H341.404L347.48 21H345.66ZM345.8 21L351.736 1.4H353.528L347.62 21H345.8ZM357.504 21L351.736 1.4H353.528L359.324 21H357.504ZM381.743 21L373.735 1.4H375.583L383.647 21H381.743ZM365.671 21L373.735 1.4H375.583L367.575 21H365.671ZM369.479 14.924V13.3H379.839V14.924H369.479ZM385.61 13.468V11.872H394.01V13.468H385.61ZM397.368 21V19.376C397.368 18.7413 397.47 18.1253 397.676 17.528C397.9 16.9307 398.226 16.352 398.656 15.792C399.085 15.2133 399.626 14.6627 400.28 14.14L404.76 10.752C405.264 10.3787 405.693 9.95867 406.048 9.492C406.421 9.02533 406.701 8.54 406.888 8.036C407.093 7.532 407.196 7.04667 407.196 6.58C407.196 5.87067 407.018 5.22667 406.664 4.648C406.309 4.05067 405.814 3.57467 405.18 3.22C404.564 2.86533 403.836 2.688 402.996 2.688C402.156 2.688 401.418 2.84667 400.784 3.164C400.149 3.48133 399.626 3.90133 399.216 4.424C398.805 4.928 398.516 5.46933 398.348 6.048L396.528 5.656C396.752 4.85333 397.153 4.10667 397.732 3.416C398.31 2.70667 399.038 2.13733 399.916 1.708C400.793 1.27867 401.764 1.064 402.828 1.064C404.078 1.064 405.161 1.30667 406.076 1.792C407.009 2.27733 407.728 2.94 408.232 3.78C408.754 4.60133 409.016 5.53467 409.016 6.58C409.016 7.532 408.754 8.46533 408.232 9.38C407.728 10.276 406.953 11.1627 405.908 12.04L401.624 15.316C400.802 15.9507 400.186 16.604 399.776 17.276C399.365 17.948 399.16 18.648 399.16 19.376H409.296V21H397.368Z"/></svg>