<svg xmlns="http://www.w3.org/2000/svg" width="91" height="41" fill="none" viewBox="0 0 91 41"><g clip-path="url(#clip0_70_503)"><path fill="#fff" d="M41.1562 23.0066H45.5604L46.8472 31.0457L48.2762 23.0066H51.3439L52.8831 31.0457L54.2836 23.0066H58.4035L55.0514 35.1645H51.1733L49.9363 28.8096L48.4753 35.1645H44.7286L41.1597 23.0066H41.1562ZM68.7832 23.0354H73.4718L75.3594 30.4074L77.4744 22.9489H81.9356L77.4709 35.1645H73.2621L68.7797 23.0354H68.7832ZM83.0233 23.0354V35.1645H90.9965V32.0592H87.1681V30.6093H90.6303V27.4752H87.1681V26.1119H90.9431V23.0354H83.0197H83.0233ZM62.8469 30.7716L64.0057 26.505L64.8873 30.7716H62.8504H62.8469ZM66.4371 23.0066H61.5814L57.2198 35.1645H61.8231L62.2319 33.4802H65.6124L65.9679 35.1645H70.6921L66.4336 23.0066H66.4371ZM34.4343 31.3631L32.145 35.1356H22.1919L27.7123 26.4581H22.6114L24.7371 23.0066H34.4307L29.2551 31.3631H34.4307H34.4343ZM28.7468 17.6688C22.3981 17.6688 17.2509 22.8912 17.2509 29.3326C17.2509 35.774 22.3981 40.9964 28.7468 40.9964C35.0954 40.9964 40.2426 35.774 40.2426 29.3326C40.2426 22.8912 35.0954 17.6688 28.7468 17.6688ZM28.4873 3.83744V0C12.7436 0.0721323 0 13.0379 0 29.0296C0 29.1018 0.00355469 29.1739 0.00710938 29.246H3.77863C3.82484 15.3461 14.8302 4.07187 28.4873 3.83744ZM28.4873 11.8441V8.01029C28.4588 8.01029 28.4304 8.01029 28.402 8.01029C16.8883 8.01029 7.55371 17.4813 7.55371 29.1631C7.55371 29.1919 7.55371 29.2208 7.55371 29.2496H11.3359C11.4959 19.7101 19.0851 12.01 28.4873 11.8477V11.8441Z"/></g><defs><clipPath id="clip0_70_503"><rect width="91" height="41" fill="#fff"/></clipPath></defs></svg>