<svg xmlns="http://www.w3.org/2000/svg" width="97" height="79" fill="none" viewBox="0 0 97 79"><g clip-path="url(#clip0_35_1170)"><path fill="#fff" d="M89.2318 38.3793L89.2489 35.7759L82.9008 35.7759L82.8837 45.3276L89.3173 45.3448L89.3173 42.7414L86.2374 42.7414L86.2374 41.7414L88.958 41.7414L88.958 39.2931L86.2374 39.2931L86.2374 38.3621L89.2318 38.3793Z"/><path fill="#fff" d="M78.5548 45.3276L82.1823 35.7587L78.5548 35.7587L77.4939 39.2932C77.3228 39.8621 77.1175 40.5863 76.9977 41.4656L76.9293 41.4656C76.8437 40.4311 76.6042 39.7069 76.4673 39.2069L75.4578 35.7414L71.7619 35.7414L75.3722 45.3104L78.5548 45.3104L78.5548 45.3276Z"/><path fill="#fff" d="M66.218 35.7587L62.8301 45.3276L66.4918 45.3276L66.7827 44.1207L69.3664 44.1207L69.6744 45.3276L73.3361 45.3276L70.0337 35.7587L66.2352 35.7587L66.218 35.7587ZM67.3473 41.8449L67.6382 40.7587C67.7751 40.2414 67.9633 39.5863 68.0318 38.6552L68.1002 38.6552C68.1515 39.569 68.3569 40.2414 68.4766 40.7587L68.7675 41.8449L67.3473 41.8449Z"/><path fill="#fff" d="M40.535 49.8103C45.4971 49.8103 49.5181 45.7586 49.5181 40.7586C49.5181 35.7586 45.4971 31.7069 40.535 31.7069C35.5729 31.7069 31.5519 35.7586 31.5519 40.7586C31.5519 45.7586 35.5729 49.8103 40.535 49.8103ZM35.7783 38.6551L37.4893 35.8965L45.0009 35.8965L40.997 42.3275L45.0009 42.3275L43.2385 45.1724L35.6243 45.1724L39.7479 38.6551L35.7954 38.6551L35.7783 38.6551Z"/><path fill="#fff" d="M59.6818 39.9655C59.6133 40.3793 59.4936 41 59.4765 41.8449L59.3909 41.8449C59.3567 41.1035 59.2369 40.569 59.1685 40.2069L58.2616 35.7414L55.8661 35.7414L54.9593 40.2069C54.8908 40.5517 54.7539 41.0862 54.7368 41.8449L54.6513 41.8449C54.6342 40.9828 54.4973 40.3793 54.4459 39.9655L53.7102 35.7586L50.2881 35.7586L53.06 45.3276L56.0372 45.3276L56.7559 42.069C56.8414 41.638 56.9783 41.138 57.0296 40.5L57.1494 40.5C57.1836 41.138 57.3205 41.6552 57.4061 42.0862L58.1247 45.3448L61.102 45.3448L63.891 35.7931L60.4689 35.7931L59.716 40L59.6818 39.9655Z"/><path fill="#fff" d="M39.9703 21.1724L39.9703 18.1207C27.9416 18.4138 18.2228 28.2759 18.0517 40.431L21.0802 40.431C21.2513 29.9655 29.6013 21.4655 39.9703 21.1724Z"/><path fill="#fff" d="M39.9703 27.2069L39.9703 24.1552C31.2439 24.4483 24.2115 31.6034 24.0404 40.431L27.0689 40.431C27.2401 33.2931 32.9037 27.5 39.9532 27.2069L39.9703 27.2069Z"/><path fill="#fff" d="M40.4495 3.06897L40.4495 0C18.411 0.36207 0.530428 18.2586 -3.8147e-06 40.431L3.04568 40.431C3.57611 19.9483 20.0878 3.43103 40.4495 3.06897Z"/><path fill="#fff" d="M40.0388 9L40.0388 5.96552C40.0388 5.96552 40.0046 5.96552 39.9875 5.96552C21.354 6.34483 6.31382 21.6207 6.09138 40.431L7.54579 40.431L9.10285 40.431C9.30818 23.2759 23.048 9.36207 40.0388 9Z"/><path fill="#fff" d="M40.2783 12.2586C40.1757 12.2586 40.073 12.2586 39.9874 12.2586C24.7077 12.4828 12.3367 25 12.1998 40.431L12.85 40.431L15.0402 40.431C15.1771 26.5 26.4358 15.2069 40.2783 15.1379L40.2783 12.2586Z"/><path fill="#fff" d="M97 17.1379L97 71.431C97 75.6034 93.2699 79 88.6842 79L19.5574 79C14.9718 79 11.2245 75.6034 11.2245 71.431L11.2246 41.9655L13.4489 41.9655L13.4489 51.0345L29.396 51.0345L29.6527 51.0345C32.3733 53.9483 36.2403 55.7759 40.5179 55.7759C44.7956 55.7759 48.6626 53.9483 51.3831 51.0345L51.7082 51.0345L94.7585 51.0345L94.7585 17.1379C94.7585 14.1897 92.0208 11.8104 88.6671 11.8104L41.1339 11.8104C41.1339 11.069 41.0997 10.3104 41.0997 9.56897L88.6843 9.56898C93.2699 9.56898 97 12.9655 97 17.1379ZM23.0651 68.7069L24.9986 68.7069C26.4188 68.7069 27.4967 68.3448 28.2496 67.6034C29.0025 66.8621 29.3789 65.8276 29.3789 64.4828C29.3789 63.1379 29.0025 62.1034 28.2496 61.3621C27.4967 60.6207 26.4188 60.2586 24.9986 60.2586L19.797 60.2586L19.797 72.931L23.0651 72.931L23.0651 68.7241L23.0651 68.7069ZM23.0651 62.8793L24.1431 62.8793C25.3408 62.8793 25.9397 63.4138 25.9397 64.4655C25.9397 65.5172 25.3408 66.0517 24.1431 66.0517L23.0651 66.0517L23.0651 62.8965L23.0651 62.8793ZM31.1071 60.2241L31.1071 72.8965L38.2935 72.8965L38.2935 70.1034L34.3752 70.1034L34.3752 60.2241L31.1071 60.2241ZM39.7479 60.2241L39.7479 67.569C39.7479 69.5345 40.1928 70.9828 41.0997 71.8965C42.0065 72.8103 43.3754 73.2586 45.2404 73.2586C47.1055 73.2586 48.4743 72.8103 49.3641 71.8965C50.2538 70.9828 50.7158 69.5517 50.7158 67.569L50.7158 60.2241L47.4648 60.2241L47.4648 67.1207C47.4648 67.4828 47.4648 67.8621 47.4306 68.2586C47.3964 68.6379 47.3108 69 47.1739 69.3103C47.037 69.6207 46.8146 69.8793 46.5066 70.069C46.2157 70.2586 45.788 70.3621 45.2404 70.3621C44.6929 70.3621 44.2651 70.2586 43.9742 70.069C43.6663 69.8793 43.4609 69.6207 43.3069 69.3103C43.17 69 43.0845 68.6379 43.0503 68.2586C43.016 67.8793 43.016 67.5 43.016 67.1207L43.0161 60.2241L39.7479 60.2241ZM61.5639 60.8966C60.948 60.5517 60.2978 60.3103 59.6133 60.1379C58.9289 59.9655 58.2787 59.8793 57.6627 59.8793C56.9954 59.8793 56.3965 59.9828 55.849 60.1897C55.3015 60.3966 54.8566 60.6724 54.4802 61.0345C54.1037 61.3966 53.8128 61.8276 53.6075 62.3448C53.4022 62.8621 53.2995 63.431 53.2995 64.0517C53.2995 64.6724 53.4022 65.1897 53.5904 65.6034C53.7786 66.0172 54.0353 66.3448 54.3604 66.6207C54.6855 66.8966 55.0448 67.1034 55.4383 67.2759C55.849 67.431 56.2597 67.5862 56.6874 67.7241C57.0467 67.8448 57.3547 67.9655 57.5943 68.069C57.8509 68.1724 58.0392 68.2759 58.2103 68.3965C58.3643 68.5172 58.484 68.6379 58.5525 68.7759C58.6209 68.9138 58.6551 69.0862 58.6551 69.2759C58.6551 69.5862 58.5183 69.8621 58.2616 70.1207C58.0049 70.3621 57.5943 70.4828 57.0639 70.4828C56.6019 70.4828 56.1228 70.3793 55.6437 70.1552C55.1646 69.9483 54.6855 69.6207 54.1893 69.1724L52.7862 71.8276C54.1379 72.7759 55.6095 73.2586 57.2007 73.2586C57.9707 73.2586 58.6551 73.1552 59.254 72.9483C59.8529 72.7414 60.3662 72.4483 60.794 72.069C61.2046 71.6897 61.5297 71.2414 61.7522 70.7241C61.9746 70.1897 62.0773 69.6034 62.0773 68.9655C62.0773 68 61.8377 67.2241 61.3415 66.6207C60.8453 66.0172 60.0582 65.5345 58.9974 65.1897C58.7236 65.1034 58.4669 65.0172 58.1932 64.931C57.9194 64.8448 57.6798 64.7586 57.4574 64.6552C57.235 64.5517 57.0639 64.431 56.927 64.2759C56.7901 64.1207 56.7216 63.9483 56.7216 63.7241C56.7216 63.3966 56.8585 63.1379 57.1152 62.931C57.389 62.7241 57.7312 62.6207 58.1418 62.6207C58.484 62.6207 58.8262 62.6897 59.1685 62.8276C59.5278 62.9655 59.8871 63.1897 60.2293 63.4828L61.5297 60.9138L61.5639 60.8966ZM69.7941 60.2241L69.7941 72.8966L76.9806 72.8966L76.9806 70.1034L73.0623 70.1034L73.0623 60.2241L69.7941 60.2241ZM85.1766 67.7069C86.0834 67.5 86.7508 67.0862 87.2127 66.4828C87.6747 65.8793 87.8972 65.1034 87.8972 64.1379C87.8972 63.6034 87.8116 63.1034 87.6405 62.6207C87.4694 62.1552 87.2127 61.7414 86.8705 61.3793C86.5283 61.0172 86.1005 60.7414 85.5701 60.5345C85.0397 60.3276 84.4408 60.2241 83.7393 60.2241L78.6574 60.2241L78.6574 72.8966L81.9256 72.8966L81.9256 68.0172L85.0397 72.8966L89.112 72.8966L85.1595 67.7069L85.1766 67.7069ZM81.9427 62.7586L82.5587 62.7586C83.2089 62.7586 83.7051 62.8966 84.0473 63.1552C84.3895 63.431 84.5606 63.8103 84.5606 64.3103C84.5606 64.8103 84.3895 65.2069 84.0473 65.4655C83.7051 65.7414 83.2089 65.8621 82.5587 65.8621L81.9427 65.8621L81.9427 62.7414L81.9427 62.7586Z"/></g><defs><clipPath id="clip0_35_1170"><rect width="97" height="79" fill="#fff" transform="translate(97 79) rotate(-180)"/></clipPath></defs></svg>