<svg xmlns="http://www.w3.org/2000/svg" width="365" height="484" fill="none" viewBox="0 0 365 484"><g filter="url(#filter0_d_597_73)"><rect width="63" height="29" x="49" y="17.545" fill="#002B57" fill-opacity=".2" rx="14.5" shape-rendering="crispEdges"/><path fill="#fff" d="M61.564 36.0448V35.1088L66.856 28.5808H61.6V27.6448H68.128V28.5808L62.836 35.1088H68.092V36.0448H61.564ZM76.4755 36.0448L79.0675 27.6448H80.0875L77.4835 36.0448H76.4755ZM71.3635 36.0448L68.7955 27.6448H69.8155L72.3595 36.0448H71.3635ZM71.4715 36.0448L73.9435 27.6448H74.9155L72.4435 36.0448H71.4715ZM76.3915 36.0448L73.9795 27.6448H74.9515L77.3995 36.0448H76.3915ZM86.7446 36.0448L83.3726 27.6448H84.3926L87.8126 36.0448H86.7446ZM79.9166 36.0448L83.3366 27.6448H84.3686L80.9966 36.0448H79.9166ZM81.5366 33.6568V32.7448H86.2046V33.6568H81.5366ZM88.6257 32.9128V32.0368H92.2257V32.9128H88.6257ZM93.6176 36.0448V35.2048C93.6176 34.9408 93.6696 34.6808 93.7736 34.4248C93.8856 34.1608 94.0416 33.9008 94.2416 33.6448C94.4496 33.3888 94.7016 33.1488 94.9976 32.9248L96.7376 31.6168C96.9456 31.4728 97.1256 31.3088 97.2776 31.1248C97.4376 30.9328 97.5616 30.7368 97.6496 30.5368C97.7376 30.3288 97.7816 30.1288 97.7816 29.9368C97.7816 29.6568 97.7136 29.4048 97.5776 29.1808C97.4416 28.9488 97.2496 28.7648 97.0016 28.6288C96.7536 28.4928 96.4616 28.4248 96.1256 28.4248C95.7976 28.4248 95.5096 28.4888 95.2616 28.6168C95.0136 28.7368 94.8096 28.9008 94.6496 29.1088C94.4896 29.3088 94.3736 29.5248 94.3016 29.7568L93.2696 29.5528C93.3656 29.1928 93.5376 28.8568 93.7856 28.5448C94.0416 28.2328 94.3656 27.9808 94.7576 27.7888C95.1496 27.5968 95.5856 27.5008 96.0656 27.5008C96.6256 27.5008 97.1096 27.6088 97.5176 27.8248C97.9256 28.0328 98.2416 28.3208 98.4656 28.6888C98.6976 29.0488 98.8136 29.4608 98.8136 29.9248C98.8136 30.3648 98.6936 30.7808 98.4536 31.1728C98.2136 31.5648 97.8656 31.9448 97.4096 32.3128L95.7656 33.5608C95.4456 33.8008 95.1976 34.0528 95.0216 34.3168C94.8536 34.5808 94.7576 34.8568 94.7336 35.1448H98.9336V36.0448H93.6176Z"/></g><g filter="url(#filter1_d_597_73)"><circle cx="80.5" cy="73.045" r="2.5" fill="#fff"/></g><path fill="#002B57" d="M91.9358 103.215V144.967H69.0584V103.215H91.9358ZM94.0038 100.148H66.9904L65.981 101.154V148.034H95.0132V101.154L94.0038 100.148Z"/><path fill="#002B57" d="M144.381 482.712C144.381 482.712 156.333 481.957 156.333 470.044V458.032H129.48C119.448 458.032 109.175 454.002 102.491 445.689H58.5151C51.831 454.002 41.5586 458.032 31.5263 458.032H4.66674V470.044C4.66674 481.957 16.6194 482.712 16.6194 482.712H144.381Z"/><path fill="#002B57" d="M102.083 445.063C97.9157 439.488 95.3259 432.142 95.3259 422.964C95.3259 422.091 95.3259 422.404 95.3259 422.404V149.148H65.6743V422.398C65.6743 422.398 65.6743 422.091 65.6743 422.958C65.6743 432.135 63.0781 439.481 58.9167 445.057V445.481H102.083V445.057V445.063Z"/><path fill="#fff" d="M7.58337 462.981H89.25L71.75 462.981L71.75 460.648L89.25 460.648V462.981H153.417V465.314H7.58337V462.981Z"/><path fill="#fff" d="M86.9167 436.148H74.0834V459.481H86.9167V436.148Z"/><path fill="#fff" d="M84.5834 391.814H76.4167V436.148H84.5834V391.814Z"/><path fill="#fff" d="M83.4167 383.648H77.5834V391.814H83.4167V383.648Z"/><path fill="#fff" d="M82.25 149.148H78.75V382.481H82.25V149.148Z"/><path fill="#fff" d="M86.9688 356.54L73.5821 359.687C73.0959 359.804 72.745 360.27 72.745 360.804C72.745 361.534 73.3667 362.08 74.0314 361.92L87.4181 358.773C87.9043 358.657 88.2551 358.19 88.2551 357.657C88.2551 356.927 87.6335 356.381 86.9688 356.54Z"/><path fill="#fff" d="M73.9081 355.092L87.2948 356.472C87.8364 356.528 88.255 357.025 88.255 357.613V357.656C88.255 358.331 87.7195 358.859 87.0979 358.797L73.7112 357.417C73.1695 357.362 72.751 356.865 72.751 356.276V356.233C72.751 355.558 73.2865 355.031 73.9081 355.092Z"/><path fill="#fff" d="M86.9688 352.037L73.5821 355.184C73.0959 355.301 72.745 355.767 72.745 356.301C72.745 357.031 73.3667 357.577 74.0314 357.417L87.4181 354.27C87.9043 354.154 88.2551 353.687 88.2551 353.154C88.2551 352.424 87.6335 351.878 86.9688 352.037Z"/><path fill="#fff" d="M73.9081 350.589L87.2948 351.97C87.8364 352.025 88.255 352.522 88.255 353.111V353.154C88.255 353.828 87.7195 354.356 87.0979 354.295L73.7112 352.914C73.1695 352.859 72.751 352.362 72.751 351.773V351.73C72.751 351.056 73.2865 350.528 73.9081 350.589Z"/><path fill="#fff" d="M86.9688 347.528L73.5821 350.675C73.0959 350.792 72.745 351.258 72.745 351.792C72.745 352.522 73.3667 353.068 74.0314 352.908L87.4181 349.761C87.9043 349.645 88.2551 349.178 88.2551 348.645C88.2551 347.915 87.6335 347.369 86.9688 347.528Z"/><path fill="#fff" d="M73.9081 346.087L87.2948 347.467C87.8364 347.522 88.255 348.019 88.255 348.608V348.651C88.255 349.326 87.7195 349.853 87.0979 349.792L73.7112 348.412C73.1695 348.356 72.751 347.86 72.751 347.271V347.228C72.751 346.553 73.2865 346.025 73.9081 346.087Z"/><path fill="#fff" d="M86.9688 343.026L73.5821 346.173C73.0959 346.289 72.745 346.755 72.745 347.289C72.745 348.019 73.3667 348.565 74.0314 348.406L87.4181 345.259C87.9043 345.142 88.2551 344.676 88.2551 344.142C88.2551 343.412 87.6335 342.866 86.9688 343.026Z"/><path fill="#fff" d="M73.9081 341.584L87.2948 342.964C87.8364 343.019 88.255 343.516 88.255 344.105V344.148C88.255 344.823 87.7195 345.351 87.0979 345.289L73.7112 343.909C73.1695 343.854 72.751 343.357 72.751 342.768V342.725C72.751 342.05 73.2865 341.523 73.9081 341.584Z"/><path fill="#fff" d="M86.9688 338.523L73.5821 341.67C73.0959 341.786 72.745 342.252 72.745 342.786C72.745 343.516 73.3667 344.062 74.0314 343.903L87.4181 340.756C87.9043 340.639 88.2551 340.173 88.2551 339.639C88.2551 338.909 87.6335 338.363 86.9688 338.523Z"/><path fill="#fff" d="M73.9081 337.081L87.2948 338.461C87.8364 338.517 88.255 339.013 88.255 339.602V339.645C88.255 340.32 87.7195 340.848 87.0979 340.786L73.7112 339.406C73.1695 339.351 72.751 338.854 72.751 338.265V338.222C72.751 337.547 73.2865 337.02 73.9081 337.081Z"/><path fill="#fff" d="M86.9688 334.02L73.5821 337.167C73.0959 337.284 72.745 337.75 72.745 338.283C72.745 339.013 73.3667 339.559 74.0314 339.4L87.4181 336.253C87.9043 336.136 88.2551 335.67 88.2551 335.136C88.2551 334.406 87.6335 333.86 86.9688 334.02Z"/><path fill="#fff" d="M73.9081 332.578L87.2948 333.958C87.8364 334.014 88.255 334.511 88.255 335.1V335.142C88.255 335.817 87.7195 336.345 87.0979 336.284L73.7112 334.903C73.1695 334.848 72.751 334.351 72.751 333.762V333.719C72.751 333.044 73.2865 332.517 73.9081 332.578Z"/><path fill="#fff" d="M86.9688 329.517L73.5821 332.664C73.0959 332.781 72.745 333.247 72.745 333.781C72.745 334.511 73.3667 335.057 74.0314 334.897L87.4181 331.75C87.9043 331.634 88.2551 331.167 88.2551 330.634C88.2551 329.904 87.6335 329.358 86.9688 329.517Z"/><path fill="#fff" d="M73.9081 328.076L87.2948 329.456C87.8364 329.511 88.255 330.008 88.255 330.597V330.64C88.255 331.315 87.7195 331.842 87.0979 331.781L73.7112 330.401C73.1695 330.345 72.751 329.849 72.751 329.26V329.217C72.751 328.542 73.2865 328.014 73.9081 328.076Z"/><path fill="#fff" d="M86.9688 325.014L73.5821 328.161C73.0959 328.278 72.745 328.744 72.745 329.278C72.745 330.008 73.3667 330.554 74.0314 330.394L87.4181 327.247C87.9043 327.131 88.2551 326.665 88.2551 326.131C88.2551 325.401 87.6335 324.855 86.9688 325.014Z"/><path fill="#fff" d="M73.9081 323.567L87.2948 324.947C87.8364 325.002 88.255 325.499 88.255 326.088V326.131C88.255 326.806 87.7195 327.333 87.0979 327.272L73.7112 325.892C73.1695 325.836 72.751 325.339 72.751 324.75V324.708C72.751 324.033 73.2865 323.505 73.9081 323.567Z"/><path fill="#fff" d="M86.9688 320.511L73.5821 323.659C73.0959 323.775 72.745 324.241 72.745 324.775C72.745 325.505 73.3667 326.051 74.0314 325.891L87.4181 322.744C87.9043 322.628 88.2551 322.162 88.2551 321.628C88.2551 320.898 87.6335 320.352 86.9688 320.511Z"/><path fill="#fff" d="M81.8972 317.101V319.438L78.1243 320.426L74.0313 321.389C73.9575 321.407 73.8775 321.413 73.8036 321.413C73.2374 321.413 72.745 320.917 72.745 320.272C72.745 319.733 73.0958 319.266 73.582 319.15L78.1243 318.082L81.8972 317.101Z"/><path fill="#fff" d="M73.9081 319.064L87.2948 320.444C87.8364 320.499 88.255 320.996 88.255 321.585V321.628C88.255 322.303 87.7195 322.831 87.0979 322.769L73.7112 321.389C73.1695 321.334 72.751 320.837 72.751 320.248V320.205C72.751 319.53 73.2865 319.003 73.9081 319.064Z"/><path stroke="#005FBE" stroke-dasharray="3 3" stroke-linecap="round" stroke-width=".7" d="M80.5 75.5448L80.5 482.256"/><g filter="url(#filter2_d_597_73)"><rect width="108" height="29" x="221.224" y="17" fill="#002B57" fill-opacity=".2" rx="14.5" shape-rendering="crispEdges"/><path fill="#fff" d="M237.916 35.644C237.108 35.644 236.392 35.46 235.768 35.092C235.144 34.724 234.656 34.212 234.304 33.556C233.952 32.9 233.776 32.148 233.776 31.3C233.776 30.444 233.948 29.692 234.292 29.044C234.644 28.388 235.128 27.876 235.744 27.508C236.36 27.14 237.072 26.956 237.88 26.956C238.688 26.956 239.4 27.144 240.016 27.52C240.64 27.888 241.124 28.4 241.468 29.056C241.812 29.704 241.984 30.452 241.984 31.3C241.984 32.148 241.812 32.9 241.468 33.556C241.124 34.212 240.644 34.724 240.028 35.092C239.42 35.46 238.716 35.644 237.916 35.644ZM237.916 34.72C238.516 34.72 239.044 34.576 239.5 34.288C239.956 33.992 240.312 33.588 240.568 33.076C240.832 32.564 240.964 31.972 240.964 31.3C240.964 30.636 240.832 30.048 240.568 29.536C240.304 29.016 239.94 28.612 239.476 28.324C239.02 28.028 238.488 27.88 237.88 27.88C237.28 27.88 236.748 28.028 236.284 28.324C235.82 28.612 235.456 29.016 235.192 29.536C234.928 30.048 234.796 30.636 234.796 31.3C234.796 31.972 234.928 32.564 235.192 33.076C235.456 33.588 235.824 33.992 236.296 34.288C236.768 34.576 237.308 34.72 237.916 34.72ZM245.637 35.644C245.053 35.644 244.601 35.492 244.281 35.188C243.961 34.884 243.801 34.456 243.801 33.904V27.628H244.761V33.808C244.761 34.112 244.841 34.348 245.001 34.516C245.169 34.676 245.401 34.756 245.697 34.756C245.793 34.756 245.885 34.744 245.973 34.72C246.069 34.688 246.193 34.616 246.345 34.504L246.717 35.284C246.509 35.42 246.321 35.512 246.153 35.56C245.985 35.616 245.813 35.644 245.637 35.644ZM242.757 30.352V29.5H246.561V30.352H242.757ZM247.916 35.5V27.1H248.876V35.5H247.916ZM252.14 35.5V32.428H253.1V35.5H252.14ZM252.14 32.428C252.14 31.836 252.068 31.384 251.924 31.072C251.788 30.76 251.6 30.548 251.36 30.436C251.12 30.316 250.848 30.256 250.544 30.256C250.016 30.256 249.604 30.444 249.308 30.82C249.02 31.188 248.876 31.712 248.876 32.392H248.408C248.408 31.76 248.5 31.216 248.684 30.76C248.876 30.304 249.148 29.956 249.5 29.716C249.852 29.476 250.276 29.356 250.772 29.356C251.236 29.356 251.644 29.452 251.996 29.644C252.348 29.828 252.62 30.124 252.812 30.532C253.012 30.94 253.108 31.476 253.1 32.14V32.428H252.14ZM257.235 35.644C256.651 35.644 256.135 35.512 255.687 35.248C255.239 34.976 254.887 34.604 254.631 34.132C254.383 33.66 254.259 33.116 254.259 32.5C254.259 31.884 254.383 31.34 254.631 30.868C254.887 30.396 255.235 30.028 255.675 29.764C256.123 29.492 256.635 29.356 257.211 29.356C257.771 29.356 258.255 29.496 258.663 29.776C259.071 30.048 259.387 30.432 259.611 30.928C259.835 31.424 259.947 32.008 259.947 32.68H254.991L255.231 32.476C255.231 32.956 255.315 33.368 255.483 33.712C255.659 34.056 255.903 34.32 256.215 34.504C256.527 34.68 256.883 34.768 257.283 34.768C257.707 34.768 258.063 34.668 258.351 34.468C258.647 34.268 258.875 34.004 259.035 33.676L259.863 34.096C259.711 34.408 259.507 34.68 259.251 34.912C259.003 35.144 258.707 35.324 258.363 35.452C258.027 35.58 257.651 35.644 257.235 35.644ZM255.291 32.068L255.039 31.876H259.179L258.927 32.08C258.927 31.696 258.851 31.364 258.699 31.084C258.547 30.804 258.343 30.588 258.087 30.436C257.831 30.284 257.535 30.208 257.199 30.208C256.871 30.208 256.559 30.284 256.263 30.436C255.975 30.588 255.739 30.804 255.555 31.084C255.379 31.356 255.291 31.684 255.291 32.068ZM261.686 32.248C261.686 31.6 261.81 31.076 262.058 30.676C262.306 30.268 262.622 29.968 263.006 29.776C263.398 29.576 263.81 29.476 264.242 29.476V30.376C263.89 30.376 263.55 30.436 263.222 30.556C262.902 30.668 262.638 30.856 262.43 31.12C262.222 31.384 262.118 31.744 262.118 32.2L261.686 32.248ZM261.158 35.5V29.5H262.118V35.5H261.158ZM274.273 35.5L270.901 27.1H271.921L275.341 35.5H274.273ZM267.445 35.5L270.865 27.1H271.897L268.525 35.5H267.445ZM269.065 33.112V32.2H273.733V33.112H269.065ZM280.656 35.5L280.608 34.384V27.1H281.568V35.5H280.656ZM278.58 35.644C278.044 35.644 277.572 35.512 277.164 35.248C276.756 34.984 276.436 34.616 276.204 34.144C275.98 33.664 275.868 33.116 275.868 32.5C275.868 31.876 275.98 31.328 276.204 30.856C276.436 30.384 276.756 30.016 277.164 29.752C277.572 29.488 278.044 29.356 278.58 29.356C279.084 29.356 279.524 29.488 279.9 29.752C280.284 30.016 280.58 30.384 280.788 30.856C280.996 31.328 281.1 31.876 281.1 32.5C281.1 33.116 280.996 33.664 280.788 34.144C280.58 34.616 280.284 34.984 279.9 35.248C279.524 35.512 279.084 35.644 278.58 35.644ZM278.796 34.768C279.148 34.768 279.46 34.672 279.732 34.48C280.004 34.288 280.216 34.02 280.368 33.676C280.528 33.332 280.608 32.94 280.608 32.5C280.608 32.06 280.528 31.668 280.368 31.324C280.216 30.98 280.004 30.712 279.732 30.52C279.46 30.328 279.144 30.232 278.784 30.232C278.408 30.232 278.072 30.328 277.776 30.52C277.488 30.712 277.26 30.98 277.092 31.324C276.924 31.668 276.84 32.06 276.84 32.5C276.84 32.94 276.924 33.332 277.092 33.676C277.26 34.02 277.492 34.288 277.788 34.48C278.084 34.672 278.42 34.768 278.796 34.768ZM286.944 35.5L286.896 34.516V32.332C286.896 31.86 286.844 31.472 286.74 31.168C286.636 30.856 286.472 30.62 286.248 30.46C286.024 30.3 285.732 30.22 285.372 30.22C285.044 30.22 284.76 30.288 284.52 30.424C284.288 30.552 284.096 30.76 283.944 31.048L283.08 30.712C283.232 30.432 283.416 30.192 283.632 29.992C283.848 29.784 284.1 29.628 284.388 29.524C284.676 29.412 285.004 29.356 285.372 29.356C285.932 29.356 286.392 29.468 286.752 29.692C287.12 29.908 287.396 30.232 287.58 30.664C287.764 31.088 287.852 31.616 287.844 32.248L287.832 35.5H286.944ZM285.144 35.644C284.44 35.644 283.888 35.484 283.488 35.164C283.096 34.836 282.9 34.384 282.9 33.808C282.9 33.2 283.1 32.736 283.5 32.416C283.908 32.088 284.476 31.924 285.204 31.924H286.92V32.728H285.42C284.86 32.728 284.46 32.82 284.22 33.004C283.988 33.188 283.872 33.452 283.872 33.796C283.872 34.108 283.988 34.356 284.22 34.54C284.452 34.716 284.776 34.804 285.192 34.804C285.536 34.804 285.836 34.732 286.092 34.588C286.348 34.436 286.544 34.224 286.68 33.952C286.824 33.672 286.896 33.344 286.896 32.968H287.304C287.304 33.784 287.12 34.436 286.752 34.924C286.384 35.404 285.848 35.644 285.144 35.644ZM289.425 37.9V29.5H290.325L290.385 30.604V37.9H289.425ZM292.413 35.644C291.909 35.644 291.465 35.512 291.081 35.248C290.705 34.984 290.413 34.616 290.205 34.144C289.997 33.664 289.893 33.116 289.893 32.5C289.893 31.876 289.997 31.328 290.205 30.856C290.413 30.384 290.705 30.016 291.081 29.752C291.465 29.488 291.909 29.356 292.413 29.356C292.949 29.356 293.421 29.488 293.829 29.752C294.237 30.016 294.553 30.384 294.777 30.856C295.009 31.328 295.125 31.876 295.125 32.5C295.125 33.116 295.009 33.664 294.777 34.144C294.553 34.616 294.237 34.984 293.829 35.248C293.421 35.512 292.949 35.644 292.413 35.644ZM292.197 34.768C292.573 34.768 292.905 34.672 293.193 34.48C293.489 34.288 293.721 34.02 293.889 33.676C294.065 33.332 294.153 32.94 294.153 32.5C294.153 32.06 294.069 31.668 293.901 31.324C293.741 30.98 293.513 30.712 293.217 30.52C292.921 30.328 292.585 30.232 292.209 30.232C291.857 30.232 291.541 30.328 291.261 30.52C290.989 30.712 290.773 30.98 290.613 31.324C290.461 31.668 290.385 32.06 290.385 32.5C290.385 32.94 290.461 33.332 290.613 33.676C290.773 34.02 290.989 34.288 291.261 34.48C291.533 34.672 291.845 34.768 292.197 34.768ZM298.711 35.644C298.127 35.644 297.675 35.492 297.355 35.188C297.035 34.884 296.875 34.456 296.875 33.904V27.628H297.835V33.808C297.835 34.112 297.915 34.348 298.075 34.516C298.243 34.676 298.475 34.756 298.771 34.756C298.867 34.756 298.959 34.744 299.047 34.72C299.143 34.688 299.267 34.616 299.419 34.504L299.791 35.284C299.583 35.42 299.395 35.512 299.227 35.56C299.059 35.616 298.887 35.644 298.711 35.644ZM295.831 30.352V29.5H299.635V30.352H295.831ZM303.583 35.644C302.999 35.644 302.483 35.512 302.035 35.248C301.587 34.976 301.235 34.604 300.979 34.132C300.731 33.66 300.607 33.116 300.607 32.5C300.607 31.884 300.731 31.34 300.979 30.868C301.235 30.396 301.583 30.028 302.023 29.764C302.471 29.492 302.983 29.356 303.559 29.356C304.119 29.356 304.603 29.496 305.011 29.776C305.419 30.048 305.735 30.432 305.959 30.928C306.183 31.424 306.295 32.008 306.295 32.68H301.339L301.579 32.476C301.579 32.956 301.663 33.368 301.831 33.712C302.007 34.056 302.251 34.32 302.563 34.504C302.875 34.68 303.231 34.768 303.631 34.768C304.055 34.768 304.411 34.668 304.699 34.468C304.995 34.268 305.223 34.004 305.383 33.676L306.211 34.096C306.059 34.408 305.855 34.68 305.599 34.912C305.351 35.144 305.055 35.324 304.711 35.452C304.375 35.58 303.999 35.644 303.583 35.644ZM301.639 32.068L301.387 31.876H305.527L305.275 32.08C305.275 31.696 305.199 31.364 305.047 31.084C304.895 30.804 304.691 30.588 304.435 30.436C304.179 30.284 303.883 30.208 303.547 30.208C303.219 30.208 302.907 30.284 302.611 30.436C302.323 30.588 302.087 30.804 301.903 31.084C301.727 31.356 301.639 31.684 301.639 32.068ZM308.034 32.248C308.034 31.6 308.158 31.076 308.406 30.676C308.654 30.268 308.97 29.968 309.354 29.776C309.746 29.576 310.158 29.476 310.59 29.476V30.376C310.238 30.376 309.898 30.436 309.57 30.556C309.25 30.668 308.986 30.856 308.778 31.12C308.57 31.384 308.466 31.744 308.466 32.2L308.034 32.248ZM307.506 35.5V29.5H308.466V35.5H307.506ZM313.66 35.644C313.22 35.644 312.836 35.58 312.508 35.452C312.18 35.316 311.904 35.14 311.68 34.924C311.464 34.708 311.308 34.472 311.212 34.216L312.052 33.868C312.188 34.14 312.392 34.36 312.664 34.528C312.936 34.696 313.236 34.78 313.564 34.78C313.94 34.78 314.256 34.708 314.512 34.564C314.768 34.412 314.896 34.2 314.896 33.928C314.896 33.68 314.8 33.48 314.608 33.328C314.424 33.176 314.148 33.052 313.78 32.956L313.204 32.8C312.66 32.656 312.236 32.44 311.932 32.152C311.628 31.856 311.476 31.524 311.476 31.156C311.476 30.588 311.66 30.148 312.028 29.836C312.404 29.516 312.96 29.356 313.696 29.356C314.048 29.356 314.368 29.408 314.656 29.512C314.944 29.616 315.192 29.764 315.4 29.956C315.608 30.14 315.76 30.36 315.856 30.616L315.016 30.988C314.912 30.716 314.74 30.52 314.5 30.4C314.26 30.28 313.968 30.22 313.624 30.22C313.256 30.22 312.968 30.3 312.76 30.46C312.552 30.612 312.448 30.828 312.448 31.108C312.448 31.268 312.532 31.42 312.7 31.564C312.876 31.7 313.132 31.812 313.468 31.9L314.068 32.056C314.46 32.152 314.788 32.296 315.052 32.488C315.316 32.672 315.516 32.884 315.652 33.124C315.788 33.364 315.856 33.62 315.856 33.892C315.856 34.252 315.76 34.564 315.568 34.828C315.376 35.092 315.116 35.296 314.788 35.44C314.46 35.576 314.084 35.644 313.66 35.644Z"/></g><g filter="url(#filter3_d_597_73)"><circle cx="206.5" cy="73.5" r="2.5" fill="#fff"/></g><rect width="25" height="54.175" x="219" y="319" fill="#002B57" transform="rotate(-180 219 319)"/><path fill="#fff" d="M196 317.75C195.759 317.75 195.563 317.554 195.563 317.312L195.563 302.411C195.563 302.169 195.758 301.974 196 301.974C196.242 301.974 196.438 302.169 196.438 302.411L196.438 317.312C196.437 317.554 196.242 317.75 196 317.75ZM217 317.75C216.758 317.75 216.563 317.554 216.563 317.312L216.563 309.667C216.563 309.425 216.758 309.229 217 309.229C217.241 309.229 217.437 309.425 217.438 309.667L217.438 317.312C217.437 317.554 217.241 317.75 217 317.75ZM215.25 317.75C215.008 317.75 214.813 317.554 214.813 317.312L214.813 309.667C214.813 309.425 215.008 309.229 215.25 309.229C215.492 309.229 215.688 309.425 215.688 309.667L215.688 317.312C215.687 317.554 215.491 317.75 215.25 317.75ZM213.499 317.75C213.258 317.75 213.062 317.554 213.062 317.312L213.062 309.667C213.062 309.425 213.258 309.23 213.499 309.229C213.741 309.229 213.937 309.425 213.937 309.667L213.937 317.312C213.936 317.554 213.741 317.75 213.499 317.75ZM211.749 317.75C211.508 317.75 211.312 317.554 211.312 317.312L211.312 309.667C211.312 309.425 211.508 309.23 211.749 309.229C211.991 309.229 212.187 309.425 212.187 309.667L212.187 317.312C212.186 317.554 211.991 317.75 211.749 317.75ZM210 317.75C209.758 317.75 209.563 317.554 209.563 317.312L209.563 309.667C209.563 309.425 209.758 309.229 210 309.229C210.241 309.23 210.438 309.425 210.438 309.667L210.438 317.312C210.437 317.554 210.241 317.75 210 317.75ZM208.25 317.75C208.008 317.75 207.813 317.554 207.813 317.312L207.813 309.667C207.813 309.425 208.008 309.229 208.25 309.229C208.491 309.23 208.688 309.425 208.688 309.667L208.688 317.312C208.687 317.554 208.491 317.75 208.25 317.75ZM206.5 317.75C206.258 317.75 206.063 317.554 206.063 317.312L206.063 309.667C206.063 309.425 206.258 309.229 206.5 309.229C206.742 309.229 206.938 309.425 206.938 309.667L206.938 317.312C206.937 317.554 206.741 317.75 206.5 317.75ZM204.75 317.75C204.508 317.75 204.313 317.554 204.313 317.312L204.313 309.667C204.313 309.425 204.508 309.229 204.75 309.229C204.992 309.229 205.188 309.425 205.188 309.667L205.188 317.312C205.187 317.554 204.991 317.75 204.75 317.75ZM203 317.75C202.758 317.75 202.563 317.554 202.563 317.312L202.563 309.667C202.563 309.425 202.758 309.229 203 309.229C203.242 309.229 203.438 309.425 203.438 309.667L203.438 317.312C203.437 317.554 203.241 317.75 203 317.75ZM201.25 317.75C201.009 317.75 200.813 317.554 200.813 317.312L200.813 309.667C200.813 309.425 201.009 309.23 201.25 309.229C201.492 309.229 201.688 309.425 201.688 309.667L201.688 317.312C201.687 317.554 201.492 317.75 201.25 317.75ZM199.5 317.75C199.259 317.75 199.063 317.554 199.063 317.312L199.063 309.667C199.063 309.425 199.258 309.229 199.5 309.229C199.742 309.229 199.938 309.425 199.938 309.667L199.938 317.312C199.937 317.554 199.742 317.75 199.5 317.75ZM197.75 317.75C197.508 317.75 197.313 317.554 197.313 317.312L197.313 309.667C197.313 309.425 197.508 309.229 197.75 309.229C197.992 309.229 198.188 309.425 198.188 309.667L198.188 317.312C198.187 317.554 197.991 317.75 197.75 317.75Z"/><path fill="#002B57" d="M197.125 240.059L215.875 240.059L215.875 263.277L197.125 263.277L197.125 240.059ZM212.75 249.347L212.75 246.251L208.063 246.251L208.063 249.347L212.75 249.347ZM204.938 249.347L204.938 246.251L200.25 246.251L200.25 249.347L204.938 249.347Z"/><path stroke="#005FBE" stroke-dasharray="3 3" stroke-linecap="round" stroke-width=".7" d="M206.5 76L206.5 482.711"/><g filter="url(#filter4_d_597_73)"><circle cx="275.5" cy="73.5" r="2.5" fill="#fff"/></g><path fill="#002B57" d="M263.895 253.96L264.379 253.713C265.484 253.146 266.721 252.848 267.976 252.848L283.024 252.848C284.279 252.848 285.516 253.146 286.621 253.713L287.105 253.96C289.506 255.195 291 257.563 291 260.134L291 316.667C291 320.557 287.642 323.705 283.508 323.705L267.492 323.705C263.352 323.705 260 320.551 260 316.667L260 260.134C260 257.563 261.494 255.195 263.895 253.96Z"/><path fill="#fff" d="M262.213 316.496L262.213 262.661C262.213 262.133 262.619 261.705 263.121 261.705C263.623 261.705 264.03 262.133 264.03 262.661L264.03 315.696L267.722 319.58L275.498 319.58L275.498 321.491L266.962 321.491L265.72 320.185L262.213 316.496Z"/><path fill="#002B57" d="M283.619 235.134V251.667H265.904V235.134H283.619ZM268.855 240.67V243.991H272.177V240.67H268.855ZM277.713 240.67V243.991H281.034V240.67H277.713Z"/><path stroke="#005FBE" stroke-dasharray="3 3" stroke-linecap="round" stroke-width=".7" d="M275.5 76L275.5 482.711"/><g filter="url(#filter5_d_597_73)"><circle cx="344.224" cy="73.5" r="2.5" fill="#fff"/></g><path fill="#002B57" d="M356.448 320.36H332V263.314H356.448V320.36ZM335.328 297.076C334.776 297.076 334.328 297.524 334.328 298.076V317.032C334.328 317.584 334.776 318.032 335.328 318.032H353.12C353.672 318.032 354.12 317.584 354.12 317.032V298.076C354.12 297.524 353.672 297.076 353.12 297.076H335.328Z"/><path fill="#002B57" d="M353.421 238.866V261.684H335.493V238.866H353.421ZM337.123 247.015V250.275H342.012V247.015H337.123ZM346.902 247.015V250.275H351.791V247.015H346.902Z"/><path stroke="#fff" stroke-linecap="round" stroke-linejoin="round" d="M335.202 307.097L336.033 305.51L337.696 313.448V305.51L340.191 313.448V305.51L342.686 313.448V305.51L345.181 313.448V305.51L347.675 313.448V305.51L350.17 313.448V305.51L352.665 313.448V295.984"/><path stroke="#005FBE" stroke-dasharray="3 3" stroke-linecap="round" stroke-width=".7" d="M344.167 76L344.167 482.711"/><line x1=".35" x2="355.65" y1="482.65" y2="482.65" stroke="url(#paint0_linear_597_73)" stroke-linecap="round" stroke-width=".7"/><line x1=".35" x2="355.65" y1="465.65" y2="465.65" stroke="url(#paint1_linear_597_73)" stroke-linecap="round" stroke-width=".7"/><line x1=".35" x2="355.65" y1="148.65" y2="148.65" stroke="url(#paint2_linear_597_73)" stroke-linecap="round" stroke-width=".7"/><line x1=".35" x2="355.65" y1="324.65" y2="324.65" stroke="url(#paint3_linear_597_73)" stroke-linecap="round" stroke-width=".7"/><line x1=".35" x2="355.65" y1="233.65" y2="233.65" stroke="url(#paint4_linear_597_73)" stroke-linecap="round" stroke-width=".7"/><line x1=".35" x2="355.65" y1="99.65" y2="99.65" stroke="url(#paint5_linear_597_73)" stroke-linecap="round" stroke-width=".7"/><defs><filter id="filter0_d_597_73" width="96.4" height="62.4" x="32.3" y=".845" color-interpolation-filters="sRGB" filterUnits="userSpaceOnUse"><feFlood flood-opacity="0" result="BackgroundImageFix"/><feColorMatrix in="SourceAlpha" result="hardAlpha" type="matrix" values="0 0 0 0 0 0 0 0 0 0 0 0 0 0 0 0 0 0 127 0"/><feMorphology in="SourceAlpha" operator="dilate" radius="2" result="effect1_dropShadow_597_73"/><feOffset/><feGaussianBlur stdDeviation="7.35"/><feComposite in2="hardAlpha" operator="out"/><feColorMatrix type="matrix" values="0 0 0 0 0 0 0 0 0 0.372549 0 0 0 0 0.745098 0 0 0 1 0"/><feBlend in2="BackgroundImageFix" mode="lighten" result="effect1_dropShadow_597_73"/><feBlend in="SourceGraphic" in2="effect1_dropShadow_597_73" mode="normal" result="shape"/></filter><filter id="filter1_d_597_73" width="38.4" height="38.4" x="61.3" y="53.845" color-interpolation-filters="sRGB" filterUnits="userSpaceOnUse"><feFlood flood-opacity="0" result="BackgroundImageFix"/><feColorMatrix in="SourceAlpha" result="hardAlpha" type="matrix" values="0 0 0 0 0 0 0 0 0 0 0 0 0 0 0 0 0 0 127 0"/><feMorphology in="SourceAlpha" operator="dilate" radius="2" result="effect1_dropShadow_597_73"/><feOffset/><feGaussianBlur stdDeviation="7.35"/><feComposite in2="hardAlpha" operator="out"/><feColorMatrix type="matrix" values="0 0 0 0 0 0 0 0 0 0.372549 0 0 0 0 0.745098 0 0 0 1 0"/><feBlend in2="BackgroundImageFix" mode="lighten" result="effect1_dropShadow_597_73"/><feBlend in="SourceGraphic" in2="effect1_dropShadow_597_73" mode="normal" result="shape"/></filter><filter id="filter2_d_597_73" width="141.4" height="62.4" x="204.524" y=".3" color-interpolation-filters="sRGB" filterUnits="userSpaceOnUse"><feFlood flood-opacity="0" result="BackgroundImageFix"/><feColorMatrix in="SourceAlpha" result="hardAlpha" type="matrix" values="0 0 0 0 0 0 0 0 0 0 0 0 0 0 0 0 0 0 127 0"/><feMorphology in="SourceAlpha" operator="dilate" radius="2" result="effect1_dropShadow_597_73"/><feOffset/><feGaussianBlur stdDeviation="7.35"/><feComposite in2="hardAlpha" operator="out"/><feColorMatrix type="matrix" values="0 0 0 0 0 0 0 0 0 0.372549 0 0 0 0 0.745098 0 0 0 1 0"/><feBlend in2="BackgroundImageFix" mode="lighten" result="effect1_dropShadow_597_73"/><feBlend in="SourceGraphic" in2="effect1_dropShadow_597_73" mode="normal" result="shape"/></filter><filter id="filter3_d_597_73" width="38.4" height="38.4" x="187.3" y="54.3" color-interpolation-filters="sRGB" filterUnits="userSpaceOnUse"><feFlood flood-opacity="0" result="BackgroundImageFix"/><feColorMatrix in="SourceAlpha" result="hardAlpha" type="matrix" values="0 0 0 0 0 0 0 0 0 0 0 0 0 0 0 0 0 0 127 0"/><feMorphology in="SourceAlpha" operator="dilate" radius="2" result="effect1_dropShadow_597_73"/><feOffset/><feGaussianBlur stdDeviation="7.35"/><feComposite in2="hardAlpha" operator="out"/><feColorMatrix type="matrix" values="0 0 0 0 0 0 0 0 0 0.372549 0 0 0 0 0.745098 0 0 0 1 0"/><feBlend in2="BackgroundImageFix" mode="lighten" result="effect1_dropShadow_597_73"/><feBlend in="SourceGraphic" in2="effect1_dropShadow_597_73" mode="normal" result="shape"/></filter><filter id="filter4_d_597_73" width="38.4" height="38.4" x="256.3" y="54.3" color-interpolation-filters="sRGB" filterUnits="userSpaceOnUse"><feFlood flood-opacity="0" result="BackgroundImageFix"/><feColorMatrix in="SourceAlpha" result="hardAlpha" type="matrix" values="0 0 0 0 0 0 0 0 0 0 0 0 0 0 0 0 0 0 127 0"/><feMorphology in="SourceAlpha" operator="dilate" radius="2" result="effect1_dropShadow_597_73"/><feOffset/><feGaussianBlur stdDeviation="7.35"/><feComposite in2="hardAlpha" operator="out"/><feColorMatrix type="matrix" values="0 0 0 0 0 0 0 0 0 0.372549 0 0 0 0 0.745098 0 0 0 1 0"/><feBlend in2="BackgroundImageFix" mode="lighten" result="effect1_dropShadow_597_73"/><feBlend in="SourceGraphic" in2="effect1_dropShadow_597_73" mode="normal" result="shape"/></filter><filter id="filter5_d_597_73" width="38.4" height="38.4" x="325.024" y="54.3" color-interpolation-filters="sRGB" filterUnits="userSpaceOnUse"><feFlood flood-opacity="0" result="BackgroundImageFix"/><feColorMatrix in="SourceAlpha" result="hardAlpha" type="matrix" values="0 0 0 0 0 0 0 0 0 0 0 0 0 0 0 0 0 0 127 0"/><feMorphology in="SourceAlpha" operator="dilate" radius="2" result="effect1_dropShadow_597_73"/><feOffset/><feGaussianBlur stdDeviation="7.35"/><feComposite in2="hardAlpha" operator="out"/><feColorMatrix type="matrix" values="0 0 0 0 0 0 0 0 0 0.372549 0 0 0 0 0.745098 0 0 0 1 0"/><feBlend in2="BackgroundImageFix" mode="lighten" result="effect1_dropShadow_597_73"/><feBlend in="SourceGraphic" in2="effect1_dropShadow_597_73" mode="normal" result="shape"/></filter><linearGradient id="paint0_linear_597_73" x1="0" x2="356" y1="483.5" y2="483.5" gradientUnits="userSpaceOnUse"><stop stop-color="#005FBE"/><stop offset="1" stop-color="#005FBE" stop-opacity="0"/></linearGradient><linearGradient id="paint1_linear_597_73" x1="0" x2="356" y1="466.5" y2="466.5" gradientUnits="userSpaceOnUse"><stop stop-color="#005FBE"/><stop offset="1" stop-color="#005FBE" stop-opacity="0"/></linearGradient><linearGradient id="paint2_linear_597_73" x1="0" x2="356" y1="149.5" y2="149.5" gradientUnits="userSpaceOnUse"><stop stop-color="#005FBE"/><stop offset="1" stop-color="#005FBE" stop-opacity="0"/></linearGradient><linearGradient id="paint3_linear_597_73" x1="0" x2="356" y1="325.5" y2="325.5" gradientUnits="userSpaceOnUse"><stop stop-color="#005FBE"/><stop offset="1" stop-color="#005FBE" stop-opacity="0"/></linearGradient><linearGradient id="paint4_linear_597_73" x1="0" x2="356" y1="234.5" y2="234.5" gradientUnits="userSpaceOnUse"><stop stop-color="#005FBE"/><stop offset="1" stop-color="#005FBE" stop-opacity="0"/></linearGradient><linearGradient id="paint5_linear_597_73" x1="0" x2="356" y1="100.5" y2="100.5" gradientUnits="userSpaceOnUse"><stop stop-color="#005FBE"/><stop offset="1" stop-color="#005FBE" stop-opacity="0"/></linearGradient></defs></svg>