<svg xmlns="http://www.w3.org/2000/svg" width="761" height="168" fill="none" viewBox="0 0 761 168"><path fill="url(#paint0_linear_322_184)" d="M760.533 25.2529C752.37 25.2529 752.835 1.457 745.188 1.457C737.025 1.457 737.49 25.2529 729.844 25.2529C721.681 25.2529 722.146 1.457 714.499 1.457C706.336 1.457 706.801 25.2529 699.154 25.2529C690.991 25.2529 691.456 1.457 683.81 1.457C675.647 1.457 676.112 25.2529 668.465 25.2529C660.302 25.2529 660.767 1.457 653.12 1.457C644.957 1.457 645.422 25.2529 637.776 25.2529C629.613 25.2529 630.078 1.457 622.431 1.457C614.268 1.457 614.733 25.2529 607.086 25.2529C598.923 25.2529 599.388 1.457 591.742 1.457C583.579 1.457 584.044 25.2529 576.397 25.2529C568.234 25.2529 568.699 1.457 561.052 1.457C552.889 1.457 553.354 25.2529 545.708 25.2529C537.544 25.2529 538.009 1.457 530.363 1.457C522.2 1.457 522.665 25.2529 515.018 25.2529C504.22 25.2529 504.823 1.44294 494.696 1.44294C483.898 1.44294 484.501 25.2529 474.375 25.2529C460.924 25.2529 461.682 1.42888 449.093 1.42888C435.643 1.42888 436.401 25.2529 423.811 25.2529C405.074 25.2529 406.125 1.38672 388.575 1.38672C369.838 1.38672 370.889 25.2529 353.34 25.2529C334.602 25.2529 335.653 1.38672 318.104 1.38672C299.366 1.38672 300.417 25.2529 282.868 25.2529C264.13 25.2529 265.181 1.38672 247.632 1.38672C228.894 1.38672 229.945 25.2529 212.396 25.2529C193.659 25.2529 194.709 1.38672 177.16 1.38672C158.423 1.38672 159.473 25.2529 141.924 25.2529C123.187 25.2529 124.237 1.38672 106.688 1.38672C87.9509 1.38672 89.0014 25.2529 71.4524 25.2529C52.715 25.2529 53.7655 1.38672 36.2164 1.38672C17.479 1.38672 18.5296 25.2529 0.98056 25.2529L0.982635 168H760.535L760.533 25.2529Z" opacity=".2"/><path stroke="#00AEF8" stroke-miterlimit="10" d="M761 25.2529C752.837 25.2529 753.302 1.457 745.655 1.457C737.492 1.457 737.957 25.2529 730.311 25.2529C722.148 25.2529 722.613 1.457 714.966 1.457C706.803 1.457 707.268 25.2529 699.621 25.2529C691.458 25.2529 691.923 1.457 684.277 1.457C676.114 1.457 676.579 25.2529 668.932 25.2529C660.769 25.2529 661.234 1.457 653.587 1.457C645.424 1.457 645.889 25.2529 638.243 25.2529C630.08 25.2529 630.545 1.457 622.898 1.457C614.735 1.457 615.2 25.2529 607.553 25.2529C599.39 25.2529 599.855 1.457 592.209 1.457C584.046 1.457 584.511 25.2529 576.864 25.2529C568.701 25.2529 569.166 1.457 561.519 1.457C553.356 1.457 553.821 25.2529 546.175 25.2529C538.012 25.2529 538.477 1.457 530.83 1.457C522.667 1.457 523.132 25.2529 515.485 25.2529C504.687 25.2529 505.29 1.44294 495.164 1.44294C484.365 1.44294 484.968 25.2529 474.842 25.2529C461.392 25.2529 462.149 1.42888 449.56 1.42888C436.11 1.42888 436.868 25.2529 424.278 25.2529C405.541 25.2529 406.592 1.38672 389.043 1.38672C370.305 1.38672 371.356 25.2529 353.807 25.2529C335.069 25.2529 336.12 1.38672 318.571 1.38672C299.833 1.38672 300.884 25.2529 283.335 25.2529C264.598 25.2529 265.648 1.38672 248.099 1.38672C229.362 1.38672 230.412 25.2529 212.863 25.2529C194.126 25.2529 195.176 1.38672 177.627 1.38672C158.89 1.38672 159.94 25.2529 142.391 25.2529C123.654 25.2529 124.704 1.38672 107.155 1.38672C88.418 1.38672 89.4686 25.2529 71.9195 25.2529C53.1822 25.2529 54.2327 1.38672 36.6836 1.38672C17.9463 1.38672 18.9968 25.2529 1.44769 25.2529"/><defs><linearGradient id="paint0_linear_322_184" x1="380.759" x2="380.759" y1="168" y2="1" gradientUnits="userSpaceOnUse"><stop stop-color="#005FBE" stop-opacity="0"/><stop offset="1" stop-color="#005FBE"/></linearGradient></defs></svg>