<svg xmlns="http://www.w3.org/2000/svg" width="353" height="252" fill="none" viewBox="0 0 353 252"><g clip-path="url(#clip0_650_315)"><path fill="url(#paint0_linear_650_315)" d="M352.989 177.115C349.196 177.115 349.412 153.264 345.858 153.264C342.064 153.264 342.28 177.115 338.727 177.115C334.933 177.115 335.149 153.264 331.595 153.264C327.802 153.264 328.018 177.115 324.464 177.115C320.67 177.115 320.886 153.264 317.333 153.264C313.539 153.264 313.755 177.115 310.201 177.115C306.407 177.115 306.624 153.264 303.07 153.264C299.276 153.264 299.492 177.115 295.939 177.115C292.145 177.115 292.361 153.264 288.807 153.264C285.013 153.264 285.229 177.115 281.676 177.115C277.882 177.115 278.098 153.264 274.544 153.264C270.751 153.264 270.967 177.115 267.413 177.115C263.619 177.115 263.835 153.264 260.282 153.264C256.488 153.264 256.704 177.115 253.15 177.115C249.356 177.115 249.572 153.264 246.019 153.264C242.225 153.264 242.441 177.115 238.887 177.115C233.869 177.115 234.149 153.25 229.443 153.25C224.425 153.25 224.705 177.115 219.999 177.115C213.748 177.115 214.1 153.236 208.249 153.236C201.998 153.236 202.35 177.115 196.499 177.115C187.791 177.115 188.279 153.193 180.124 153.193C171.416 153.193 171.904 177.115 163.748 177.115C155.04 177.115 155.528 153.193 147.372 153.193C138.664 153.193 139.152 177.115 130.996 177.115C122.288 177.115 122.776 153.193 114.621 153.193C105.912 153.193 106.401 177.115 98.2449 177.115C89.5368 177.115 90.025 153.193 81.8691 153.193C73.161 153.193 73.6492 177.115 65.4934 177.115C56.7853 177.115 57.2735 153.193 49.1176 153.193C40.4095 153.193 40.8977 177.115 32.7419 177.115C24.0338 177.115 24.522 153.193 16.3661 153.193C7.658 153.193 8.14625 177.115 -0.00961304 177.115L-0.00878906 236.093H352.99L352.989 177.115Z" opacity=".2"/><path stroke="#00AEF8" stroke-miterlimit="10" d="M352.99 177.193C349.196 177.193 349.413 153.264 345.859 153.264C342.065 153.264 342.281 177.193 338.727 177.193C334.934 177.193 335.15 153.264 331.596 153.264C327.802 153.264 328.018 177.193 324.465 177.193C320.671 177.193 320.887 153.264 317.333 153.264C313.539 153.264 313.756 177.193 310.202 177.193C306.408 177.193 306.624 153.264 303.07 153.264C299.277 153.264 299.493 177.193 295.939 177.193C292.145 177.193 292.361 153.264 288.808 153.264C285.014 153.264 285.23 177.193 281.676 177.193C277.882 177.193 278.099 153.264 274.545 153.264C270.751 153.264 270.967 177.193 267.414 177.193C263.62 177.193 263.836 153.264 260.282 153.264C256.488 153.264 256.704 177.193 253.151 177.193C249.357 177.193 249.573 153.264 246.019 153.264C242.226 153.264 242.442 177.193 238.888 177.193C233.87 177.193 234.15 153.25 229.443 153.25C224.425 153.25 224.705 177.193 219.999 177.193C213.748 177.193 214.1 153.236 208.249 153.236C201.998 153.236 202.351 177.193 196.5 177.193C187.792 177.193 188.28 153.193 180.124 153.193C171.416 153.193 171.904 177.193 163.748 177.193C155.04 177.193 155.528 153.193 147.372 153.193C138.664 153.193 139.152 177.193 130.997 177.193C122.288 177.193 122.777 153.193 114.621 153.193C105.913 153.193 106.401 177.193 98.245 177.193C89.5368 177.193 90.0251 153.193 81.8692 153.193C73.1611 153.193 73.6493 177.193 65.4934 177.193C56.7852 177.193 57.2735 153.193 49.1176 153.193C40.4095 153.193 40.8977 177.193 32.7418 177.193C24.0337 177.193 24.5219 153.193 16.366 153.193C7.65789 153.193 8.1461 177.193 -0.00978396 177.193"/><path stroke="url(#paint1_linear_650_315)" stroke-miterlimit="10" d="M82 208.665L82 60.2852"/><path stroke="url(#paint2_linear_650_315)" stroke-miterlimit="10" d="M17 252.093L17 6"/><path stroke="url(#paint3_linear_650_315)" stroke-miterlimit="10" d="M24.3584 195.998L24.3584 208.665"/><path stroke="url(#paint4_linear_650_315)" stroke-miterlimit="10" d="M31.7173 195.998L31.7173 208.665"/><path stroke="url(#paint5_linear_650_315)" stroke-miterlimit="10" d="M38.4624 195.998L38.4624 208.665"/><path stroke="url(#paint6_linear_650_315)" stroke-miterlimit="10" d="M45.8208 195.998L45.8208 208.665"/><path stroke="url(#paint7_linear_650_315)" stroke-miterlimit="10" d="M53.1792 195.998L53.1792 208.665"/><path stroke="url(#paint8_linear_650_315)" stroke-miterlimit="10" d="M60.5381 195.998L60.5381 208.665"/><path stroke="url(#paint9_linear_650_315)" stroke-miterlimit="10" d="M67.2832 195.998L67.2832 208.665"/><path stroke="url(#paint10_linear_650_315)" stroke-miterlimit="10" d="M74.6416 195.998L74.6416 208.665"/><path stroke="url(#paint11_linear_650_315)" stroke-miterlimit="10" d="M89.3584 195.998L89.3584 208.665"/><path stroke="url(#paint12_linear_650_315)" stroke-miterlimit="10" d="M82 195.998L82 208.665"/><path stroke="url(#paint13_linear_650_315)" stroke-miterlimit="10" d="M96.7173 195.998L96.7173 208.665"/><path stroke="url(#paint14_linear_650_315)" stroke-miterlimit="10" d="M103.462 195.998L103.462 208.665"/><path stroke="url(#paint15_linear_650_315)" stroke-miterlimit="10" d="M110.821 195.998L110.821 208.665"/><path stroke="url(#paint16_linear_650_315)" stroke-miterlimit="10" d="M118.179 195.998L118.179 208.665"/><path stroke="url(#paint17_linear_650_315)" stroke-miterlimit="10" d="M125.538 195.998L125.538 208.665"/><path stroke="url(#paint18_linear_650_315)" stroke-miterlimit="10" d="M132.283 195.998L132.283 208.665"/><path stroke="url(#paint19_linear_650_315)" stroke-miterlimit="10" d="M139.642 195.998L139.642 208.665"/><path stroke="url(#paint20_linear_650_315)" stroke-miterlimit="10" d="M147 252.093L147 6"/><path stroke="url(#paint21_linear_650_315)" stroke-miterlimit="10" d="M240 252.093L240 6"/><path stroke="url(#paint22_linear_650_315)" stroke-miterlimit="10" d="M245.264 195.998L245.264 208.665"/><path stroke="url(#paint23_linear_650_315)" stroke-miterlimit="10" d="M250.528 195.998L250.528 208.665"/><path stroke="url(#paint24_linear_650_315)" stroke-miterlimit="10" d="M255.354 195.998L255.354 208.665"/><path stroke="url(#paint25_linear_650_315)" stroke-miterlimit="10" d="M260.618 195.998L260.618 208.665"/><path stroke="url(#paint26_linear_650_315)" stroke-miterlimit="10" d="M265.882 195.998L265.882 208.665"/><path stroke="url(#paint27_linear_650_315)" stroke-miterlimit="10" d="M271.146 195.998L271.146 208.665"/><path stroke="url(#paint28_linear_650_315)" stroke-miterlimit="10" d="M275.972 195.998L275.972 208.665"/><path stroke="url(#paint29_linear_650_315)" stroke-miterlimit="10" d="M281.236 195.998L281.236 208.665"/><path stroke="url(#paint30_linear_650_315)" stroke-miterlimit="10" d="M291.764 195.998L291.764 208.665"/><path stroke="url(#paint31_linear_650_315)" stroke-miterlimit="10" d="M286.834 195.998L286.834 208.665"/><path stroke="url(#paint32_linear_650_315)" stroke-miterlimit="10" d="M297.028 195.998L297.028 208.665"/><path stroke="url(#paint33_linear_650_315)" stroke-miterlimit="10" d="M301.854 195.998L301.854 208.665"/><path stroke="url(#paint34_linear_650_315)" stroke-miterlimit="10" d="M307.118 195.998L307.118 208.665"/><path stroke="url(#paint35_linear_650_315)" stroke-miterlimit="10" d="M312.382 195.998L312.382 208.665"/><path stroke="url(#paint36_linear_650_315)" stroke-miterlimit="10" d="M317.646 195.998L317.646 208.665"/><path stroke="url(#paint37_linear_650_315)" stroke-miterlimit="10" d="M322.472 195.998L322.472 208.665"/><path stroke="url(#paint38_linear_650_315)" stroke-miterlimit="10" d="M327.736 195.998L327.736 208.665"/><path stroke="url(#paint39_linear_650_315)" stroke-miterlimit="10" d="M333 252.093L333 6"/><g filter="url(#filter0_d_650_315)"><circle cx="82" cy="153.093" r="3" fill="#fff"/></g><rect width="116" height="48" x="25" y="47.093" fill="#005FBE" rx="24"/><g clip-path="url(#clip1_650_315)"><path fill="#fff" d="M79.7541 72.9269H83.0452L84.0067 78.8092L85.0745 72.9269H87.3669L88.517 78.8092L89.5636 72.9269H92.6422L90.1373 81.8229H87.2394L86.315 77.173L85.2233 81.8229H82.4236L79.7567 72.9269H79.7541ZM100.398 72.948H103.902L105.312 78.3421L106.893 72.8846H110.227L106.89 81.8229H103.745L100.396 72.948H100.398ZM111.039 72.948V81.8229H116.997V79.5507H114.137V78.4899H116.724V76.1966H114.137V75.199H116.957V72.948H111.037H111.039ZM95.9625 78.6086L96.8284 75.4867L97.4872 78.6086H95.9652H95.9625ZM98.6453 72.9269H95.0169L91.7577 81.8229H95.1975L95.503 80.5905H98.0291L98.2947 81.8229H101.825L98.6427 72.9269H98.6453ZM74.7311 79.0414L73.0205 81.8018H65.583L69.7081 75.4524H65.8964L67.4848 72.9269H74.7284L70.8609 79.0414H74.7284H74.7311ZM70.4811 69.0212C65.737 69.0212 61.8908 72.8424 61.8908 77.5557C61.8908 82.2689 65.737 86.0901 70.4811 86.0901C75.2252 86.0901 79.0714 82.2689 79.0714 77.5557C79.0714 72.8424 75.2252 69.0212 70.4811 69.0212ZM70.2872 58.9007V56.0928C58.5227 56.1456 49 65.6327 49 77.334C49 77.3868 49.0027 77.4395 49.0053 77.4923H51.8236C51.8581 67.3217 60.0819 59.0722 70.2872 58.9007ZM70.2872 64.7592V61.954C70.2659 61.954 70.2447 61.954 70.2234 61.954C61.6198 61.954 54.6445 68.8839 54.6445 77.4316C54.6445 77.4527 54.6445 77.4738 54.6445 77.495H57.4708C57.5903 70.5148 63.2614 64.8806 70.2872 64.7618V64.7592Z"/></g><g filter="url(#filter1_d_650_315)"><rect width="76" height="29" x="248" y="15.093" fill="#002B57" fill-opacity=".2" rx="14.5" shape-rendering="crispEdges"/><path fill="#fff" d="M279.288 33.5928L281.88 25.1928H282.9L280.296 33.5928H279.288ZM274.176 33.5928L271.608 25.1928H272.628L275.172 33.5928H274.176ZM274.284 33.5928L276.756 25.1928H277.728L275.256 33.5928H274.284ZM279.204 33.5928L276.792 25.1928H277.764L280.212 33.5928H279.204ZM283.92 33.5928V27.5928H284.88V33.5928H283.92ZM284.412 26.2008C284.252 26.2008 284.112 26.1408 283.992 26.0208C283.872 25.9008 283.812 25.7608 283.812 25.6008C283.812 25.4328 283.872 25.2928 283.992 25.1808C284.112 25.0608 284.252 25.0008 284.412 25.0008C284.58 25.0008 284.72 25.0608 284.832 25.1808C284.952 25.2928 285.012 25.4328 285.012 25.6008C285.012 25.7608 284.952 25.9008 284.832 26.0208C284.72 26.1408 284.58 26.2008 284.412 26.2008ZM286.505 30.4608V29.5848H290.105V30.4608H286.505ZM291.929 33.5928V25.1928H296.921V26.1168H292.949V28.9848H296.453V29.9088H292.949V33.5928H291.929ZM298.228 33.5928V27.5928H299.188V33.5928H298.228ZM298.72 26.2008C298.56 26.2008 298.42 26.1408 298.3 26.0208C298.18 25.9008 298.12 25.7608 298.12 25.6008C298.12 25.4328 298.18 25.2928 298.3 25.1808C298.42 25.0608 298.56 25.0008 298.72 25.0008C298.888 25.0008 299.028 25.0608 299.14 25.1808C299.26 25.2928 299.32 25.4328 299.32 25.6008C299.32 25.7608 299.26 25.9008 299.14 26.0208C299.028 26.1408 298.888 26.2008 298.72 26.2008Z"/></g><g filter="url(#filter2_d_650_315)"><rect width="76" height="29" x="248" y="48.093" fill="#002B57" fill-opacity=".2" rx="14.5" shape-rendering="crispEdges"/><path fill="#fff" d="M267.564 66.5928V65.6568L272.856 59.1288H267.6V58.1928H274.128V59.1288L268.836 65.6568H274.092V66.5928H267.564ZM275.588 66.5928V60.5928H276.548V66.5928H275.588ZM276.08 59.2008C275.92 59.2008 275.78 59.1408 275.66 59.0208C275.539 58.9008 275.479 58.7608 275.479 58.6008C275.479 58.4328 275.539 58.2928 275.66 58.1808C275.78 58.0608 275.92 58.0008 276.08 58.0008C276.248 58.0008 276.388 58.0608 276.5 58.1808C276.62 58.2928 276.68 58.4328 276.68 58.6008C276.68 58.7608 276.62 58.9008 276.5 59.0208C276.388 59.1408 276.248 59.2008 276.08 59.2008ZM280.717 69.1368C280.333 69.1368 279.981 69.0968 279.661 69.0168C279.349 68.9448 279.081 68.8608 278.857 68.7648C278.641 68.6768 278.485 68.6008 278.389 68.5368L278.749 67.7568C278.853 67.8128 279.001 67.8808 279.193 67.9608C279.385 68.0488 279.609 68.1208 279.865 68.1768C280.129 68.2408 280.409 68.2728 280.705 68.2728C281.089 68.2728 281.433 68.1928 281.737 68.0328C282.049 67.8808 282.289 67.6368 282.457 67.3008C282.633 66.9728 282.721 66.5488 282.721 66.0288V60.5928H283.681V66.0168C283.681 66.7048 283.553 67.2808 283.297 67.7448C283.041 68.2088 282.689 68.5568 282.241 68.7888C281.793 69.0208 281.285 69.1368 280.717 69.1368ZM280.681 66.5448C280.145 66.5448 279.673 66.4168 279.265 66.1608C278.857 65.9048 278.537 65.5488 278.305 65.0928C278.081 64.6288 277.969 64.1008 277.969 63.5088C277.969 62.9008 278.081 62.3688 278.305 61.9128C278.537 61.4488 278.857 61.0888 279.265 60.8328C279.673 60.5768 280.145 60.4488 280.681 60.4488C281.185 60.4488 281.625 60.5768 282.001 60.8328C282.377 61.0888 282.669 61.4488 282.877 61.9128C283.093 62.3688 283.201 62.9008 283.201 63.5088C283.201 64.1088 283.093 64.6368 282.877 65.0928C282.669 65.5488 282.377 65.9048 282.001 66.1608C281.625 66.4168 281.185 66.5448 280.681 66.5448ZM280.909 65.7168C281.261 65.7168 281.573 65.6208 281.845 65.4288C282.117 65.2368 282.329 64.9768 282.481 64.6488C282.633 64.3128 282.709 63.9248 282.709 63.4848C282.709 63.0608 282.629 62.6848 282.469 62.3568C282.317 62.0208 282.105 61.7608 281.833 61.5768C281.569 61.3848 281.257 61.2888 280.897 61.2888C280.521 61.2888 280.185 61.3848 279.889 61.5768C279.601 61.7608 279.373 62.0208 279.205 62.3568C279.045 62.6848 278.965 63.0608 278.965 63.4848C278.965 63.9248 279.049 64.3128 279.217 64.6488C279.385 64.9768 279.613 65.2368 279.901 65.4288C280.197 65.6208 280.533 65.7168 280.909 65.7168ZM285.36 66.5928V58.1928H286.32V65.4768L286.272 66.5928H285.36ZM288.348 66.7368C287.844 66.7368 287.4 66.6048 287.016 66.3408C286.64 66.0768 286.348 65.7088 286.14 65.2368C285.932 64.7568 285.828 64.2088 285.828 63.5928C285.828 62.9688 285.932 62.4208 286.14 61.9488C286.348 61.4768 286.64 61.1088 287.016 60.8448C287.4 60.5808 287.844 60.4488 288.348 60.4488C288.884 60.4488 289.356 60.5808 289.764 60.8448C290.172 61.1088 290.488 61.4768 290.712 61.9488C290.944 62.4208 291.06 62.9688 291.06 63.5928C291.06 64.2088 290.944 64.7568 290.712 65.2368C290.488 65.7088 290.172 66.0768 289.764 66.3408C289.356 66.6048 288.884 66.7368 288.348 66.7368ZM288.132 65.8608C288.508 65.8608 288.84 65.7648 289.128 65.5728C289.424 65.3808 289.656 65.1128 289.824 64.7688C290 64.4248 290.088 64.0328 290.088 63.5928C290.088 63.1528 290.004 62.7608 289.836 62.4168C289.676 62.0728 289.448 61.8048 289.152 61.6128C288.856 61.4208 288.52 61.3248 288.144 61.3248C287.792 61.3248 287.476 61.4208 287.196 61.6128C286.924 61.8048 286.708 62.0728 286.548 62.4168C286.396 62.7608 286.32 63.1528 286.32 63.5928C286.32 64.0328 286.396 64.4248 286.548 64.7688C286.708 65.1128 286.924 65.3808 287.196 65.5728C287.468 65.7648 287.78 65.8608 288.132 65.8608ZM295.019 66.7368C294.435 66.7368 293.919 66.6048 293.471 66.3408C293.023 66.0688 292.671 65.6968 292.415 65.2248C292.167 64.7528 292.043 64.2088 292.043 63.5928C292.043 62.9768 292.167 62.4328 292.415 61.9608C292.671 61.4888 293.019 61.1208 293.459 60.8568C293.907 60.5848 294.419 60.4488 294.995 60.4488C295.555 60.4488 296.039 60.5888 296.447 60.8688C296.855 61.1408 297.171 61.5248 297.395 62.0208C297.619 62.5168 297.731 63.1008 297.731 63.7728H292.775L293.015 63.5688C293.015 64.0488 293.099 64.4608 293.267 64.8048C293.443 65.1488 293.687 65.4128 293.999 65.5968C294.311 65.7728 294.667 65.8608 295.067 65.8608C295.491 65.8608 295.847 65.7608 296.135 65.5608C296.431 65.3608 296.659 65.0968 296.819 64.7688L297.647 65.1888C297.495 65.5008 297.291 65.7728 297.035 66.0048C296.787 66.2368 296.491 66.4168 296.147 66.5448C295.811 66.6728 295.435 66.7368 295.019 66.7368ZM293.075 63.1608L292.823 62.9688H296.963L296.711 63.1728C296.711 62.7888 296.635 62.4568 296.483 62.1768C296.331 61.8968 296.127 61.6808 295.871 61.5288C295.615 61.3768 295.319 61.3008 294.983 61.3008C294.655 61.3008 294.343 61.3768 294.047 61.5288C293.759 61.6808 293.523 61.8968 293.339 62.1768C293.163 62.4488 293.075 62.7768 293.075 63.1608ZM301.57 66.7368C300.986 66.7368 300.47 66.6048 300.022 66.3408C299.574 66.0688 299.222 65.6968 298.966 65.2248C298.718 64.7528 298.594 64.2088 298.594 63.5928C298.594 62.9768 298.718 62.4328 298.966 61.9608C299.222 61.4888 299.57 61.1208 300.01 60.8568C300.458 60.5848 300.97 60.4488 301.546 60.4488C302.106 60.4488 302.59 60.5888 302.998 60.8688C303.406 61.1408 303.722 61.5248 303.946 62.0208C304.17 62.5168 304.282 63.1008 304.282 63.7728H299.326L299.566 63.5688C299.566 64.0488 299.65 64.4608 299.818 64.8048C299.994 65.1488 300.238 65.4128 300.55 65.5968C300.862 65.7728 301.218 65.8608 301.618 65.8608C302.042 65.8608 302.398 65.7608 302.686 65.5608C302.982 65.3608 303.21 65.0968 303.37 64.7688L304.198 65.1888C304.046 65.5008 303.842 65.7728 303.586 66.0048C303.338 66.2368 303.042 66.4168 302.698 66.5448C302.362 66.6728 301.986 66.7368 301.57 66.7368ZM299.626 63.1608L299.374 62.9688H303.514L303.262 63.1728C303.262 62.7888 303.186 62.4568 303.034 62.1768C302.882 61.8968 302.678 61.6808 302.422 61.5288C302.166 61.3768 301.87 61.3008 301.534 61.3008C301.206 61.3008 300.894 61.3768 300.598 61.5288C300.31 61.6808 300.074 61.8968 299.89 62.1768C299.714 62.4488 299.626 62.7768 299.626 63.1608Z"/></g><g filter="url(#filter3_d_650_315)"><rect width="76" height="29" x="248" y="81.093" fill="#002B57" fill-opacity=".2" rx="14.5" shape-rendering="crispEdges"/><path fill="#fff" d="M269.808 99.5928V92.1168H267.132V91.1928H273.492V92.1168H270.816V99.5928H269.808ZM274.461 99.5928V91.1928H275.421V99.5928H274.461ZM278.685 99.5928V96.5208H279.645V99.5928H278.685ZM278.685 96.5208C278.685 95.9288 278.613 95.4768 278.469 95.1648C278.333 94.8528 278.145 94.6408 277.905 94.5288C277.665 94.4088 277.393 94.3488 277.089 94.3488C276.561 94.3488 276.149 94.5368 275.853 94.9128C275.565 95.2808 275.421 95.8048 275.421 96.4848H274.953C274.953 95.8528 275.045 95.3088 275.229 94.8528C275.421 94.3968 275.693 94.0488 276.045 93.8088C276.397 93.5688 276.821 93.4488 277.317 93.4488C277.781 93.4488 278.189 93.5448 278.541 93.7368C278.893 93.9208 279.165 94.2168 279.357 94.6248C279.557 95.0328 279.653 95.5688 279.645 96.2328V96.5208H278.685ZM281.681 96.3408C281.681 95.6928 281.805 95.1688 282.053 94.7688C282.301 94.3608 282.617 94.0608 283.001 93.8688C283.393 93.6688 283.805 93.5688 284.237 93.5688V94.4688C283.885 94.4688 283.545 94.5288 283.217 94.6488C282.897 94.7608 282.633 94.9488 282.425 95.2128C282.217 95.4768 282.113 95.8368 282.113 96.2928L281.681 96.3408ZM281.153 99.5928V93.5928H282.113V99.5928H281.153ZM287.835 99.7368C287.251 99.7368 286.735 99.6048 286.287 99.3408C285.839 99.0688 285.487 98.6968 285.231 98.2248C284.983 97.7528 284.859 97.2088 284.859 96.5928C284.859 95.9768 284.983 95.4328 285.231 94.9608C285.487 94.4888 285.835 94.1208 286.275 93.8568C286.723 93.5848 287.235 93.4488 287.811 93.4488C288.371 93.4488 288.855 93.5888 289.263 93.8688C289.671 94.1408 289.987 94.5248 290.211 95.0208C290.435 95.5168 290.547 96.1008 290.547 96.7728H285.591L285.831 96.5688C285.831 97.0488 285.915 97.4608 286.083 97.8048C286.259 98.1488 286.503 98.4128 286.815 98.5968C287.127 98.7728 287.483 98.8608 287.883 98.8608C288.307 98.8608 288.663 98.7608 288.951 98.5608C289.247 98.3608 289.475 98.0968 289.635 97.7688L290.463 98.1888C290.311 98.5008 290.107 98.7728 289.851 99.0048C289.603 99.2368 289.307 99.4168 288.963 99.5448C288.627 99.6728 288.251 99.7368 287.835 99.7368ZM285.891 96.1608L285.639 95.9688H289.779L289.527 96.1728C289.527 95.7888 289.451 95.4568 289.299 95.1768C289.147 94.8968 288.943 94.6808 288.687 94.5288C288.431 94.3768 288.135 94.3008 287.799 94.3008C287.471 94.3008 287.159 94.3768 286.863 94.5288C286.575 94.6808 286.339 94.8968 286.155 95.1768C285.979 95.4488 285.891 95.7768 285.891 96.1608ZM295.454 99.5928L295.406 98.6088V96.4248C295.406 95.9528 295.354 95.5648 295.25 95.2608C295.146 94.9488 294.982 94.7128 294.758 94.5528C294.534 94.3928 294.242 94.3128 293.882 94.3128C293.554 94.3128 293.27 94.3808 293.03 94.5168C292.798 94.6448 292.606 94.8528 292.454 95.1408L291.59 94.8048C291.742 94.5248 291.926 94.2848 292.142 94.0848C292.358 93.8768 292.61 93.7208 292.898 93.6168C293.186 93.5048 293.514 93.4488 293.882 93.4488C294.442 93.4488 294.902 93.5608 295.262 93.7848C295.63 94.0008 295.906 94.3248 296.09 94.7568C296.274 95.1808 296.362 95.7088 296.354 96.3408L296.342 99.5928H295.454ZM293.654 99.7368C292.95 99.7368 292.398 99.5768 291.998 99.2568C291.606 98.9288 291.41 98.4768 291.41 97.9008C291.41 97.2928 291.61 96.8288 292.01 96.5088C292.418 96.1808 292.986 96.0168 293.714 96.0168H295.43V96.8208H293.93C293.37 96.8208 292.97 96.9128 292.73 97.0968C292.498 97.2808 292.382 97.5448 292.382 97.8888C292.382 98.2008 292.498 98.4488 292.73 98.6328C292.962 98.8088 293.286 98.8968 293.702 98.8968C294.046 98.8968 294.346 98.8248 294.602 98.6808C294.858 98.5288 295.054 98.3168 295.19 98.0448C295.334 97.7648 295.406 97.4368 295.406 97.0608H295.814C295.814 97.8768 295.63 98.5288 295.262 99.0168C294.894 99.4968 294.358 99.7368 293.654 99.7368ZM302.315 99.5928L302.267 98.4768V91.1928H303.227V99.5928H302.315ZM300.239 99.7368C299.703 99.7368 299.231 99.6048 298.823 99.3408C298.415 99.0768 298.095 98.7088 297.863 98.2368C297.639 97.7568 297.527 97.2088 297.527 96.5928C297.527 95.9688 297.639 95.4208 297.863 94.9488C298.095 94.4768 298.415 94.1088 298.823 93.8448C299.231 93.5808 299.703 93.4488 300.239 93.4488C300.743 93.4488 301.183 93.5808 301.559 93.8448C301.943 94.1088 302.239 94.4768 302.447 94.9488C302.655 95.4208 302.759 95.9688 302.759 96.5928C302.759 97.2088 302.655 97.7568 302.447 98.2368C302.239 98.7088 301.943 99.0768 301.559 99.3408C301.183 99.6048 300.743 99.7368 300.239 99.7368ZM300.455 98.8608C300.807 98.8608 301.119 98.7648 301.391 98.5728C301.663 98.3808 301.875 98.1128 302.027 97.7688C302.187 97.4248 302.267 97.0328 302.267 96.5928C302.267 96.1528 302.187 95.7608 302.027 95.4168C301.875 95.0728 301.663 94.8048 301.391 94.6128C301.119 94.4208 300.803 94.3248 300.443 94.3248C300.067 94.3248 299.731 94.4208 299.435 94.6128C299.147 94.8048 298.919 95.0728 298.751 95.4168C298.583 95.7608 298.499 96.1528 298.499 96.5928C298.499 97.0328 298.583 97.4248 298.751 97.7688C298.919 98.1128 299.151 98.3808 299.447 98.5728C299.743 98.7648 300.079 98.8608 300.455 98.8608Z"/></g><g filter="url(#filter4_d_650_315)"><rect width="76" height="29" x="248" y="114.093" fill="#002B57" fill-opacity=".2" rx="14.5" shape-rendering="crispEdges"/><path fill="#fff" d="M260.616 132.593V124.193H263.268C263.844 124.193 264.336 124.281 264.744 124.457C265.152 124.633 265.468 124.893 265.692 125.237C265.916 125.573 266.028 125.985 266.028 126.473C266.028 126.881 265.936 127.241 265.752 127.553C265.568 127.857 265.308 128.105 264.972 128.297C265.388 128.497 265.708 128.765 265.932 129.101C266.164 129.437 266.28 129.837 266.28 130.301C266.28 130.789 266.172 131.205 265.956 131.549C265.74 131.885 265.432 132.145 265.032 132.329C264.64 132.505 264.168 132.593 263.616 132.593H260.616ZM261.624 131.681H263.568C264.096 131.681 264.508 131.557 264.804 131.309C265.108 131.053 265.26 130.705 265.26 130.265C265.26 129.793 265.088 129.425 264.744 129.161C264.4 128.889 263.92 128.753 263.304 128.753H261.624V131.681ZM261.624 127.877H263.52C263.984 127.877 264.348 127.753 264.612 127.505C264.876 127.257 265.008 126.913 265.008 126.473C265.008 126.017 264.852 125.669 264.54 125.429C264.236 125.181 263.804 125.057 263.244 125.057H261.624V127.877ZM267.676 132.593V124.193H268.636V132.593H267.676ZM274.429 132.593L274.369 131.489V126.593H275.329V132.593H274.429ZM270.157 129.665V126.593H271.117V129.665H270.157ZM271.117 129.665C271.117 130.257 271.185 130.709 271.321 131.021C271.457 131.333 271.645 131.549 271.885 131.669C272.133 131.781 272.409 131.837 272.713 131.837C273.233 131.837 273.637 131.649 273.925 131.273C274.221 130.897 274.369 130.373 274.369 129.701H274.837C274.837 130.333 274.745 130.877 274.561 131.333C274.377 131.789 274.109 132.137 273.757 132.377C273.413 132.617 272.989 132.737 272.485 132.737C272.021 132.737 271.613 132.645 271.261 132.461C270.909 132.269 270.637 131.969 270.445 131.561C270.253 131.145 270.157 130.609 270.157 129.953V129.665H271.117ZM279.632 132.737C279.048 132.737 278.532 132.605 278.084 132.341C277.636 132.069 277.284 131.697 277.028 131.225C276.78 130.753 276.656 130.209 276.656 129.593C276.656 128.977 276.78 128.433 277.028 127.961C277.284 127.489 277.632 127.121 278.072 126.857C278.52 126.585 279.032 126.449 279.608 126.449C280.168 126.449 280.652 126.589 281.06 126.869C281.468 127.141 281.784 127.525 282.008 128.021C282.232 128.517 282.344 129.101 282.344 129.773H277.388L277.628 129.569C277.628 130.049 277.712 130.461 277.88 130.805C278.056 131.149 278.3 131.413 278.612 131.597C278.924 131.773 279.28 131.861 279.68 131.861C280.104 131.861 280.46 131.761 280.748 131.561C281.044 131.361 281.272 131.097 281.432 130.769L282.26 131.189C282.108 131.501 281.904 131.773 281.648 132.005C281.4 132.237 281.104 132.417 280.76 132.545C280.424 132.673 280.048 132.737 279.632 132.737ZM277.688 129.161L277.436 128.969H281.576L281.324 129.173C281.324 128.789 281.248 128.457 281.096 128.177C280.944 127.897 280.74 127.681 280.484 127.529C280.228 127.377 279.932 127.301 279.596 127.301C279.268 127.301 278.956 127.377 278.66 127.529C278.372 127.681 278.136 127.897 277.952 128.177C277.776 128.449 277.688 128.777 277.688 129.161ZM285.811 132.737C285.227 132.737 284.775 132.585 284.455 132.281C284.135 131.977 283.975 131.549 283.975 130.997V124.721H284.935V130.901C284.935 131.205 285.015 131.441 285.175 131.609C285.343 131.769 285.575 131.849 285.871 131.849C285.967 131.849 286.059 131.837 286.147 131.813C286.243 131.781 286.367 131.709 286.519 131.597L286.891 132.377C286.683 132.513 286.495 132.605 286.327 132.653C286.159 132.709 285.987 132.737 285.811 132.737ZM282.931 127.445V126.593H286.735V127.445H282.931ZM290.707 132.737C290.123 132.737 289.603 132.605 289.147 132.341C288.699 132.069 288.347 131.697 288.091 131.225C287.835 130.753 287.707 130.209 287.707 129.593C287.707 128.977 287.831 128.433 288.079 127.961C288.335 127.489 288.687 127.121 289.135 126.857C289.591 126.585 290.107 126.449 290.683 126.449C291.275 126.449 291.795 126.585 292.243 126.857C292.699 127.121 293.051 127.489 293.299 127.961C293.555 128.433 293.683 128.977 293.683 129.593C293.683 130.209 293.555 130.753 293.299 131.225C293.051 131.697 292.703 132.069 292.255 132.341C291.807 132.605 291.291 132.737 290.707 132.737ZM290.707 131.849C291.107 131.849 291.455 131.753 291.751 131.561C292.047 131.369 292.279 131.105 292.447 130.769C292.623 130.433 292.711 130.041 292.711 129.593C292.711 129.145 292.623 128.753 292.447 128.417C292.279 128.081 292.043 127.817 291.739 127.625C291.435 127.433 291.083 127.337 290.683 127.337C290.291 127.337 289.943 127.433 289.639 127.625C289.343 127.817 289.107 128.081 288.931 128.417C288.763 128.753 288.679 129.145 288.679 129.593C288.679 130.033 288.763 130.425 288.931 130.769C289.107 131.105 289.347 131.369 289.651 131.561C289.963 131.753 290.315 131.849 290.707 131.849ZM297.668 132.737C297.084 132.737 296.564 132.605 296.108 132.341C295.66 132.069 295.308 131.697 295.052 131.225C294.796 130.753 294.668 130.209 294.668 129.593C294.668 128.977 294.792 128.433 295.04 127.961C295.296 127.489 295.648 127.121 296.096 126.857C296.552 126.585 297.068 126.449 297.644 126.449C298.236 126.449 298.756 126.585 299.204 126.857C299.66 127.121 300.012 127.489 300.26 127.961C300.516 128.433 300.644 128.977 300.644 129.593C300.644 130.209 300.516 130.753 300.26 131.225C300.012 131.697 299.664 132.069 299.216 132.341C298.768 132.605 298.252 132.737 297.668 132.737ZM297.668 131.849C298.068 131.849 298.416 131.753 298.712 131.561C299.008 131.369 299.24 131.105 299.408 130.769C299.584 130.433 299.672 130.041 299.672 129.593C299.672 129.145 299.584 128.753 299.408 128.417C299.24 128.081 299.004 127.817 298.7 127.625C298.396 127.433 298.044 127.337 297.644 127.337C297.252 127.337 296.904 127.433 296.6 127.625C296.304 127.817 296.068 128.081 295.892 128.417C295.724 128.753 295.64 129.145 295.64 129.593C295.64 130.033 295.724 130.425 295.892 130.769C296.068 131.105 296.308 131.369 296.612 131.561C296.924 131.753 297.276 131.849 297.668 131.849ZM304.233 132.737C303.649 132.737 303.197 132.585 302.877 132.281C302.557 131.977 302.397 131.549 302.397 130.997V124.721H303.357V130.901C303.357 131.205 303.437 131.441 303.597 131.609C303.765 131.769 303.997 131.849 304.293 131.849C304.389 131.849 304.481 131.837 304.569 131.813C304.665 131.781 304.789 131.709 304.941 131.597L305.313 132.377C305.105 132.513 304.917 132.605 304.749 132.653C304.581 132.709 304.409 132.737 304.233 132.737ZM301.353 127.445V126.593H305.157V127.445H301.353ZM306.512 132.593V124.193H307.472V132.593H306.512ZM310.736 132.593V129.521H311.696V132.593H310.736ZM310.736 129.521C310.736 128.929 310.664 128.477 310.52 128.165C310.384 127.853 310.196 127.641 309.956 127.529C309.716 127.409 309.444 127.349 309.14 127.349C308.612 127.349 308.2 127.537 307.904 127.913C307.616 128.281 307.472 128.805 307.472 129.485H307.004C307.004 128.853 307.096 128.309 307.28 127.853C307.472 127.397 307.744 127.049 308.096 126.809C308.448 126.569 308.872 126.449 309.368 126.449C309.832 126.449 310.24 126.545 310.592 126.737C310.944 126.921 311.216 127.217 311.408 127.625C311.608 128.033 311.704 128.569 311.696 129.233V129.521H310.736Z"/></g><path fill="#fff" d="M265.178 236.093L265.37 235.253C266.434 234.533 267.334 233.893 268.07 233.333C268.814 232.773 269.41 232.269 269.858 231.821C270.314 231.365 270.646 230.949 270.854 230.573C271.062 230.197 271.166 229.841 271.166 229.505C271.166 229.097 271.034 228.781 270.77 228.557C270.514 228.325 270.15 228.209 269.678 228.209C269.166 228.209 268.726 228.361 268.358 228.665C267.99 228.961 267.714 229.393 267.53 229.961H266.522C266.754 229.129 267.154 228.489 267.722 228.041C268.29 227.585 268.974 227.357 269.774 227.357C270.278 227.357 270.71 227.445 271.07 227.621C271.438 227.789 271.722 228.029 271.922 228.341C272.122 228.653 272.222 229.021 272.222 229.445C272.222 229.869 272.114 230.301 271.898 230.741C271.682 231.181 271.342 231.649 270.878 232.145C270.414 232.633 269.802 233.169 269.042 233.753C268.29 234.337 267.374 234.985 266.294 235.697L266.174 235.229H271.106L270.902 236.093H265.178ZM271.985 236.093L272.273 234.857H273.509L273.221 236.093H271.985ZM278.016 236.093L278.544 233.813L278.616 233.573L279.756 228.641H280.152L275.352 233.633L275.052 233.237H280.812L280.608 234.101H274.176L274.356 233.357L280.056 227.453H281.04L279.048 236.093H278.016ZM287.925 236.213C287.229 236.213 286.621 236.061 286.101 235.757C285.589 235.445 285.189 235.013 284.901 234.461C284.621 233.901 284.481 233.245 284.481 232.493C284.481 231.925 284.565 231.385 284.733 230.873C284.901 230.353 285.133 229.877 285.429 229.445C285.733 229.013 286.085 228.641 286.485 228.329C286.893 228.009 287.333 227.765 287.805 227.597C288.277 227.421 288.769 227.333 289.281 227.333C289.769 227.333 290.209 227.405 290.601 227.549C291.001 227.685 291.341 227.881 291.621 228.137C291.909 228.393 292.129 228.693 292.281 229.037C292.441 229.381 292.525 229.757 292.533 230.165H291.549C291.525 229.861 291.453 229.593 291.333 229.361C291.221 229.121 291.065 228.917 290.865 228.749C290.673 228.581 290.441 228.453 290.169 228.365C289.897 228.277 289.593 228.233 289.257 228.233C288.841 228.233 288.441 228.301 288.057 228.437C287.681 228.573 287.333 228.769 287.013 229.025C286.701 229.281 286.429 229.585 286.197 229.937C285.973 230.289 285.797 230.681 285.669 231.113C285.541 231.537 285.477 231.993 285.477 232.481C285.477 233.377 285.697 234.077 286.137 234.581C286.585 235.077 287.209 235.325 288.009 235.325C288.601 235.325 289.129 235.237 289.593 235.061C290.057 234.885 290.425 234.633 290.697 234.305L291.573 234.701C291.173 235.149 290.673 235.513 290.073 235.793C289.473 236.073 288.757 236.213 287.925 236.213ZM290.589 234.701L291.201 232.025L291.477 232.397H288.741L288.957 231.533H292.305L291.573 234.701H290.589ZM293.129 236.093L295.109 227.453H296.093L294.113 236.093H293.129ZM298.901 236.093L300.881 227.453H301.865L299.885 236.093H298.901ZM294.761 231.161H300.473L300.281 232.025H294.569L294.761 231.161ZM301.581 236.093L301.737 235.397L306.513 230.345L306.885 230.789H302.925L303.117 229.973H307.629L307.461 230.669L302.697 235.721L302.325 235.277H306.525L306.333 236.093H301.581Z"/><path fill="#fff" d="M35.1867 236.12C34.6747 236.12 34.2027 236.028 33.7707 235.844C33.3467 235.652 33.0067 235.38 32.7507 235.028C32.4947 234.676 32.3667 234.264 32.3667 233.792C32.3667 233.432 32.4387 233.1 32.5827 232.796C32.7347 232.492 32.9347 232.228 33.1827 232.004C33.4387 231.78 33.7267 231.604 34.0467 231.476C34.3667 231.348 34.7027 231.284 35.0547 231.284L35.1267 231.428C34.8227 231.428 34.5467 231.352 34.2987 231.2C34.0587 231.04 33.8667 230.828 33.7227 230.564C33.5867 230.3 33.5187 230.008 33.5187 229.688C33.5187 229.336 33.5867 229.012 33.7227 228.716C33.8667 228.42 34.0667 228.164 34.3227 227.948C34.5787 227.724 34.8787 227.552 35.2227 227.432C35.5667 227.304 35.9427 227.24 36.3507 227.24C36.8467 227.24 37.2907 227.332 37.6827 227.516C38.0827 227.7 38.3947 227.956 38.6187 228.284C38.8507 228.604 38.9667 228.98 38.9667 229.412C38.9667 229.732 38.8987 230.028 38.7627 230.3C38.6347 230.564 38.4587 230.796 38.2347 230.996C38.0107 231.196 37.7507 231.352 37.4547 231.464C37.1667 231.568 36.8587 231.62 36.5307 231.62L36.4947 231.476C36.8147 231.476 37.1067 231.564 37.3707 231.74C37.6347 231.916 37.8467 232.152 38.0067 232.448C38.1667 232.744 38.2467 233.076 38.2467 233.444C38.2467 233.82 38.1707 234.172 38.0187 234.5C37.8747 234.82 37.6627 235.104 37.3827 235.352C37.1107 235.592 36.7867 235.78 36.4107 235.916C36.0427 236.052 35.6347 236.12 35.1867 236.12ZM35.1867 235.256C35.4747 235.256 35.7387 235.212 35.9787 235.124C36.2187 235.028 36.4267 234.9 36.6027 234.74C36.7867 234.572 36.9267 234.376 37.0227 234.152C37.1267 233.928 37.1787 233.688 37.1787 233.432C37.1787 232.944 37.0067 232.568 36.6627 232.304C36.3267 232.032 35.9067 231.896 35.4027 231.896C35.0987 231.896 34.8267 231.944 34.5867 232.04C34.3467 232.128 34.1387 232.256 33.9627 232.424C33.7947 232.592 33.6627 232.784 33.5667 233C33.4787 233.216 33.4347 233.444 33.4347 233.684C33.4347 234.18 33.6067 234.568 33.9507 234.848C34.2947 235.12 34.7067 235.256 35.1867 235.256ZM36.1347 231.056C36.3987 231.056 36.6387 231.016 36.8547 230.936C37.0787 230.856 37.2667 230.744 37.4187 230.6C37.5787 230.456 37.6987 230.292 37.7787 230.108C37.8667 229.916 37.9107 229.708 37.9107 229.484C37.9107 229.052 37.7627 228.716 37.4667 228.476C37.1707 228.228 36.8027 228.104 36.3627 228.104C36.1067 228.104 35.8707 228.144 35.6547 228.224C35.4387 228.304 35.2467 228.42 35.0787 228.572C34.9187 228.716 34.7947 228.884 34.7067 229.076C34.6187 229.268 34.5747 229.48 34.5747 229.712C34.5747 230.128 34.7227 230.456 35.0187 230.696C35.3147 230.936 35.6867 231.056 36.1347 231.056ZM42.5749 236.132C42.0229 236.132 41.5429 236.016 41.1349 235.784C40.7349 235.552 40.4229 235.212 40.1989 234.764C39.9829 234.308 39.8749 233.752 39.8749 233.096C39.8749 232.744 39.9069 232.356 39.9709 231.932C40.0429 231.508 40.1509 231.08 40.2949 230.648C40.4389 230.208 40.6189 229.788 40.8349 229.388C41.0589 228.988 41.3189 228.628 41.6149 228.308C41.9189 227.988 42.2629 227.736 42.6469 227.552C43.0309 227.368 43.4589 227.276 43.9309 227.276C44.4589 227.276 44.9109 227.392 45.2869 227.624C45.6709 227.848 45.9549 228.14 46.1389 228.5C46.3309 228.852 46.4029 229.228 46.3549 229.628H45.3229C45.3549 229.42 45.3229 229.2 45.2269 228.968C45.1309 228.736 44.9709 228.54 44.7469 228.38C44.5229 228.22 44.2269 228.14 43.8589 228.14C43.4429 228.14 43.0549 228.26 42.6949 228.5C42.3429 228.74 42.0309 229.112 41.7589 229.616C41.4869 230.112 41.2669 230.744 41.0989 231.512L40.9309 232.28L40.7389 232.148C40.9469 231.66 41.2869 231.272 41.7589 230.984C42.2389 230.696 42.7549 230.552 43.3069 230.552C43.7389 230.552 44.1389 230.648 44.5069 230.84C44.8749 231.024 45.1709 231.296 45.3949 231.656C45.6189 232.016 45.7309 232.464 45.7309 233C45.7309 233.416 45.6589 233.812 45.5149 234.188C45.3709 234.564 45.1589 234.9 44.8789 235.196C44.6069 235.484 44.2749 235.712 43.8829 235.88C43.4989 236.048 43.0629 236.132 42.5749 236.132ZM42.6589 235.256C43.0189 235.256 43.3229 235.184 43.5709 235.04C43.8269 234.888 44.0349 234.696 44.1949 234.464C44.3549 234.232 44.4709 233.984 44.5429 233.72C44.6149 233.456 44.6509 233.212 44.6509 232.988C44.6509 232.62 44.5709 232.32 44.4109 232.088C44.2589 231.848 44.0549 231.672 43.7989 231.56C43.5509 231.448 43.2789 231.392 42.9829 231.392C42.6629 231.392 42.3749 231.448 42.1189 231.56C41.8629 231.672 41.6429 231.828 41.4589 232.028C41.2829 232.228 41.1469 232.456 41.0509 232.712C40.9549 232.96 40.9069 233.224 40.9069 233.504C40.9069 234.032 41.0709 234.456 41.3989 234.776C41.7269 235.096 42.1469 235.256 42.6589 235.256ZM49.4105 236.12C48.9465 236.12 48.5345 236.052 48.1745 235.916C47.8225 235.772 47.5265 235.584 47.2865 235.352C47.0545 235.112 46.8825 234.844 46.7705 234.548C46.6665 234.252 46.6345 233.948 46.6745 233.636H47.6825C47.6665 233.916 47.7225 234.18 47.8505 234.428C47.9785 234.676 48.1745 234.876 48.4385 235.028C48.7025 235.18 49.0305 235.256 49.4225 235.256C49.6785 235.256 49.9145 235.216 50.1305 235.136C50.3545 235.056 50.5505 234.944 50.7185 234.8C50.8945 234.648 51.0425 234.472 51.1625 234.272C51.2905 234.072 51.3865 233.856 51.4505 233.624C51.5145 233.384 51.5465 233.136 51.5465 232.88C51.5465 232.312 51.3945 231.884 51.0905 231.596C50.7865 231.308 50.3705 231.164 49.8425 231.164C49.5225 231.164 49.2225 231.224 48.9425 231.344C48.6705 231.456 48.4465 231.64 48.2705 231.896H47.3945L48.8225 227.36H53.3945L53.2025 228.224H49.2185L49.6385 227.864L48.5585 231.344L48.4265 231.068C48.6105 230.852 48.8505 230.684 49.1465 230.564C49.4505 230.436 49.7905 230.372 50.1665 230.372C50.6545 230.372 51.0825 230.476 51.4505 230.684C51.8185 230.892 52.1025 231.188 52.3025 231.572C52.5105 231.948 52.6145 232.396 52.6145 232.916C52.6145 233.284 52.5625 233.628 52.4585 233.948C52.3545 234.268 52.2065 234.564 52.0145 234.836C51.8305 235.1 51.6065 235.328 51.3425 235.52C51.0785 235.712 50.7825 235.86 50.4545 235.964C50.1345 236.068 49.7865 236.12 49.4105 236.12ZM52.9052 236L53.1932 234.764H54.4292L54.1412 236H52.9052ZM55.2974 236L55.4894 235.16C56.5534 234.44 57.4534 233.8 58.1894 233.24C58.9334 232.68 59.5294 232.176 59.9774 231.728C60.4334 231.272 60.7654 230.856 60.9734 230.48C61.1814 230.104 61.2854 229.748 61.2854 229.412C61.2854 229.004 61.1534 228.688 60.8894 228.464C60.6334 228.232 60.2694 228.116 59.7974 228.116C59.2854 228.116 58.8454 228.268 58.4774 228.572C58.1094 228.868 57.8334 229.3 57.6494 229.868H56.6414C56.8734 229.036 57.2734 228.396 57.8414 227.948C58.4094 227.492 59.0934 227.264 59.8934 227.264C60.3974 227.264 60.8294 227.352 61.1894 227.528C61.5574 227.696 61.8414 227.936 62.0414 228.248C62.2414 228.56 62.3414 228.928 62.3414 229.352C62.3414 229.776 62.2334 230.208 62.0174 230.648C61.8014 231.088 61.4614 231.556 60.9974 232.052C60.5334 232.54 59.9214 233.076 59.1614 233.66C58.4094 234.244 57.4934 234.892 56.4134 235.604L56.2934 235.136H61.2254L61.0214 236H55.2974ZM65.3668 233.192L65.5828 232.28H69.7348L69.5188 233.192H65.3668ZM75.9275 236.132C75.3915 236.132 74.9315 236.016 74.5475 235.784C74.1635 235.552 73.8755 235.236 73.6835 234.836C73.4915 234.436 73.4195 233.988 73.4675 233.492H74.4995C74.4755 233.804 74.5075 234.096 74.5955 234.368C74.6915 234.632 74.8515 234.848 75.0755 235.016C75.3075 235.184 75.6195 235.268 76.0115 235.268C76.4675 235.268 76.8675 235.14 77.2115 234.884C77.5635 234.628 77.8675 234.24 78.1235 233.72C78.3795 233.2 78.5875 232.552 78.7475 231.776L78.9035 231.008L79.0955 231.14C78.9595 231.46 78.7595 231.74 78.4955 231.98C78.2315 232.22 77.9315 232.408 77.5955 232.544C77.2595 232.672 76.9115 232.736 76.5515 232.736C76.1275 232.736 75.7315 232.644 75.3635 232.46C75.0035 232.276 74.7115 232.008 74.4875 231.656C74.2635 231.296 74.1515 230.86 74.1515 230.348C74.1515 229.948 74.2235 229.564 74.3675 229.196C74.5115 228.828 74.7195 228.5 74.9915 228.212C75.2635 227.924 75.5915 227.696 75.9755 227.528C76.3675 227.36 76.8035 227.276 77.2835 227.276C77.8355 227.276 78.3115 227.392 78.7115 227.624C79.1115 227.856 79.4195 228.196 79.6355 228.644C79.8515 229.084 79.9595 229.632 79.9595 230.288C79.9595 230.624 79.9275 231 79.8635 231.416C79.7995 231.832 79.6995 232.26 79.5635 232.7C79.4275 233.14 79.2515 233.564 79.0355 233.972C78.8195 234.38 78.5635 234.748 78.2675 235.076C77.9715 235.396 77.6275 235.652 77.2355 235.844C76.8515 236.036 76.4155 236.132 75.9275 236.132ZM76.8755 231.896C77.1875 231.896 77.4675 231.84 77.7155 231.728C77.9715 231.616 78.1875 231.464 78.3635 231.272C78.5475 231.072 78.6875 230.852 78.7835 230.612C78.8795 230.364 78.9275 230.108 78.9275 229.844C78.9275 229.348 78.7635 228.944 78.4355 228.632C78.1155 228.312 77.7035 228.152 77.1995 228.152C76.8475 228.152 76.5435 228.228 76.2875 228.38C76.0395 228.524 75.8355 228.712 75.6755 228.944C75.5235 229.168 75.4115 229.408 75.3395 229.664C75.2675 229.912 75.2315 230.144 75.2315 230.36C75.2315 230.704 75.3075 230.992 75.4595 231.224C75.6195 231.448 75.8235 231.616 76.0715 231.728C76.3275 231.84 76.5955 231.896 76.8755 231.896ZM79.9654 236L80.1574 235.16C81.2214 234.44 82.1214 233.8 82.8574 233.24C83.6014 232.68 84.1974 232.176 84.6454 231.728C85.1014 231.272 85.4334 230.856 85.6414 230.48C85.8494 230.104 85.9534 229.748 85.9534 229.412C85.9534 229.004 85.8214 228.688 85.5574 228.464C85.3014 228.232 84.9374 228.116 84.4654 228.116C83.9534 228.116 83.5134 228.268 83.1454 228.572C82.7774 228.868 82.5014 229.3 82.3174 229.868H81.3094C81.5414 229.036 81.9414 228.396 82.5094 227.948C83.0774 227.492 83.7614 227.264 84.5614 227.264C85.0654 227.264 85.4974 227.352 85.8574 227.528C86.2254 227.696 86.5094 227.936 86.7094 228.248C86.9094 228.56 87.0094 228.928 87.0094 229.352C87.0094 229.776 86.9014 230.208 86.6854 230.648C86.4694 231.088 86.1294 231.556 85.6654 232.052C85.2014 232.54 84.5894 233.076 83.8294 233.66C83.0774 234.244 82.1614 234.892 81.0814 235.604L80.9614 235.136H85.8934L85.6894 236H79.9654ZM90.3405 236.132C89.7885 236.132 89.3085 236.016 88.9005 235.784C88.5005 235.552 88.1885 235.212 87.9645 234.764C87.7485 234.308 87.6405 233.752 87.6405 233.096C87.6405 232.744 87.6725 232.356 87.7365 231.932C87.8085 231.508 87.9165 231.08 88.0605 230.648C88.2045 230.208 88.3845 229.788 88.6005 229.388C88.8245 228.988 89.0845 228.628 89.3805 228.308C89.6845 227.988 90.0285 227.736 90.4125 227.552C90.7965 227.368 91.2245 227.276 91.6965 227.276C92.2245 227.276 92.6765 227.392 93.0525 227.624C93.4365 227.848 93.7205 228.14 93.9045 228.5C94.0965 228.852 94.1685 229.228 94.1205 229.628H93.0885C93.1205 229.42 93.0885 229.2 92.9925 228.968C92.8965 228.736 92.7365 228.54 92.5125 228.38C92.2885 228.22 91.9925 228.14 91.6245 228.14C91.2085 228.14 90.8205 228.26 90.4605 228.5C90.1085 228.74 89.7965 229.112 89.5245 229.616C89.2525 230.112 89.0325 230.744 88.8645 231.512L88.6965 232.28L88.5045 232.148C88.7125 231.66 89.0525 231.272 89.5245 230.984C90.0045 230.696 90.5205 230.552 91.0725 230.552C91.5045 230.552 91.9045 230.648 92.2725 230.84C92.6405 231.024 92.9365 231.296 93.1605 231.656C93.3845 232.016 93.4965 232.464 93.4965 233C93.4965 233.416 93.4245 233.812 93.2805 234.188C93.1365 234.564 92.9245 234.9 92.6445 235.196C92.3725 235.484 92.0405 235.712 91.6485 235.88C91.2645 236.048 90.8285 236.132 90.3405 236.132ZM90.4245 235.256C90.7845 235.256 91.0885 235.184 91.3365 235.04C91.5925 234.888 91.8005 234.696 91.9605 234.464C92.1205 234.232 92.2365 233.984 92.3085 233.72C92.3805 233.456 92.4165 233.212 92.4165 232.988C92.4165 232.62 92.3365 232.32 92.1765 232.088C92.0245 231.848 91.8205 231.672 91.5645 231.56C91.3165 231.448 91.0445 231.392 90.7485 231.392C90.4285 231.392 90.1405 231.448 89.8845 231.56C89.6285 231.672 89.4085 231.828 89.2245 232.028C89.0485 232.228 88.9125 232.456 88.8165 232.712C88.7205 232.96 88.6725 233.224 88.6725 233.504C88.6725 234.032 88.8365 234.456 89.1645 234.776C89.4925 235.096 89.9125 235.256 90.4245 235.256ZM93.7802 236L94.0682 234.764H95.3042L95.0162 236H93.7802ZM99.2405 236.132C98.7845 236.132 98.3685 236.064 97.9925 235.928C97.6245 235.792 97.3125 235.604 97.0565 235.364C96.8085 235.116 96.6285 234.824 96.5165 234.488C96.4045 234.152 96.3765 233.788 96.4325 233.396H97.4165C97.3925 233.676 97.4165 233.932 97.4885 234.164C97.5685 234.388 97.6885 234.584 97.8485 234.752C98.0165 234.92 98.2205 235.048 98.4605 235.136C98.7005 235.224 98.9685 235.268 99.2645 235.268C99.5525 235.268 99.8125 235.224 100.045 235.136C100.285 235.04 100.493 234.908 100.669 234.74C100.845 234.572 100.977 234.376 101.065 234.152C101.161 233.92 101.209 233.664 101.209 233.384C101.209 232.944 101.085 232.588 100.837 232.316C100.589 232.036 100.265 231.896 99.8645 231.896H98.8085L98.9885 231.056H100.021C100.405 231.056 100.737 230.988 101.017 230.852C101.305 230.716 101.529 230.528 101.689 230.288C101.849 230.048 101.929 229.768 101.929 229.448C101.929 229.032 101.793 228.708 101.521 228.476C101.249 228.244 100.865 228.128 100.369 228.128C99.8725 228.128 99.4565 228.264 99.1205 228.536C98.7925 228.808 98.5525 229.212 98.4005 229.748H97.3685C97.5765 228.956 97.9405 228.344 98.4605 227.912C98.9885 227.472 99.6285 227.252 100.381 227.252C100.901 227.252 101.357 227.34 101.749 227.516C102.141 227.692 102.445 227.936 102.661 228.248C102.885 228.56 102.997 228.924 102.997 229.34C102.997 229.684 102.925 230.004 102.781 230.3C102.637 230.596 102.441 230.852 102.193 231.068C101.945 231.276 101.665 231.428 101.353 231.524C101.049 231.62 100.729 231.64 100.393 231.584L100.381 231.344C100.965 231.424 101.421 231.648 101.749 232.016C102.085 232.376 102.253 232.848 102.253 233.432C102.253 233.824 102.177 234.184 102.025 234.512C101.881 234.84 101.673 235.128 101.401 235.376C101.137 235.616 100.821 235.804 100.453 235.94C100.085 236.068 99.6805 236.132 99.2405 236.132ZM105.678 236L107.67 227.36H109.134L110.334 235.688H109.854L114.87 227.36H116.478L114.486 236H113.514L115.386 227.876H115.518L110.634 236H109.458L108.306 227.948H108.438L106.578 236H105.678ZM116.565 236L118.545 227.36H119.529L117.549 236H116.565ZM122.337 236L124.317 227.36H125.301L123.321 236H122.337ZM118.197 231.068H123.909L123.717 231.932H118.005L118.197 231.068ZM125.016 236L125.172 235.304L129.948 230.252L130.32 230.696H126.36L126.552 229.88H131.064L130.896 230.576L126.132 235.628L125.76 235.184H129.96L129.768 236H125.016Z"/></g><defs><filter id="filter0_d_650_315" width="39.4" height="39.4" x="62.3" y="133.393" color-interpolation-filters="sRGB" filterUnits="userSpaceOnUse"><feFlood flood-opacity="0" result="BackgroundImageFix"/><feColorMatrix in="SourceAlpha" result="hardAlpha" type="matrix" values="0 0 0 0 0 0 0 0 0 0 0 0 0 0 0 0 0 0 127 0"/><feMorphology in="SourceAlpha" operator="dilate" radius="2" result="effect1_dropShadow_650_315"/><feOffset/><feGaussianBlur stdDeviation="7.35"/><feComposite in2="hardAlpha" operator="out"/><feColorMatrix type="matrix" values="0 0 0 0 0 0 0 0 0 0.372549 0 0 0 0 0.745098 0 0 0 1 0"/><feBlend in2="BackgroundImageFix" mode="lighten" result="effect1_dropShadow_650_315"/><feBlend in="SourceGraphic" in2="effect1_dropShadow_650_315" mode="normal" result="shape"/></filter><filter id="filter1_d_650_315" width="109.4" height="62.4" x="231.3" y="-1.607" color-interpolation-filters="sRGB" filterUnits="userSpaceOnUse"><feFlood flood-opacity="0" result="BackgroundImageFix"/><feColorMatrix in="SourceAlpha" result="hardAlpha" type="matrix" values="0 0 0 0 0 0 0 0 0 0 0 0 0 0 0 0 0 0 127 0"/><feMorphology in="SourceAlpha" operator="dilate" radius="2" result="effect1_dropShadow_650_315"/><feOffset/><feGaussianBlur stdDeviation="7.35"/><feComposite in2="hardAlpha" operator="out"/><feColorMatrix type="matrix" values="0 0 0 0 0 0 0 0 0 0.372549 0 0 0 0 0.745098 0 0 0 1 0"/><feBlend in2="BackgroundImageFix" mode="lighten" result="effect1_dropShadow_650_315"/><feBlend in="SourceGraphic" in2="effect1_dropShadow_650_315" mode="normal" result="shape"/></filter><filter id="filter2_d_650_315" width="109.4" height="62.4" x="231.3" y="31.393" color-interpolation-filters="sRGB" filterUnits="userSpaceOnUse"><feFlood flood-opacity="0" result="BackgroundImageFix"/><feColorMatrix in="SourceAlpha" result="hardAlpha" type="matrix" values="0 0 0 0 0 0 0 0 0 0 0 0 0 0 0 0 0 0 127 0"/><feMorphology in="SourceAlpha" operator="dilate" radius="2" result="effect1_dropShadow_650_315"/><feOffset/><feGaussianBlur stdDeviation="7.35"/><feComposite in2="hardAlpha" operator="out"/><feColorMatrix type="matrix" values="0 0 0 0 0 0 0 0 0 0.372549 0 0 0 0 0.745098 0 0 0 1 0"/><feBlend in2="BackgroundImageFix" mode="lighten" result="effect1_dropShadow_650_315"/><feBlend in="SourceGraphic" in2="effect1_dropShadow_650_315" mode="normal" result="shape"/></filter><filter id="filter3_d_650_315" width="109.4" height="62.4" x="231.3" y="64.393" color-interpolation-filters="sRGB" filterUnits="userSpaceOnUse"><feFlood flood-opacity="0" result="BackgroundImageFix"/><feColorMatrix in="SourceAlpha" result="hardAlpha" type="matrix" values="0 0 0 0 0 0 0 0 0 0 0 0 0 0 0 0 0 0 127 0"/><feMorphology in="SourceAlpha" operator="dilate" radius="2" result="effect1_dropShadow_650_315"/><feOffset/><feGaussianBlur stdDeviation="7.35"/><feComposite in2="hardAlpha" operator="out"/><feColorMatrix type="matrix" values="0 0 0 0 0 0 0 0 0 0.372549 0 0 0 0 0.745098 0 0 0 1 0"/><feBlend in2="BackgroundImageFix" mode="lighten" result="effect1_dropShadow_650_315"/><feBlend in="SourceGraphic" in2="effect1_dropShadow_650_315" mode="normal" result="shape"/></filter><filter id="filter4_d_650_315" width="109.4" height="62.4" x="231.3" y="97.393" color-interpolation-filters="sRGB" filterUnits="userSpaceOnUse"><feFlood flood-opacity="0" result="BackgroundImageFix"/><feColorMatrix in="SourceAlpha" result="hardAlpha" type="matrix" values="0 0 0 0 0 0 0 0 0 0 0 0 0 0 0 0 0 0 127 0"/><feMorphology in="SourceAlpha" operator="dilate" radius="2" result="effect1_dropShadow_650_315"/><feOffset/><feGaussianBlur stdDeviation="7.35"/><feComposite in2="hardAlpha" operator="out"/><feColorMatrix type="matrix" values="0 0 0 0 0 0 0 0 0 0.372549 0 0 0 0 0.745098 0 0 0 1 0"/><feBlend in2="BackgroundImageFix" mode="lighten" result="effect1_dropShadow_650_315"/><feBlend in="SourceGraphic" in2="effect1_dropShadow_650_315" mode="normal" result="shape"/></filter><linearGradient id="paint0_linear_650_315" x1="176.491" x2="176.491" y1="236.093" y2="182.593" gradientUnits="userSpaceOnUse"><stop stop-color="#005FBE" stop-opacity="0"/><stop offset="1" stop-color="#005FBE"/></linearGradient><linearGradient id="paint1_linear_650_315" x1="82.5" x2="82.5" y1="60.285" y2="208.665" gradientUnits="userSpaceOnUse"><stop stop-color="#00AEF8"/><stop offset="1" stop-color="#006692" stop-opacity="0"/></linearGradient><linearGradient id="paint2_linear_650_315" x1="17.5" x2="17.5" y1="6" y2="252.093" gradientUnits="userSpaceOnUse"><stop stop-color="#006692" stop-opacity="0"/><stop offset=".5" stop-color="#00AEF8"/><stop offset="1" stop-color="#006692" stop-opacity="0"/></linearGradient><linearGradient id="paint3_linear_650_315" x1="24.858" x2="24.858" y1="208.665" y2="195.998" gradientUnits="userSpaceOnUse"><stop stop-color="#00AEF8"/><stop offset="1" stop-color="#006692" stop-opacity="0"/></linearGradient><linearGradient id="paint4_linear_650_315" x1="32.217" x2="32.217" y1="208.665" y2="195.998" gradientUnits="userSpaceOnUse"><stop stop-color="#00AEF8"/><stop offset="1" stop-color="#006692" stop-opacity="0"/></linearGradient><linearGradient id="paint5_linear_650_315" x1="38.962" x2="38.962" y1="208.665" y2="195.998" gradientUnits="userSpaceOnUse"><stop stop-color="#00AEF8"/><stop offset="1" stop-color="#006692" stop-opacity="0"/></linearGradient><linearGradient id="paint6_linear_650_315" x1="46.321" x2="46.321" y1="208.665" y2="195.998" gradientUnits="userSpaceOnUse"><stop stop-color="#00AEF8"/><stop offset="1" stop-color="#006692" stop-opacity="0"/></linearGradient><linearGradient id="paint7_linear_650_315" x1="53.679" x2="53.679" y1="208.665" y2="195.998" gradientUnits="userSpaceOnUse"><stop stop-color="#00AEF8"/><stop offset="1" stop-color="#006692" stop-opacity="0"/></linearGradient><linearGradient id="paint8_linear_650_315" x1="61.038" x2="61.038" y1="208.665" y2="195.998" gradientUnits="userSpaceOnUse"><stop stop-color="#00AEF8"/><stop offset="1" stop-color="#006692" stop-opacity="0"/></linearGradient><linearGradient id="paint9_linear_650_315" x1="67.783" x2="67.783" y1="208.665" y2="195.998" gradientUnits="userSpaceOnUse"><stop stop-color="#00AEF8"/><stop offset="1" stop-color="#006692" stop-opacity="0"/></linearGradient><linearGradient id="paint10_linear_650_315" x1="75.142" x2="75.142" y1="208.665" y2="195.998" gradientUnits="userSpaceOnUse"><stop stop-color="#00AEF8"/><stop offset="1" stop-color="#006692" stop-opacity="0"/></linearGradient><linearGradient id="paint11_linear_650_315" x1="89.858" x2="89.858" y1="208.665" y2="195.998" gradientUnits="userSpaceOnUse"><stop stop-color="#00AEF8"/><stop offset="1" stop-color="#006692" stop-opacity="0"/></linearGradient><linearGradient id="paint12_linear_650_315" x1="82.5" x2="82.5" y1="208.665" y2="195.998" gradientUnits="userSpaceOnUse"><stop stop-color="#00AEF8"/><stop offset="1" stop-color="#006692" stop-opacity="0"/></linearGradient><linearGradient id="paint13_linear_650_315" x1="97.217" x2="97.217" y1="208.665" y2="195.998" gradientUnits="userSpaceOnUse"><stop stop-color="#00AEF8"/><stop offset="1" stop-color="#006692" stop-opacity="0"/></linearGradient><linearGradient id="paint14_linear_650_315" x1="103.962" x2="103.962" y1="208.665" y2="195.998" gradientUnits="userSpaceOnUse"><stop stop-color="#00AEF8"/><stop offset="1" stop-color="#006692" stop-opacity="0"/></linearGradient><linearGradient id="paint15_linear_650_315" x1="111.321" x2="111.321" y1="208.665" y2="195.998" gradientUnits="userSpaceOnUse"><stop stop-color="#00AEF8"/><stop offset="1" stop-color="#006692" stop-opacity="0"/></linearGradient><linearGradient id="paint16_linear_650_315" x1="118.679" x2="118.679" y1="208.665" y2="195.998" gradientUnits="userSpaceOnUse"><stop stop-color="#00AEF8"/><stop offset="1" stop-color="#006692" stop-opacity="0"/></linearGradient><linearGradient id="paint17_linear_650_315" x1="126.038" x2="126.038" y1="208.665" y2="195.998" gradientUnits="userSpaceOnUse"><stop stop-color="#00AEF8"/><stop offset="1" stop-color="#006692" stop-opacity="0"/></linearGradient><linearGradient id="paint18_linear_650_315" x1="132.783" x2="132.783" y1="208.665" y2="195.998" gradientUnits="userSpaceOnUse"><stop stop-color="#00AEF8"/><stop offset="1" stop-color="#006692" stop-opacity="0"/></linearGradient><linearGradient id="paint19_linear_650_315" x1="140.142" x2="140.142" y1="208.665" y2="195.998" gradientUnits="userSpaceOnUse"><stop stop-color="#00AEF8"/><stop offset="1" stop-color="#006692" stop-opacity="0"/></linearGradient><linearGradient id="paint20_linear_650_315" x1="147.5" x2="147.5" y1="6" y2="252.093" gradientUnits="userSpaceOnUse"><stop stop-color="#006692" stop-opacity="0"/><stop offset=".5" stop-color="#00AEF8"/><stop offset="1" stop-color="#006692" stop-opacity="0"/></linearGradient><linearGradient id="paint21_linear_650_315" x1="240.5" x2="240.5" y1="6" y2="252.093" gradientUnits="userSpaceOnUse"><stop stop-color="#006692" stop-opacity="0"/><stop offset=".5" stop-color="#00AEF8"/><stop offset="1" stop-color="#006692" stop-opacity="0"/></linearGradient><linearGradient id="paint22_linear_650_315" x1="245.764" x2="245.764" y1="208.665" y2="195.998" gradientUnits="userSpaceOnUse"><stop stop-color="#00AEF8"/><stop offset="1" stop-color="#006692" stop-opacity="0"/></linearGradient><linearGradient id="paint23_linear_650_315" x1="251.028" x2="251.028" y1="208.665" y2="195.998" gradientUnits="userSpaceOnUse"><stop stop-color="#00AEF8"/><stop offset="1" stop-color="#006692" stop-opacity="0"/></linearGradient><linearGradient id="paint24_linear_650_315" x1="255.854" x2="255.854" y1="208.665" y2="195.998" gradientUnits="userSpaceOnUse"><stop stop-color="#00AEF8"/><stop offset="1" stop-color="#006692" stop-opacity="0"/></linearGradient><linearGradient id="paint25_linear_650_315" x1="261.118" x2="261.118" y1="208.665" y2="195.998" gradientUnits="userSpaceOnUse"><stop stop-color="#00AEF8"/><stop offset="1" stop-color="#006692" stop-opacity="0"/></linearGradient><linearGradient id="paint26_linear_650_315" x1="266.382" x2="266.382" y1="208.665" y2="195.998" gradientUnits="userSpaceOnUse"><stop stop-color="#00AEF8"/><stop offset="1" stop-color="#006692" stop-opacity="0"/></linearGradient><linearGradient id="paint27_linear_650_315" x1="271.646" x2="271.646" y1="208.665" y2="195.998" gradientUnits="userSpaceOnUse"><stop stop-color="#00AEF8"/><stop offset="1" stop-color="#006692" stop-opacity="0"/></linearGradient><linearGradient id="paint28_linear_650_315" x1="276.472" x2="276.472" y1="208.665" y2="195.998" gradientUnits="userSpaceOnUse"><stop stop-color="#00AEF8"/><stop offset="1" stop-color="#006692" stop-opacity="0"/></linearGradient><linearGradient id="paint29_linear_650_315" x1="281.736" x2="281.736" y1="208.665" y2="195.998" gradientUnits="userSpaceOnUse"><stop stop-color="#00AEF8"/><stop offset="1" stop-color="#006692" stop-opacity="0"/></linearGradient><linearGradient id="paint30_linear_650_315" x1="292.264" x2="292.264" y1="208.665" y2="195.998" gradientUnits="userSpaceOnUse"><stop stop-color="#00AEF8"/><stop offset="1" stop-color="#006692" stop-opacity="0"/></linearGradient><linearGradient id="paint31_linear_650_315" x1="287.334" x2="287.334" y1="208.665" y2="195.998" gradientUnits="userSpaceOnUse"><stop stop-color="#00AEF8"/><stop offset="1" stop-color="#006692" stop-opacity="0"/></linearGradient><linearGradient id="paint32_linear_650_315" x1="297.528" x2="297.528" y1="208.665" y2="195.998" gradientUnits="userSpaceOnUse"><stop stop-color="#00AEF8"/><stop offset="1" stop-color="#006692" stop-opacity="0"/></linearGradient><linearGradient id="paint33_linear_650_315" x1="302.354" x2="302.354" y1="208.665" y2="195.998" gradientUnits="userSpaceOnUse"><stop stop-color="#00AEF8"/><stop offset="1" stop-color="#006692" stop-opacity="0"/></linearGradient><linearGradient id="paint34_linear_650_315" x1="307.618" x2="307.618" y1="208.665" y2="195.998" gradientUnits="userSpaceOnUse"><stop stop-color="#00AEF8"/><stop offset="1" stop-color="#006692" stop-opacity="0"/></linearGradient><linearGradient id="paint35_linear_650_315" x1="312.882" x2="312.882" y1="208.665" y2="195.998" gradientUnits="userSpaceOnUse"><stop stop-color="#00AEF8"/><stop offset="1" stop-color="#006692" stop-opacity="0"/></linearGradient><linearGradient id="paint36_linear_650_315" x1="318.146" x2="318.146" y1="208.665" y2="195.998" gradientUnits="userSpaceOnUse"><stop stop-color="#00AEF8"/><stop offset="1" stop-color="#006692" stop-opacity="0"/></linearGradient><linearGradient id="paint37_linear_650_315" x1="322.972" x2="322.972" y1="208.665" y2="195.998" gradientUnits="userSpaceOnUse"><stop stop-color="#00AEF8"/><stop offset="1" stop-color="#006692" stop-opacity="0"/></linearGradient><linearGradient id="paint38_linear_650_315" x1="328.236" x2="328.236" y1="208.665" y2="195.998" gradientUnits="userSpaceOnUse"><stop stop-color="#00AEF8"/><stop offset="1" stop-color="#006692" stop-opacity="0"/></linearGradient><linearGradient id="paint39_linear_650_315" x1="333.5" x2="333.5" y1="6" y2="252.093" gradientUnits="userSpaceOnUse"><stop stop-color="#006692" stop-opacity="0"/><stop offset=".5" stop-color="#00AEF8"/><stop offset="1" stop-color="#006692" stop-opacity="0"/></linearGradient><clipPath id="clip0_650_315"><rect width="353" height="252" fill="#fff" rx="8"/></clipPath><clipPath id="clip1_650_315"><rect width="68" height="30" fill="#fff" transform="translate(49 56.0928)"/></clipPath></defs></svg>