<svg xmlns="http://www.w3.org/2000/svg" width="349" height="436" fill="none" viewBox="0 0 349 436"><path fill="#00264C" d="M141.219 312.366C145.893 319.458 153.93 324.14 163.063 324.14C163.649 324.14 164.231 324.181 164.808 324.143H183V341.714C183 353.182 173.7 362.478 162.228 362.478H69.7725C58.3004 362.478 49.0004 353.182 49 341.714V324.143H67.1855C67.7618 324.181 68.3448 324.14 68.9307 324.14C78.0633 324.14 86.1011 319.458 90.7773 312.366H141.219ZM133.459 114.61C135.37 114.61 136.921 116.16 136.922 118.071V296.262H136.979C136.947 296.742 136.929 297.225 136.922 297.711V298.269C136.969 302.949 138.245 307.334 140.443 311.117H91.5527C93.7942 307.262 95.079 302.782 95.0791 298.002C95.0791 297.418 95.0525 296.837 95.0146 296.262H95.082V118.071C95.0824 116.16 96.6328 114.611 98.5439 114.61H133.459ZM133.239 51.4448C135.151 51.4451 136.702 52.9946 136.702 54.9058V108.972C136.702 110.883 135.151 112.433 133.239 112.433H98.7637C96.8518 112.433 95.302 110.883 95.3018 108.972V54.9058C95.3018 52.9945 96.8517 51.445 98.7637 51.4448H133.239ZM101.837 105.897H130.166V57.978H101.837V105.897Z"/><path fill="#fff" d="M179.643 339.346H52V341.843H179.643V339.346Z"/><path fill="#fff" d="M131 335.229H101V340.229H131V335.229Z"/><path fill="#fff" d="M127 327.229H105V337.229H127V327.229Z"/><path fill="#fff" d="M123 322.229H109V328.229H123V322.229Z"/><path fill="#fff" d="M120 322.186H112V266.186H120V322.186ZM120 259.186H115V261.186H120V264.186H112V256.186H120V259.186ZM120 249.186H115V251.186H120V254.186H112V246.186H120V249.186ZM120 239.186H115V241.186H120V244.186H112V236.186H120V239.186ZM120 229.186H115V231.186H120V234.186H112V226.186H120V229.186ZM120 224.186H112V152.186H120V224.186Z"/><path stroke="#005FBE" stroke-dasharray="3 3" stroke-linecap="round" stroke-width=".4" d="M116 395.2L116 0.200196"/><g filter="url(#filter0_d_456_605)"><circle cx="2" cy="2" r="2" fill="#fff" transform="matrix(1 0 0 -1 114 399.186)"/></g><path fill="#fff" d="M79.4473 427.33C78.6553 427.33 77.9513 427.146 77.3353 426.778C76.7273 426.402 76.2473 425.89 75.8953 425.242C75.5513 424.586 75.3793 423.834 75.3793 422.986C75.3793 422.138 75.5513 421.39 75.8953 420.742C76.2393 420.086 76.7153 419.574 77.3233 419.206C77.9313 418.83 78.6273 418.642 79.4113 418.642C79.8833 418.642 80.3433 418.73 80.7913 418.906C81.2473 419.074 81.6593 419.314 82.0273 419.626C82.3953 419.93 82.6793 420.282 82.8793 420.682L82.2433 421.078C82.0753 420.734 81.8393 420.434 81.5353 420.178C81.2393 419.914 80.9073 419.71 80.5393 419.566C80.1713 419.414 79.7953 419.338 79.4113 419.338C78.7793 419.338 78.2153 419.494 77.7193 419.806C77.2313 420.118 76.8473 420.55 76.5673 421.102C76.2873 421.646 76.1473 422.274 76.1473 422.986C76.1473 423.706 76.2873 424.342 76.5673 424.894C76.8473 425.446 77.2353 425.878 77.7313 426.19C78.2353 426.502 78.8073 426.658 79.4473 426.658C79.8393 426.658 80.2193 426.578 80.5873 426.418C80.9553 426.25 81.2873 426.022 81.5833 425.734C81.8873 425.446 82.1233 425.118 82.2913 424.75L82.9273 425.146C82.7193 425.57 82.4313 425.95 82.0633 426.286C81.7033 426.614 81.2953 426.87 80.8393 427.054C80.3833 427.238 79.9193 427.33 79.4473 427.33ZM86.8963 427.33C86.3203 427.33 85.8083 427.198 85.3603 426.934C84.9203 426.662 84.5723 426.29 84.3163 425.818C84.0683 425.346 83.9443 424.802 83.9443 424.186C83.9443 423.57 84.0683 423.026 84.3163 422.554C84.5643 422.082 84.9083 421.714 85.3483 421.45C85.7963 421.178 86.3043 421.042 86.8723 421.042C87.4483 421.042 87.9563 421.178 88.3963 421.45C88.8443 421.714 89.1923 422.082 89.4403 422.554C89.6883 423.026 89.8123 423.57 89.8123 424.186C89.8123 424.802 89.6883 425.346 89.4403 425.818C89.1923 426.29 88.8483 426.662 88.4083 426.934C87.9683 427.198 87.4643 427.33 86.8963 427.33ZM86.8963 426.67C87.3283 426.67 87.7083 426.566 88.0363 426.358C88.3643 426.142 88.6203 425.85 88.8043 425.482C88.9963 425.106 89.0923 424.674 89.0923 424.186C89.0923 423.698 88.9963 423.27 88.8043 422.902C88.6203 422.526 88.3603 422.234 88.0243 422.026C87.6883 421.81 87.3043 421.702 86.8723 421.702C86.4403 421.702 86.0563 421.81 85.7203 422.026C85.3923 422.234 85.1323 422.526 84.9403 422.902C84.7563 423.27 84.6643 423.698 84.6643 424.186C84.6643 424.674 84.7603 425.106 84.9523 425.482C85.1443 425.85 85.4083 426.142 85.7443 426.358C86.0803 426.566 86.4643 426.67 86.8963 426.67ZM91.2535 427.186V421.186H91.9255L91.9735 422.29V427.186H91.2535ZM95.5615 427.186V424.114H96.2815V427.186H95.5615ZM95.5615 424.114C95.5615 423.45 95.4815 422.946 95.3215 422.602C95.1695 422.258 94.9575 422.026 94.6855 421.906C94.4215 421.778 94.1215 421.714 93.7855 421.714C93.2175 421.714 92.7735 421.926 92.4535 422.35C92.1335 422.766 91.9735 423.35 91.9735 424.102H91.5295C91.5295 423.462 91.6215 422.914 91.8055 422.458C91.9895 422.002 92.2575 421.654 92.6095 421.414C92.9695 421.166 93.4055 421.042 93.9175 421.042C94.3815 421.042 94.7895 421.138 95.1415 421.33C95.5015 421.514 95.7815 421.81 95.9815 422.218C96.1895 422.626 96.2895 423.166 96.2815 423.838V424.114H95.5615ZM97.898 427.186V421.186H98.57L98.618 422.29V427.186H97.898ZM102.206 427.186V424.114H102.926V427.186H102.206ZM102.206 424.114C102.206 423.45 102.126 422.946 101.966 422.602C101.814 422.258 101.602 422.026 101.33 421.906C101.066 421.778 100.766 421.714 100.43 421.714C99.862 421.714 99.418 421.926 99.098 422.35C98.778 422.766 98.618 423.35 98.618 424.102H98.174C98.174 423.462 98.266 422.914 98.45 422.458C98.634 422.002 98.902 421.654 99.254 421.414C99.614 421.166 100.05 421.042 100.562 421.042C101.026 421.042 101.434 421.138 101.786 421.33C102.146 421.514 102.426 421.81 102.626 422.218C102.834 422.626 102.934 423.166 102.926 423.838V424.114H102.206ZM107.135 427.33C106.559 427.33 106.047 427.198 105.599 426.934C105.159 426.662 104.811 426.29 104.555 425.818C104.307 425.346 104.183 424.802 104.183 424.186C104.183 423.57 104.307 423.026 104.555 422.554C104.803 422.082 105.143 421.714 105.575 421.45C106.015 421.178 106.515 421.042 107.075 421.042C107.643 421.042 108.123 421.182 108.515 421.462C108.915 421.734 109.219 422.114 109.427 422.602C109.635 423.082 109.739 423.638 109.739 424.27H104.615L104.891 424.042C104.891 424.594 104.983 425.066 105.167 425.458C105.351 425.85 105.611 426.15 105.947 426.358C106.291 426.566 106.687 426.67 107.135 426.67C107.599 426.67 107.991 426.558 108.311 426.334C108.639 426.102 108.895 425.806 109.079 425.446L109.679 425.818C109.527 426.114 109.327 426.378 109.079 426.61C108.839 426.834 108.555 427.01 108.227 427.138C107.899 427.266 107.535 427.33 107.135 427.33ZM104.951 423.826L104.651 423.61H109.271L108.971 423.838C108.971 423.414 108.891 423.042 108.731 422.722C108.579 422.402 108.363 422.154 108.083 421.978C107.803 421.794 107.467 421.702 107.075 421.702C106.691 421.702 106.335 421.794 106.007 421.978C105.687 422.154 105.431 422.402 105.239 422.722C105.047 423.034 104.951 423.402 104.951 423.826ZM113.65 427.33C113.074 427.33 112.562 427.198 112.114 426.934C111.674 426.662 111.326 426.29 111.07 425.818C110.822 425.346 110.698 424.802 110.698 424.186C110.698 423.57 110.822 423.026 111.07 422.554C111.318 422.082 111.662 421.714 112.102 421.45C112.55 421.178 113.058 421.042 113.626 421.042C114.194 421.042 114.698 421.17 115.138 421.426C115.578 421.674 115.918 422.022 116.158 422.47L115.534 422.806C115.35 422.462 115.09 422.194 114.754 422.002C114.426 421.802 114.05 421.702 113.626 421.702C113.194 421.702 112.81 421.81 112.474 422.026C112.146 422.234 111.886 422.526 111.694 422.902C111.51 423.27 111.418 423.698 111.418 424.186C111.418 424.674 111.514 425.106 111.706 425.482C111.898 425.85 112.162 426.142 112.498 426.358C112.834 426.566 113.218 426.67 113.65 426.67C114.082 426.67 114.466 426.562 114.802 426.346C115.138 426.122 115.394 425.814 115.57 425.422L116.206 425.758C115.966 426.246 115.622 426.63 115.174 426.91C114.734 427.19 114.226 427.33 113.65 427.33ZM119.699 427.33C119.147 427.33 118.715 427.186 118.403 426.898C118.091 426.602 117.935 426.186 117.935 425.65V419.314H118.655V425.65C118.655 425.97 118.747 426.222 118.931 426.406C119.115 426.582 119.371 426.67 119.699 426.67C119.795 426.67 119.887 426.658 119.975 426.634C120.071 426.602 120.207 426.526 120.383 426.406L120.683 427.03C120.467 427.158 120.287 427.238 120.143 427.27C119.999 427.31 119.851 427.33 119.699 427.33ZM116.867 421.846V421.186H120.563V421.846H116.867ZM124.645 427.186V426.49L130.225 419.482H124.681V418.786H131.173V419.482L125.593 426.49H131.137V427.186H124.645ZM132.968 427.186V418.786H135.548C136.116 418.786 136.6 418.874 137 419.05C137.4 419.226 137.708 419.482 137.924 419.818C138.14 420.154 138.248 420.558 138.248 421.03C138.248 421.47 138.152 421.85 137.96 422.17C137.768 422.49 137.496 422.742 137.144 422.926C137.576 423.126 137.908 423.398 138.14 423.742C138.372 424.078 138.488 424.478 138.488 424.942C138.488 425.414 138.384 425.818 138.176 426.154C137.968 426.49 137.668 426.746 137.276 426.922C136.892 427.098 136.424 427.186 135.872 427.186H132.968ZM133.736 426.478H135.872C136.456 426.478 136.912 426.342 137.24 426.07C137.568 425.798 137.732 425.422 137.732 424.942C137.732 424.414 137.54 424.006 137.156 423.718C136.772 423.422 136.236 423.274 135.548 423.274H133.736V426.478ZM133.736 422.566H135.872C136.384 422.566 136.78 422.43 137.06 422.158C137.348 421.886 137.492 421.51 137.492 421.03C137.492 420.534 137.32 420.154 136.976 419.89C136.64 419.618 136.164 419.482 135.548 419.482H133.736V422.566ZM141.948 427.186V419.482H139.212V418.786H145.452V419.482H142.716V427.186H141.948ZM146.292 423.958V423.274H149.892V423.958H146.292ZM151.331 427.186V426.49C151.331 426.218 151.375 425.954 151.463 425.698C151.559 425.442 151.699 425.194 151.883 424.954C152.067 424.706 152.299 424.47 152.579 424.246L154.499 422.794C154.715 422.634 154.899 422.454 155.051 422.254C155.211 422.054 155.331 421.846 155.411 421.63C155.499 421.414 155.543 421.206 155.543 421.006C155.543 420.702 155.467 420.426 155.315 420.178C155.163 419.922 154.951 419.718 154.679 419.566C154.415 419.414 154.103 419.338 153.743 419.338C153.383 419.338 153.067 419.406 152.795 419.542C152.523 419.678 152.299 419.858 152.123 420.082C151.947 420.298 151.823 420.53 151.751 420.778L150.971 420.61C151.067 420.266 151.239 419.946 151.487 419.65C151.735 419.346 152.047 419.102 152.423 418.918C152.799 418.734 153.215 418.642 153.671 418.642C154.207 418.642 154.671 418.746 155.063 418.954C155.463 419.162 155.771 419.446 155.987 419.806C156.211 420.158 156.323 420.558 156.323 421.006C156.323 421.414 156.211 421.814 155.987 422.206C155.771 422.59 155.439 422.97 154.991 423.346L153.155 424.75C152.803 425.022 152.539 425.302 152.363 425.59C152.187 425.878 152.099 426.178 152.099 426.49H156.443V427.186H151.331Z"/><path fill="#00264C" d="M291.672 158.186C292.224 158.186 292.672 158.633 292.672 159.186V183.814H300.5C301.052 183.814 301.5 184.262 301.5 184.814V238.528C301.5 239.081 301.052 239.528 300.5 239.528H263.5C262.948 239.528 262.5 239.081 262.5 238.528V184.814C262.5 184.262 262.948 183.814 263.5 183.814H271.5V159.186C271.5 158.633 271.948 158.186 272.5 158.186H291.672Z"/><path fill="#fff" d="M299.152 234.671L299.151 226.586C299.151 226.365 298.972 226.186 298.751 226.186H284V224.213C284 223.799 283.664 223.463 283.25 223.463C282.836 223.463 282.5 223.799 282.5 224.213V227.378C282.5 227.598 282.679 227.778 282.9 227.778H293.396V233.479H266.583C266.401 233.479 266.254 233.337 266.254 233.161V231.888H271.189V227.908H267.077C265.714 227.908 264.609 228.977 264.609 230.296V232.684C264.609 234.002 265.714 235.071 267.077 235.071H298.752C298.973 235.071 299.152 234.892 299.152 234.671Z"/><path stroke="#005FBE" stroke-dasharray="3 3" stroke-linecap="round" stroke-width=".4" d="M281.5 396.186L281.5 2.18555"/><g filter="url(#filter1_d_456_605)"><circle cx="2" cy="2" r="2" fill="#fff" transform="matrix(1 0 0 -1 279.5 400.186)"/></g><path fill="#fff" d="M245.791 428.33C244.999 428.33 244.295 428.146 243.679 427.778C243.071 427.402 242.591 426.89 242.239 426.242C241.895 425.586 241.723 424.834 241.723 423.986C241.723 423.138 241.895 422.39 242.239 421.742C242.583 421.086 243.059 420.574 243.667 420.206C244.275 419.83 244.971 419.642 245.755 419.642C246.227 419.642 246.687 419.73 247.135 419.906C247.591 420.074 248.003 420.314 248.371 420.626C248.739 420.93 249.023 421.282 249.223 421.682L248.587 422.078C248.419 421.734 248.183 421.434 247.879 421.178C247.583 420.914 247.251 420.71 246.883 420.566C246.515 420.414 246.139 420.338 245.755 420.338C245.123 420.338 244.559 420.494 244.063 420.806C243.575 421.118 243.191 421.55 242.911 422.102C242.631 422.646 242.491 423.274 242.491 423.986C242.491 424.706 242.631 425.342 242.911 425.894C243.191 426.446 243.579 426.878 244.075 427.19C244.579 427.502 245.151 427.658 245.791 427.658C246.183 427.658 246.563 427.578 246.931 427.418C247.299 427.25 247.631 427.022 247.927 426.734C248.231 426.446 248.467 426.118 248.635 425.75L249.271 426.146C249.063 426.57 248.775 426.95 248.407 427.286C248.047 427.614 247.639 427.87 247.183 428.054C246.727 428.238 246.263 428.33 245.791 428.33ZM253.24 428.33C252.664 428.33 252.152 428.198 251.704 427.934C251.264 427.662 250.916 427.29 250.66 426.818C250.412 426.346 250.288 425.802 250.288 425.186C250.288 424.57 250.412 424.026 250.66 423.554C250.908 423.082 251.252 422.714 251.692 422.45C252.14 422.178 252.648 422.042 253.216 422.042C253.792 422.042 254.3 422.178 254.74 422.45C255.188 422.714 255.536 423.082 255.784 423.554C256.032 424.026 256.156 424.57 256.156 425.186C256.156 425.802 256.032 426.346 255.784 426.818C255.536 427.29 255.192 427.662 254.752 427.934C254.312 428.198 253.808 428.33 253.24 428.33ZM253.24 427.67C253.672 427.67 254.052 427.566 254.38 427.358C254.708 427.142 254.964 426.85 255.148 426.482C255.34 426.106 255.436 425.674 255.436 425.186C255.436 424.698 255.34 424.27 255.148 423.902C254.964 423.526 254.704 423.234 254.368 423.026C254.032 422.81 253.648 422.702 253.216 422.702C252.784 422.702 252.4 422.81 252.064 423.026C251.736 423.234 251.476 423.526 251.284 423.902C251.1 424.27 251.008 424.698 251.008 425.186C251.008 425.674 251.104 426.106 251.296 426.482C251.488 426.85 251.752 427.142 252.088 427.358C252.424 427.566 252.808 427.67 253.24 427.67ZM257.597 428.186V422.186H258.269L258.317 423.29V428.186H257.597ZM261.905 428.186V425.114H262.625V428.186H261.905ZM261.905 425.114C261.905 424.45 261.825 423.946 261.665 423.602C261.513 423.258 261.301 423.026 261.029 422.906C260.765 422.778 260.465 422.714 260.129 422.714C259.561 422.714 259.117 422.926 258.797 423.35C258.477 423.766 258.317 424.35 258.317 425.102H257.873C257.873 424.462 257.965 423.914 258.149 423.458C258.333 423.002 258.601 422.654 258.953 422.414C259.313 422.166 259.749 422.042 260.261 422.042C260.725 422.042 261.133 422.138 261.485 422.33C261.845 422.514 262.125 422.81 262.325 423.218C262.533 423.626 262.633 424.166 262.625 424.838V425.114H261.905ZM264.242 428.186V422.186H264.914L264.962 423.29V428.186H264.242ZM268.55 428.186V425.114H269.27V428.186H268.55ZM268.55 425.114C268.55 424.45 268.47 423.946 268.31 423.602C268.158 423.258 267.946 423.026 267.674 422.906C267.41 422.778 267.11 422.714 266.774 422.714C266.206 422.714 265.762 422.926 265.442 423.35C265.122 423.766 264.962 424.35 264.962 425.102H264.518C264.518 424.462 264.61 423.914 264.794 423.458C264.978 423.002 265.246 422.654 265.598 422.414C265.958 422.166 266.394 422.042 266.906 422.042C267.37 422.042 267.778 422.138 268.13 422.33C268.49 422.514 268.77 422.81 268.97 423.218C269.178 423.626 269.278 424.166 269.27 424.838V425.114H268.55ZM273.478 428.33C272.902 428.33 272.39 428.198 271.942 427.934C271.502 427.662 271.154 427.29 270.898 426.818C270.65 426.346 270.526 425.802 270.526 425.186C270.526 424.57 270.65 424.026 270.898 423.554C271.146 423.082 271.486 422.714 271.918 422.45C272.358 422.178 272.858 422.042 273.418 422.042C273.986 422.042 274.466 422.182 274.858 422.462C275.258 422.734 275.562 423.114 275.77 423.602C275.978 424.082 276.082 424.638 276.082 425.27H270.958L271.234 425.042C271.234 425.594 271.326 426.066 271.51 426.458C271.694 426.85 271.954 427.15 272.29 427.358C272.634 427.566 273.03 427.67 273.478 427.67C273.942 427.67 274.334 427.558 274.654 427.334C274.982 427.102 275.238 426.806 275.422 426.446L276.022 426.818C275.87 427.114 275.67 427.378 275.422 427.61C275.182 427.834 274.898 428.01 274.57 428.138C274.242 428.266 273.878 428.33 273.478 428.33ZM271.294 424.826L270.994 424.61H275.614L275.314 424.838C275.314 424.414 275.234 424.042 275.074 423.722C274.922 423.402 274.706 423.154 274.426 422.978C274.146 422.794 273.81 422.702 273.418 422.702C273.034 422.702 272.678 422.794 272.35 422.978C272.03 423.154 271.774 423.402 271.582 423.722C271.39 424.034 271.294 424.402 271.294 424.826ZM279.994 428.33C279.418 428.33 278.906 428.198 278.458 427.934C278.018 427.662 277.67 427.29 277.414 426.818C277.166 426.346 277.042 425.802 277.042 425.186C277.042 424.57 277.166 424.026 277.414 423.554C277.662 423.082 278.006 422.714 278.446 422.45C278.894 422.178 279.402 422.042 279.97 422.042C280.538 422.042 281.042 422.17 281.482 422.426C281.922 422.674 282.262 423.022 282.502 423.47L281.878 423.806C281.694 423.462 281.434 423.194 281.098 423.002C280.77 422.802 280.394 422.702 279.97 422.702C279.538 422.702 279.154 422.81 278.818 423.026C278.49 423.234 278.23 423.526 278.038 423.902C277.854 424.27 277.762 424.698 277.762 425.186C277.762 425.674 277.858 426.106 278.05 426.482C278.242 426.85 278.506 427.142 278.842 427.358C279.178 427.566 279.562 427.67 279.994 427.67C280.426 427.67 280.81 427.562 281.146 427.346C281.482 427.122 281.738 426.814 281.914 426.422L282.55 426.758C282.31 427.246 281.966 427.63 281.518 427.91C281.078 428.19 280.57 428.33 279.994 428.33ZM286.043 428.33C285.491 428.33 285.059 428.186 284.747 427.898C284.435 427.602 284.279 427.186 284.279 426.65V420.314H284.999V426.65C284.999 426.97 285.091 427.222 285.275 427.406C285.459 427.582 285.715 427.67 286.043 427.67C286.139 427.67 286.231 427.658 286.319 427.634C286.415 427.602 286.551 427.526 286.727 427.406L287.027 428.03C286.811 428.158 286.631 428.238 286.487 428.27C286.343 428.31 286.195 428.33 286.043 428.33ZM283.211 422.846V422.186H286.907V422.846H283.211ZM290.989 428.186V427.49L296.569 420.482H291.025V419.786H297.517V420.482L291.937 427.49H297.481V428.186H290.989ZM299.311 428.186V419.786H301.891C302.459 419.786 302.943 419.874 303.343 420.05C303.743 420.226 304.051 420.482 304.267 420.818C304.483 421.154 304.591 421.558 304.591 422.03C304.591 422.47 304.495 422.85 304.303 423.17C304.111 423.49 303.839 423.742 303.487 423.926C303.919 424.126 304.251 424.398 304.483 424.742C304.715 425.078 304.831 425.478 304.831 425.942C304.831 426.414 304.727 426.818 304.519 427.154C304.311 427.49 304.011 427.746 303.619 427.922C303.235 428.098 302.767 428.186 302.215 428.186H299.311ZM300.079 427.478H302.215C302.799 427.478 303.255 427.342 303.583 427.07C303.911 426.798 304.075 426.422 304.075 425.942C304.075 425.414 303.883 425.006 303.499 424.718C303.115 424.422 302.579 424.274 301.891 424.274H300.079V427.478ZM300.079 423.566H302.215C302.727 423.566 303.123 423.43 303.403 423.158C303.691 422.886 303.835 422.51 303.835 422.03C303.835 421.534 303.663 421.154 303.319 420.89C302.983 420.618 302.507 420.482 301.891 420.482H300.079V423.566ZM308.292 428.186V420.482H305.556V419.786H311.796V420.482H309.06V428.186H308.292ZM312.636 424.958V424.274H316.236V424.958H312.636ZM319.667 428.186V420.194L319.715 419.786H320.435V428.186H319.667ZM317.735 421.754V421.058C317.887 421.058 318.079 420.998 318.311 420.878C318.551 420.758 318.795 420.602 319.043 420.41C319.299 420.21 319.523 420.002 319.715 419.786L320.183 420.35C319.927 420.606 319.659 420.842 319.379 421.058C319.107 421.266 318.831 421.434 318.551 421.562C318.279 421.69 318.007 421.754 317.735 421.754Z"/><line x1=".35" x2="348.65" y1="50.836" y2="50.836" stroke="url(#paint0_linear_456_605)" stroke-linecap="round" stroke-width=".7"/><line x1=".35" x2="348.65" y1="142.836" y2="142.836" stroke="url(#paint1_linear_456_605)" stroke-linecap="round" stroke-width=".7"/><line x1=".35" x2="348.65" y1="157.836" y2="157.836" stroke="url(#paint2_linear_456_605)" stroke-linecap="round" stroke-width=".7"/><line x1=".35" x2="348.65" y1="187.836" y2="187.836" stroke="url(#paint3_linear_456_605)" stroke-linecap="round" stroke-width=".7"/><line x1=".35" x2="348.65" y1="238.836" y2="238.836" stroke="url(#paint4_linear_456_605)" stroke-linecap="round" stroke-width=".7"/><line x1=".35" x2="348.65" y1="341.836" y2="341.836" stroke="url(#paint5_linear_456_605)" stroke-linecap="round" stroke-width=".7"/><line x1=".35" x2="348.65" y1="361.836" y2="361.836" stroke="url(#paint6_linear_456_605)" stroke-linecap="round" stroke-width=".7"/><defs><filter id="filter0_d_456_605" width="37.4" height="37.4" x="97.3" y="378.486" color-interpolation-filters="sRGB" filterUnits="userSpaceOnUse"><feFlood flood-opacity="0" result="BackgroundImageFix"/><feColorMatrix in="SourceAlpha" result="hardAlpha" type="matrix" values="0 0 0 0 0 0 0 0 0 0 0 0 0 0 0 0 0 0 127 0"/><feMorphology in="SourceAlpha" operator="dilate" radius="2" result="effect1_dropShadow_456_605"/><feOffset/><feGaussianBlur stdDeviation="7.35"/><feComposite in2="hardAlpha" operator="out"/><feColorMatrix type="matrix" values="0 0 0 0 0 0 0 0 0 0.372549 0 0 0 0 0.745098 0 0 0 1 0"/><feBlend in2="BackgroundImageFix" result="effect1_dropShadow_456_605"/><feBlend in="SourceGraphic" in2="effect1_dropShadow_456_605" mode="normal" result="shape"/></filter><filter id="filter1_d_456_605" width="37.4" height="37.4" x="262.8" y="379.486" color-interpolation-filters="sRGB" filterUnits="userSpaceOnUse"><feFlood flood-opacity="0" result="BackgroundImageFix"/><feColorMatrix in="SourceAlpha" result="hardAlpha" type="matrix" values="0 0 0 0 0 0 0 0 0 0 0 0 0 0 0 0 0 0 127 0"/><feMorphology in="SourceAlpha" operator="dilate" radius="2" result="effect1_dropShadow_456_605"/><feOffset/><feGaussianBlur stdDeviation="7.35"/><feComposite in2="hardAlpha" operator="out"/><feColorMatrix type="matrix" values="0 0 0 0 0 0 0 0 0 0.372549 0 0 0 0 0.745098 0 0 0 1 0"/><feBlend in2="BackgroundImageFix" result="effect1_dropShadow_456_605"/><feBlend in="SourceGraphic" in2="effect1_dropShadow_456_605" mode="normal" result="shape"/></filter><linearGradient id="paint0_linear_456_605" x1="0" x2="349" y1="51.685" y2="51.685" gradientUnits="userSpaceOnUse"><stop stop-color="#005FBE"/><stop offset="1" stop-color="#005FBE" stop-opacity="0"/></linearGradient><linearGradient id="paint1_linear_456_605" x1="0" x2="349" y1="143.686" y2="143.686" gradientUnits="userSpaceOnUse"><stop stop-color="#005FBE"/><stop offset="1" stop-color="#005FBE" stop-opacity="0"/></linearGradient><linearGradient id="paint2_linear_456_605" x1="0" x2="349" y1="158.686" y2="158.686" gradientUnits="userSpaceOnUse"><stop stop-color="#005FBE"/><stop offset="1" stop-color="#005FBE" stop-opacity="0"/></linearGradient><linearGradient id="paint3_linear_456_605" x1="0" x2="349" y1="188.686" y2="188.686" gradientUnits="userSpaceOnUse"><stop stop-color="#005FBE"/><stop offset="1" stop-color="#005FBE" stop-opacity="0"/></linearGradient><linearGradient id="paint4_linear_456_605" x1="0" x2="349" y1="239.686" y2="239.686" gradientUnits="userSpaceOnUse"><stop stop-color="#005FBE"/><stop offset="1" stop-color="#005FBE" stop-opacity="0"/></linearGradient><linearGradient id="paint5_linear_456_605" x1="0" x2="349" y1="342.686" y2="342.686" gradientUnits="userSpaceOnUse"><stop stop-color="#005FBE"/><stop offset="1" stop-color="#005FBE" stop-opacity="0"/></linearGradient><linearGradient id="paint6_linear_456_605" x1="0" x2="349" y1="362.686" y2="362.686" gradientUnits="userSpaceOnUse"><stop stop-color="#005FBE"/><stop offset="1" stop-color="#005FBE" stop-opacity="0"/></linearGradient></defs></svg>