<svg xmlns="http://www.w3.org/2000/svg" width="558" height="544" fill="none" viewBox="0 0 558 544"><g opacity=".56"><g filter="url(#filter0_f_323_273)" opacity=".1"><path fill="url(#paint0_linear_323_273)" d="M275.083 533.208C129.878 533.208 12.166 416.184 12.166 271.828C12.1661 127.472 129.878 10.4482 275.083 10.4482C420.288 10.4482 538 127.472 538 271.828C538 416.184 420.288 533.208 275.083 533.208Z"/></g><g filter="url(#filter1_f_323_273)" opacity=".28"><path fill="url(#paint1_linear_323_273)" d="M275.518 491.214C154.697 491.214 56.7524 393.842 56.7524 273.727C56.7524 153.613 154.697 56.2407 275.518 56.2407C396.339 56.2407 494.283 153.613 494.283 273.727C494.283 393.842 396.339 491.214 275.518 491.214Z"/></g><g filter="url(#filter2_f_323_273)" opacity=".46"><path fill="url(#paint2_linear_323_273)" d="M275.953 447.04C179.516 447.04 101.339 369.32 101.339 273.447C101.339 177.574 179.516 99.8535 275.953 99.8535C372.39 99.8535 450.567 177.574 450.567 273.447C450.567 369.32 372.389 447.04 275.953 447.04Z"/></g><g filter="url(#filter3_f_323_273)" opacity=".64"><path fill="url(#paint3_linear_323_273)" d="M274.202 402.865C202.149 402.865 143.739 344.797 143.739 273.165C143.739 201.534 202.149 143.465 274.202 143.465C346.254 143.465 404.665 201.534 404.665 273.165C404.665 344.797 346.254 402.865 274.202 402.865Z"/></g><g filter="url(#filter4_f_323_273)" opacity=".82"><path fill="url(#paint4_linear_323_273)" d="M274.637 356.511C226.968 356.511 188.325 318.094 188.325 270.705C188.325 223.315 226.968 184.898 274.637 184.898C322.305 184.898 360.948 223.315 360.948 270.705C360.948 318.094 322.305 356.511 274.637 356.511Z"/></g><g filter="url(#filter5_f_323_273)"><path fill="url(#paint5_linear_323_273)" d="M275.071 314.517C251.787 314.517 232.911 295.752 232.911 272.604C232.911 249.456 251.787 230.69 275.071 230.69C298.356 230.69 317.231 249.456 317.231 272.604C317.231 295.752 298.356 314.517 275.071 314.517Z"/></g></g><path stroke="#005FBE" stroke-miterlimit="10" stroke-width=".81" d="M20.8341 264.618C38.4408 270.521 65.6569 275.545 92.4668 259.441C137.67 232.309 142.139 168.98 166.575 167.973C207.386 166.303 227.227 341.641 267.861 340.557C294.036 339.856 294.011 266.887 339.494 242.191C342.096 240.775 346.945 238.684 353.762 237.001C391.387 227.719 417.054 253.474 454.553 264.631C473.01 270.113 500.175 273.798 537.115 264.631"/><path stroke="#005FBE" stroke-miterlimit="10" stroke-width=".73" d="M20.8341 264.618C37.9457 271.337 64.0828 277.215 90.2453 263.343C97.9506 259.263 104.64 254.189 110.467 248.362C138.064 220.771 145.033 178.594 165.343 176.834C172.236 176.235 178.507 180.659 184.715 188.169C215.193 224.991 235.91 342.291 269.841 340.799C296.549 339.575 296.499 266.645 340.319 241.834C343.01 240.304 347.757 238.213 354.371 236.581C391.158 227.516 416.14 254.648 454.667 265.447C455.873 265.791 457.117 266.123 458.386 266.441C477.961 271.274 504.123 273.377 537.115 264.631" opacity=".91"/><path stroke="#005FBE" stroke-miterlimit="10" stroke-width=".66" d="M20.8341 264.618C37.438 272.141 62.5215 278.898 88.0239 267.245C95.6149 263.777 102.381 259.403 108.347 254.112C136.287 229.288 143.713 188.386 164.112 185.67C170.865 184.778 177.047 188.666 183.445 195.271C215.688 228.574 237.611 343.107 271.847 341.029C299.088 339.295 298.974 266.327 341.156 241.477C343.936 239.845 348.583 237.741 354.98 236.16C390.943 227.324 415.252 255.731 454.781 266.263C455.987 266.582 457.231 266.913 458.513 267.206C479.332 271.975 505.684 273.556 537.115 264.618" opacity=".82"/><path stroke="#005FBE" stroke-miterlimit="10" stroke-width=".59" d="M20.8341 264.618C36.9429 272.957 60.9982 280.581 85.8024 271.133C93.2919 268.277 100.121 264.618 106.214 259.85C134.484 237.792 142.367 198.191 162.881 194.506C169.494 193.32 175.613 196.648 182.163 202.373C216.298 232.157 239.312 343.923 273.84 341.246C301.602 338.989 301.424 265.931 341.994 241.107C344.85 239.36 349.42 237.244 355.59 235.727C390.727 227.12 414.351 256.853 454.895 267.079C456.114 267.385 457.358 267.704 458.64 267.971C480.728 272.676 507.246 273.722 537.128 264.618" opacity=".73"/><path stroke="#005FBE" stroke-miterlimit="10" stroke-width=".51" d="M20.8341 264.618C36.4351 273.76 59.5003 282.302 83.5809 275.035C90.9689 272.804 97.8491 269.833 104.095 265.613C132.644 246.296 141.034 208.059 161.65 203.354C168.111 201.875 174.204 204.642 180.894 209.487C217.085 235.727 241.026 344.816 275.833 341.475C304.141 338.759 303.836 265.485 342.832 240.737C345.777 238.876 350.245 236.759 356.199 235.306C390.498 226.929 413.437 258.001 455.01 267.895C456.228 268.188 457.485 268.481 458.767 268.736C482.111 273.352 508.794 273.9 537.128 264.605" opacity=".64"/><path stroke="#005FBE" stroke-miterlimit="10" stroke-width=".44" d="M20.8341 264.618C35.9401 274.563 58.0151 284.049 81.3468 278.936C88.6459 277.342 95.5514 275.047 101.949 271.362C130.765 254.762 139.676 217.927 160.405 212.202C166.727 210.456 172.82 212.61 179.599 216.601C217.986 239.194 242.701 345.657 277.813 341.717C306.654 338.478 306.197 265.013 343.645 240.393C346.666 238.404 351.045 236.3 356.783 234.897C390.257 226.737 412.497 259.173 455.099 268.736C456.33 269.016 457.574 269.297 458.869 269.526C483.482 274.04 510.33 274.104 537.115 264.618" opacity=".55"/><path stroke="#005FBE" stroke-miterlimit="10" stroke-width=".37" d="M20.8341 264.618C35.4323 275.379 56.5552 285.821 79.1253 282.838C86.3355 281.882 93.2665 280.262 99.8294 277.126C128.886 263.216 138.356 227.834 159.187 221.051C165.382 219.037 171.487 220.554 178.342 223.729C219.052 242.535 244.428 346.486 279.831 341.96C309.205 338.198 308.583 264.491 344.508 240.049C347.605 237.932 351.896 235.829 357.43 234.49C390.067 226.559 411.621 260.36 455.251 269.565C456.482 269.82 457.739 270.088 459.034 270.305C484.917 274.691 511.93 274.283 537.153 264.631" opacity=".45"/><path stroke="#005FBE" stroke-miterlimit="10" stroke-width=".29" d="M20.8341 264.618C34.9372 276.182 55.0954 287.644 76.9038 286.739C84.0252 286.446 90.9816 285.464 97.6967 282.876C126.969 271.618 137.023 237.754 157.943 229.9C163.998 227.63 170.129 228.472 177.047 230.843C220.182 245.659 246.103 347.302 281.799 342.189C311.694 337.905 310.894 263.917 345.307 239.679C348.481 237.448 352.695 235.344 358.001 234.056C389.813 226.355 410.669 261.532 455.327 270.381C456.571 270.623 457.828 270.878 459.123 271.082C486.275 275.328 513.453 274.474 537.128 264.631" opacity=".36"/><path stroke="#005FBE" stroke-miterlimit="10" stroke-width=".22" d="M20.8341 264.617C34.4295 276.998 53.6356 289.518 74.6824 290.627C81.7276 290.997 88.6839 290.627 95.5641 288.613C125.052 279.956 135.716 247.685 156.712 238.722C162.64 236.198 168.809 236.312 175.765 237.932C221.337 248.514 247.792 348.028 283.792 342.405C314.22 337.535 313.191 263.304 346.145 239.309C349.395 236.937 353.52 234.859 358.611 233.622C389.584 226.138 409.755 262.718 455.441 271.184C456.685 271.413 457.955 271.643 459.237 271.834C487.671 275.927 514.989 274.639 537.115 264.617" opacity=".27"/><path stroke="#005FBE" stroke-miterlimit="10" stroke-width=".15" d="M20.8341 264.618C33.9344 277.802 52.1631 291.431 72.4609 294.53C79.4046 295.588 86.399 295.817 93.4442 294.377C123.148 288.295 134.421 257.669 155.48 247.584C161.281 244.805 167.463 244.167 174.496 245.06C222.48 251.154 249.493 348.87 285.798 342.648C316.746 337.255 315.489 262.693 346.983 238.965C350.309 236.466 354.346 234.388 359.22 233.215C389.369 225.96 408.829 263.93 455.555 272.013C456.799 272.23 458.069 272.434 459.364 272.612C489.068 276.539 516.551 274.831 537.128 264.618" opacity=".18"/><path stroke="#005FBE" stroke-miterlimit="10" stroke-width=".07" d="M20.8341 264.617C33.4266 278.604 50.6525 293.394 70.2268 298.43C77.0689 300.19 84.1014 300.993 91.2989 300.126C121.219 296.569 133.126 267.665 154.236 256.419C159.91 253.397 166.092 251.969 173.201 252.161C223.482 253.55 251.181 349.685 287.778 342.864C319.259 336.961 317.736 262.029 347.808 238.582C351.197 235.943 355.158 233.89 359.817 232.768C389.127 225.743 407.889 265.178 455.657 272.816C456.914 273.02 458.183 273.211 459.478 273.364C490.464 277.1 518.099 274.983 537.128 264.605" opacity=".09"/><path stroke="#00AEF8" stroke-miterlimit="10" stroke-width=".81" d="M20.8341 264.618C38.4408 270.521 65.6569 275.545 92.4668 259.441C137.67 232.309 142.139 168.98 166.575 167.973C207.386 166.303 227.227 341.641 267.861 340.557C294.036 339.856 294.011 266.887 339.494 242.191C342.096 240.775 346.945 238.684 353.762 237.001C391.387 227.719 417.054 253.474 454.553 264.631C473.01 270.113 500.175 273.798 537.115 264.631"/><path fill="#fff" d="M279.003 192.058V206.975H272.294V192.058H279.003ZM281.496 189.125H269.789L269.354 189.559V209.895H281.943V189.559L281.508 189.125H281.496Z"/><path fill="#fff" d="M303.337 355.117C303.337 355.117 308.514 354.786 308.514 349.622V344.407H296.871C292.525 344.407 288.065 342.66 285.176 339.052H266.108C263.207 342.66 258.759 344.407 254.414 344.407H242.771V349.622C242.771 354.786 247.947 355.117 247.947 355.117H303.325H303.337Z"/><path fill="#fff" d="M284.806 338.568C283.042 336.158 281.93 332.971 281.93 329.006C281.93 328.623 281.93 328.763 281.93 328.763V210.443H269.341V328.763C269.341 328.763 269.341 328.623 269.341 329.006C269.341 332.984 268.242 336.158 266.466 338.568V338.747H284.793V338.568H284.806Z"/><g filter="url(#filter6_d_323_273)"><path fill="#fff" d="M537.127 268.149C539.083 268.149 540.668 266.568 540.668 264.618C540.668 262.667 539.083 261.086 537.127 261.086C535.172 261.086 533.587 262.667 533.587 264.618C533.587 266.568 535.172 268.149 537.127 268.149Z"/></g><g filter="url(#filter7_d_323_273)"><path fill="#fff" d="M20.5402 267.588C22.4954 267.588 24.0804 266.007 24.0804 264.057C24.0804 262.106 22.4954 260.525 20.5402 260.525C18.585 260.525 17 262.106 17 264.057C17 266.007 18.585 267.588 20.5402 267.588Z"/></g><defs><filter id="filter0_f_323_273" width="545.834" height="542.759" x="2.166" y=".448" color-interpolation-filters="sRGB" filterUnits="userSpaceOnUse"><feFlood flood-opacity="0" result="BackgroundImageFix"/><feBlend in="SourceGraphic" in2="BackgroundImageFix" mode="normal" result="shape"/><feGaussianBlur result="effect1_foregroundBlur_323_273" stdDeviation="5"/></filter><filter id="filter1_f_323_273" width="469.531" height="466.973" x="40.752" y="40.241" color-interpolation-filters="sRGB" filterUnits="userSpaceOnUse"><feFlood flood-opacity="0" result="BackgroundImageFix"/><feBlend in="SourceGraphic" in2="BackgroundImageFix" mode="normal" result="shape"/><feGaussianBlur result="effect1_foregroundBlur_323_273" stdDeviation="8"/></filter><filter id="filter2_f_323_273" width="365.228" height="363.187" x="93.339" y="91.853" color-interpolation-filters="sRGB" filterUnits="userSpaceOnUse"><feFlood flood-opacity="0" result="BackgroundImageFix"/><feBlend in="SourceGraphic" in2="BackgroundImageFix" mode="normal" result="shape"/><feGaussianBlur result="effect1_foregroundBlur_323_273" stdDeviation="4"/></filter><filter id="filter3_f_323_273" width="268.926" height="267.4" x="139.739" y="139.465" color-interpolation-filters="sRGB" filterUnits="userSpaceOnUse"><feFlood flood-opacity="0" result="BackgroundImageFix"/><feBlend in="SourceGraphic" in2="BackgroundImageFix" mode="normal" result="shape"/><feGaussianBlur result="effect1_foregroundBlur_323_273" stdDeviation="2"/></filter><filter id="filter4_f_323_273" width="176.623" height="175.613" x="186.325" y="182.898" color-interpolation-filters="sRGB" filterUnits="userSpaceOnUse"><feFlood flood-opacity="0" result="BackgroundImageFix"/><feBlend in="SourceGraphic" in2="BackgroundImageFix" mode="normal" result="shape"/><feGaussianBlur result="effect1_foregroundBlur_323_273" stdDeviation="1"/></filter><filter id="filter5_f_323_273" width="86.32" height="85.827" x="231.911" y="229.69" color-interpolation-filters="sRGB" filterUnits="userSpaceOnUse"><feFlood flood-opacity="0" result="BackgroundImageFix"/><feBlend in="SourceGraphic" in2="BackgroundImageFix" mode="normal" result="shape"/><feGaussianBlur result="effect1_foregroundBlur_323_273" stdDeviation=".5"/></filter><filter id="filter6_d_323_273" width="40.48" height="40.464" x="516.887" y="244.386" color-interpolation-filters="sRGB" filterUnits="userSpaceOnUse"><feFlood flood-opacity="0" result="BackgroundImageFix"/><feColorMatrix in="SourceAlpha" result="hardAlpha" type="matrix" values="0 0 0 0 0 0 0 0 0 0 0 0 0 0 0 0 0 0 127 0"/><feMorphology in="SourceAlpha" operator="dilate" radius="2" result="effect1_dropShadow_323_273"/><feOffset/><feGaussianBlur stdDeviation="7.35"/><feComposite in2="hardAlpha" operator="out"/><feColorMatrix type="matrix" values="0 0 0 0 0 0 0 0 0 0.372549 0 0 0 0 0.745098 0 0 0 1 0"/><feBlend in2="BackgroundImageFix" mode="lighten" result="effect1_dropShadow_323_273"/><feBlend in="SourceGraphic" in2="effect1_dropShadow_323_273" mode="normal" result="shape"/></filter><filter id="filter7_d_323_273" width="40.48" height="40.464" x=".3" y="243.825" color-interpolation-filters="sRGB" filterUnits="userSpaceOnUse"><feFlood flood-opacity="0" result="BackgroundImageFix"/><feColorMatrix in="SourceAlpha" result="hardAlpha" type="matrix" values="0 0 0 0 0 0 0 0 0 0 0 0 0 0 0 0 0 0 127 0"/><feMorphology in="SourceAlpha" operator="dilate" radius="2" result="effect1_dropShadow_323_273"/><feOffset/><feGaussianBlur stdDeviation="7.35"/><feComposite in2="hardAlpha" operator="out"/><feColorMatrix type="matrix" values="0 0 0 0 0 0 0 0 0 0.372549 0 0 0 0 0.745098 0 0 0 1 0"/><feBlend in2="BackgroundImageFix" mode="lighten" result="effect1_dropShadow_323_273"/><feBlend in="SourceGraphic" in2="effect1_dropShadow_323_273" mode="normal" result="shape"/></filter><linearGradient id="paint0_linear_323_273" x1="275.083" x2="275.083" y1="10.448" y2="533.208" gradientUnits="userSpaceOnUse"><stop stop-color="#005FBE"/><stop offset="1" stop-color="#0C1527"/></linearGradient><linearGradient id="paint1_linear_323_273" x1="275.518" x2="275.518" y1="56.241" y2="491.214" gradientUnits="userSpaceOnUse"><stop stop-color="#005FBE"/><stop offset="1" stop-color="#0C1527"/></linearGradient><linearGradient id="paint2_linear_323_273" x1="275.953" x2="275.953" y1="99.853" y2="447.04" gradientUnits="userSpaceOnUse"><stop stop-color="#005FBE"/><stop offset="1" stop-color="#0C1527"/></linearGradient><linearGradient id="paint3_linear_323_273" x1="274.202" x2="274.202" y1="143.465" y2="402.865" gradientUnits="userSpaceOnUse"><stop stop-color="#005FBE"/><stop offset="1" stop-color="#0C1527"/></linearGradient><linearGradient id="paint4_linear_323_273" x1="274.637" x2="274.637" y1="184.898" y2="356.511" gradientUnits="userSpaceOnUse"><stop stop-color="#005FBE"/><stop offset="1" stop-color="#0C1527"/></linearGradient><linearGradient id="paint5_linear_323_273" x1="275.071" x2="275.071" y1="230.69" y2="314.517" gradientUnits="userSpaceOnUse"><stop stop-color="#005FBE"/><stop offset="1" stop-color="#0C1527"/></linearGradient></defs></svg>