<svg xmlns="http://www.w3.org/2000/svg" width="760" height="312" fill="none" viewBox="0 0 760 312"><g clip-path="url(#clip0_615_357)"><path fill="url(#paint0_linear_615_357)" d="M759.533 184.253C751.37 184.253 751.835 160.457 744.189 160.457C736.025 160.457 736.49 184.253 728.844 184.253C720.681 184.253 721.146 160.457 713.499 160.457C705.336 160.457 705.801 184.253 698.155 184.253C689.991 184.253 690.456 160.457 682.81 160.457C674.647 160.457 675.112 184.253 667.465 184.253C659.302 184.253 659.767 160.457 652.121 160.457C643.957 160.457 644.422 184.253 636.776 184.253C628.613 184.253 629.078 160.457 621.431 160.457C613.268 160.457 613.733 184.253 606.087 184.253C597.923 184.253 598.388 160.457 590.742 160.457C582.579 160.457 583.044 184.253 575.397 184.253C567.234 184.253 567.699 160.457 560.053 160.457C551.889 160.457 552.354 184.253 544.708 184.253C536.545 184.253 537.01 160.457 529.363 160.457C521.2 160.457 521.665 184.253 514.018 184.253C503.22 184.253 503.823 160.443 493.697 160.443C482.898 160.443 483.501 184.253 473.375 184.253C459.925 184.253 460.682 160.429 448.093 160.429C434.643 160.429 435.401 184.253 422.812 184.253C404.074 184.253 405.125 160.387 387.576 160.387C368.838 160.387 369.889 184.253 352.34 184.253C333.602 184.253 334.653 160.387 317.104 160.387C298.366 160.387 299.417 184.253 281.868 184.253C263.131 184.253 264.181 160.387 246.632 160.387C227.895 160.387 228.945 184.253 211.396 184.253C192.659 184.253 193.709 160.387 176.16 160.387C157.423 160.387 158.473 184.253 140.924 184.253C122.187 184.253 123.237 160.387 105.688 160.387C86.951 160.387 88.0016 184.253 70.4525 184.253C51.7151 184.253 52.7656 160.387 35.2166 160.387C16.4792 160.387 17.5298 184.253 -0.0192871 184.253L-0.0172119 327H759.535L759.533 184.253Z" opacity=".2"/><path stroke="#00AEF8" stroke-miterlimit="10" d="M760 184.253C751.837 184.253 752.302 160.457 744.655 160.457C736.492 160.457 736.957 184.253 729.311 184.253C721.148 184.253 721.613 160.457 713.966 160.457C705.803 160.457 706.268 184.253 698.621 184.253C690.458 184.253 690.923 160.457 683.277 160.457C675.114 160.457 675.579 184.253 667.932 184.253C659.769 184.253 660.234 160.457 652.587 160.457C644.424 160.457 644.889 184.253 637.243 184.253C629.08 184.253 629.545 160.457 621.898 160.457C613.735 160.457 614.2 184.253 606.553 184.253C598.39 184.253 598.855 160.457 591.209 160.457C583.046 160.457 583.511 184.253 575.864 184.253C567.701 184.253 568.166 160.457 560.519 160.457C552.356 160.457 552.821 184.253 545.175 184.253C537.012 184.253 537.477 160.457 529.83 160.457C521.667 160.457 522.132 184.253 514.485 184.253C503.687 184.253 504.29 160.443 494.164 160.443C483.365 160.443 483.968 184.253 473.842 184.253C460.392 184.253 461.149 160.429 448.56 160.429C435.11 160.429 435.868 184.253 423.278 184.253C404.541 184.253 405.592 160.387 388.043 160.387C369.305 160.387 370.356 184.253 352.807 184.253C334.069 184.253 335.12 160.387 317.571 160.387C298.833 160.387 299.884 184.253 282.335 184.253C263.598 184.253 264.648 160.387 247.099 160.387C228.362 160.387 229.412 184.253 211.863 184.253C193.126 184.253 194.176 160.387 176.627 160.387C157.89 160.387 158.94 184.253 141.391 184.253C122.654 184.253 123.704 160.387 106.155 160.387C87.418 160.387 88.4686 184.253 70.9195 184.253C52.1822 184.253 53.2327 160.387 35.6836 160.387C16.9463 160.387 17.9968 184.253 0.447692 184.253"/><path stroke="url(#paint1_linear_615_357)" stroke-miterlimit="10" d="M212 237L212 73"/><path stroke="url(#paint2_linear_615_357)" stroke-miterlimit="10" d="M106 285L106 13"/><path stroke="url(#paint3_linear_615_357)" stroke-miterlimit="10" d="M118 223L118 237"/><path stroke="url(#paint4_linear_615_357)" stroke-miterlimit="10" d="M130 223L130 237"/><path stroke="url(#paint5_linear_615_357)" stroke-miterlimit="10" d="M141 223L141 237"/><path stroke="url(#paint6_linear_615_357)" stroke-miterlimit="10" d="M153 223L153 237"/><path stroke="url(#paint7_linear_615_357)" stroke-miterlimit="10" d="M165 223L165 237"/><path stroke="url(#paint8_linear_615_357)" stroke-miterlimit="10" d="M177 223L177 237"/><path stroke="url(#paint9_linear_615_357)" stroke-miterlimit="10" d="M188 223L188 237"/><path stroke="url(#paint10_linear_615_357)" stroke-miterlimit="10" d="M200 223L200 237"/><path stroke="url(#paint11_linear_615_357)" stroke-miterlimit="10" d="M224 223L224 237"/><path stroke="url(#paint12_linear_615_357)" stroke-miterlimit="10" d="M212 223L212 237"/><path stroke="url(#paint13_linear_615_357)" stroke-miterlimit="10" d="M236 223L236 237"/><path stroke="url(#paint14_linear_615_357)" stroke-miterlimit="10" d="M247 223L247 237"/><path stroke="url(#paint15_linear_615_357)" stroke-miterlimit="10" d="M259 223L259 237"/><path stroke="url(#paint16_linear_615_357)" stroke-miterlimit="10" d="M271 223L271 237"/><path stroke="url(#paint17_linear_615_357)" stroke-miterlimit="10" d="M283 223L283 237"/><path stroke="url(#paint18_linear_615_357)" stroke-miterlimit="10" d="M294 223L294 237"/><path stroke="url(#paint19_linear_615_357)" stroke-miterlimit="10" d="M306 223L306 237"/><path stroke="url(#paint20_linear_615_357)" stroke-miterlimit="10" d="M318 285L318 13"/><path stroke="url(#paint21_linear_615_357)" stroke-miterlimit="10" d="M514 285L514 13"/><path stroke="url(#paint22_linear_615_357)" stroke-miterlimit="10" d="M521.868 223L521.868 237"/><path stroke="url(#paint23_linear_615_357)" stroke-miterlimit="10" d="M529.735 223L529.735 237"/><path stroke="url(#paint24_linear_615_357)" stroke-miterlimit="10" d="M536.948 223L536.948 237"/><path stroke="url(#paint25_linear_615_357)" stroke-miterlimit="10" d="M544.816 223L544.816 237"/><path stroke="url(#paint26_linear_615_357)" stroke-miterlimit="10" d="M552.684 223L552.684 237"/><path stroke="url(#paint27_linear_615_357)" stroke-miterlimit="10" d="M560.552 223L560.552 237"/><path stroke="url(#paint28_linear_615_357)" stroke-miterlimit="10" d="M567.764 223L567.764 237"/><path stroke="url(#paint29_linear_615_357)" stroke-miterlimit="10" d="M575.632 223L575.632 237"/><path stroke="url(#paint30_linear_615_357)" stroke-miterlimit="10" d="M591.368 223L591.368 237"/><path stroke="url(#paint31_linear_615_357)" stroke-miterlimit="10" d="M584 223L584 237"/><path stroke="url(#paint32_linear_615_357)" stroke-miterlimit="10" d="M599.235 223L599.235 237"/><path stroke="url(#paint33_linear_615_357)" stroke-miterlimit="10" d="M606.448 223L606.448 237"/><path stroke="url(#paint34_linear_615_357)" stroke-miterlimit="10" d="M614.316 223L614.316 237"/><path stroke="url(#paint35_linear_615_357)" stroke-miterlimit="10" d="M622.184 223L622.184 237"/><path stroke="url(#paint36_linear_615_357)" stroke-miterlimit="10" d="M630.052 223L630.052 237"/><path stroke="url(#paint37_linear_615_357)" stroke-miterlimit="10" d="M637.264 223L637.264 237"/><path stroke="url(#paint38_linear_615_357)" stroke-miterlimit="10" d="M645.132 223L645.132 237"/><path stroke="url(#paint39_linear_615_357)" stroke-miterlimit="10" d="M653 285L653 13"/><g filter="url(#filter0_d_615_357)"><circle cx="212" cy="184" r="3" fill="#fff"/></g><rect width="162" height="60" x="132" y="48" fill="#005FBE" rx="30"/><g clip-path="url(#clip1_615_357)"><path fill="#fff" d="M209.134 80.2009H213.054L214.199 87.2597L215.471 80.2009H218.202L219.572 87.2597L220.818 80.2009H224.486L221.502 90.8761H218.05L216.949 85.2963L215.648 90.8761H212.313L209.137 80.2009H209.134ZM233.725 80.2262H237.898L239.578 86.6992L241.461 80.1502H245.432L241.458 90.8761H237.711L233.721 80.2262H233.725ZM246.4 80.2262V90.8761H253.497V88.1495H250.089V86.8765H253.171V84.1246H250.089V82.9275H253.449V80.2262H246.397H246.4ZM228.441 87.019L229.472 83.2727L230.257 87.019H228.444H228.441ZM231.636 80.2009H227.314L223.432 90.8761H227.529L227.893 89.3973H230.902L231.219 90.8761H235.424L231.633 80.2009H231.636ZM203.15 87.5384L201.113 90.8508H192.253L197.167 83.2315H192.627L194.519 80.2009H203.147L198.54 87.5384H203.147H203.15ZM198.088 75.5141C192.437 75.5141 187.855 80.0996 187.855 85.7555C187.855 91.4113 192.437 95.9968 198.088 95.9968C203.739 95.9968 208.32 91.4113 208.32 85.7555C208.32 80.0996 203.739 75.5141 198.088 75.5141ZM197.857 63.3695V60C183.843 60.0633 172.5 71.4479 172.5 85.4894C172.5 85.5528 172.503 85.6161 172.506 85.6795H175.863C175.905 73.4747 185.7 63.5753 197.857 63.3695ZM197.857 70.3997V67.0334C197.831 67.0334 197.806 67.0334 197.781 67.0334C187.532 67.0334 179.224 75.3494 179.224 85.6066C179.224 85.632 179.224 85.6573 179.224 85.6826H182.59C182.733 77.3065 189.488 70.5454 197.857 70.4029V70.3997Z"/></g><g filter="url(#filter1_d_615_357)"><rect width="106" height="29" x="531" y="22" fill="#002B57" fill-opacity=".2" rx="14.5" shape-rendering="crispEdges"/><path fill="#fff" d="M577.288 40.5L579.88 32.1H580.9L578.296 40.5H577.288ZM572.176 40.5L569.608 32.1H570.628L573.172 40.5H572.176ZM572.284 40.5L574.756 32.1H575.728L573.256 40.5H572.284ZM577.204 40.5L574.792 32.1H575.764L578.212 40.5H577.204ZM581.92 40.5V34.5H582.88V40.5H581.92ZM582.412 33.108C582.252 33.108 582.112 33.048 581.992 32.928C581.872 32.808 581.812 32.668 581.812 32.508C581.812 32.34 581.872 32.2 581.992 32.088C582.112 31.968 582.252 31.908 582.412 31.908C582.58 31.908 582.72 31.968 582.832 32.088C582.952 32.2 583.012 32.34 583.012 32.508C583.012 32.668 582.952 32.808 582.832 32.928C582.72 33.048 582.58 33.108 582.412 33.108ZM584.505 37.368V36.492H588.105V37.368H584.505ZM589.929 40.5V32.1H594.921V33.024H590.949V35.892H594.453V36.816H590.949V40.5H589.929ZM596.228 40.5V34.5H597.188V40.5H596.228ZM596.72 33.108C596.56 33.108 596.42 33.048 596.3 32.928C596.18 32.808 596.12 32.668 596.12 32.508C596.12 32.34 596.18 32.2 596.3 32.088C596.42 31.968 596.56 31.908 596.72 31.908C596.888 31.908 597.028 31.968 597.14 32.088C597.26 32.2 597.32 32.34 597.32 32.508C597.32 32.668 597.26 32.808 597.14 32.928C597.028 33.048 596.888 33.108 596.72 33.108Z"/></g><g filter="url(#filter2_d_615_357)"><rect width="106" height="29" x="531" y="55" fill="#002B57" fill-opacity=".2" rx="14.5" shape-rendering="crispEdges"/><path fill="#fff" d="M565.564 73.5V72.564L570.856 66.036H565.6V65.1H572.128V66.036L566.836 72.564H572.092V73.5H565.564ZM573.588 73.5V67.5H574.548V73.5H573.588ZM574.08 66.108C573.92 66.108 573.78 66.048 573.66 65.928C573.539 65.808 573.479 65.668 573.479 65.508C573.479 65.34 573.539 65.2 573.66 65.088C573.78 64.968 573.92 64.908 574.08 64.908C574.248 64.908 574.388 64.968 574.5 65.088C574.62 65.2 574.68 65.34 574.68 65.508C574.68 65.668 574.62 65.808 574.5 65.928C574.388 66.048 574.248 66.108 574.08 66.108ZM578.717 76.044C578.333 76.044 577.981 76.004 577.661 75.924C577.349 75.852 577.081 75.768 576.857 75.672C576.641 75.584 576.485 75.508 576.389 75.444L576.749 74.664C576.853 74.72 577.001 74.788 577.193 74.868C577.385 74.956 577.609 75.028 577.865 75.084C578.129 75.148 578.409 75.18 578.705 75.18C579.089 75.18 579.433 75.1 579.737 74.94C580.049 74.788 580.289 74.544 580.457 74.208C580.633 73.88 580.721 73.456 580.721 72.936V67.5H581.681V72.924C581.681 73.612 581.553 74.188 581.297 74.652C581.041 75.116 580.689 75.464 580.241 75.696C579.793 75.928 579.285 76.044 578.717 76.044ZM578.681 73.452C578.145 73.452 577.673 73.324 577.265 73.068C576.857 72.812 576.537 72.456 576.305 72C576.081 71.536 575.969 71.008 575.969 70.416C575.969 69.808 576.081 69.276 576.305 68.82C576.537 68.356 576.857 67.996 577.265 67.74C577.673 67.484 578.145 67.356 578.681 67.356C579.185 67.356 579.625 67.484 580.001 67.74C580.377 67.996 580.669 68.356 580.877 68.82C581.093 69.276 581.201 69.808 581.201 70.416C581.201 71.016 581.093 71.544 580.877 72C580.669 72.456 580.377 72.812 580.001 73.068C579.625 73.324 579.185 73.452 578.681 73.452ZM578.909 72.624C579.261 72.624 579.573 72.528 579.845 72.336C580.117 72.144 580.329 71.884 580.481 71.556C580.633 71.22 580.709 70.832 580.709 70.392C580.709 69.968 580.629 69.592 580.469 69.264C580.317 68.928 580.105 68.668 579.833 68.484C579.569 68.292 579.257 68.196 578.897 68.196C578.521 68.196 578.185 68.292 577.889 68.484C577.601 68.668 577.373 68.928 577.205 69.264C577.045 69.592 576.965 69.968 576.965 70.392C576.965 70.832 577.049 71.22 577.217 71.556C577.385 71.884 577.613 72.144 577.901 72.336C578.197 72.528 578.533 72.624 578.909 72.624ZM583.36 73.5V65.1H584.32V72.384L584.272 73.5H583.36ZM586.348 73.644C585.844 73.644 585.4 73.512 585.016 73.248C584.64 72.984 584.348 72.616 584.14 72.144C583.932 71.664 583.828 71.116 583.828 70.5C583.828 69.876 583.932 69.328 584.14 68.856C584.348 68.384 584.64 68.016 585.016 67.752C585.4 67.488 585.844 67.356 586.348 67.356C586.884 67.356 587.356 67.488 587.764 67.752C588.172 68.016 588.488 68.384 588.712 68.856C588.944 69.328 589.06 69.876 589.06 70.5C589.06 71.116 588.944 71.664 588.712 72.144C588.488 72.616 588.172 72.984 587.764 73.248C587.356 73.512 586.884 73.644 586.348 73.644ZM586.132 72.768C586.508 72.768 586.84 72.672 587.128 72.48C587.424 72.288 587.656 72.02 587.824 71.676C588 71.332 588.088 70.94 588.088 70.5C588.088 70.06 588.004 69.668 587.836 69.324C587.676 68.98 587.448 68.712 587.152 68.52C586.856 68.328 586.52 68.232 586.144 68.232C585.792 68.232 585.476 68.328 585.196 68.52C584.924 68.712 584.708 68.98 584.548 69.324C584.396 69.668 584.32 70.06 584.32 70.5C584.32 70.94 584.396 71.332 584.548 71.676C584.708 72.02 584.924 72.288 585.196 72.48C585.468 72.672 585.78 72.768 586.132 72.768ZM593.019 73.644C592.435 73.644 591.919 73.512 591.471 73.248C591.023 72.976 590.671 72.604 590.415 72.132C590.167 71.66 590.043 71.116 590.043 70.5C590.043 69.884 590.167 69.34 590.415 68.868C590.671 68.396 591.019 68.028 591.459 67.764C591.907 67.492 592.419 67.356 592.995 67.356C593.555 67.356 594.039 67.496 594.447 67.776C594.855 68.048 595.171 68.432 595.395 68.928C595.619 69.424 595.731 70.008 595.731 70.68H590.775L591.015 70.476C591.015 70.956 591.099 71.368 591.267 71.712C591.443 72.056 591.687 72.32 591.999 72.504C592.311 72.68 592.667 72.768 593.067 72.768C593.491 72.768 593.847 72.668 594.135 72.468C594.431 72.268 594.659 72.004 594.819 71.676L595.647 72.096C595.495 72.408 595.291 72.68 595.035 72.912C594.787 73.144 594.491 73.324 594.147 73.452C593.811 73.58 593.435 73.644 593.019 73.644ZM591.075 70.068L590.823 69.876H594.963L594.711 70.08C594.711 69.696 594.635 69.364 594.483 69.084C594.331 68.804 594.127 68.588 593.871 68.436C593.615 68.284 593.319 68.208 592.983 68.208C592.655 68.208 592.343 68.284 592.047 68.436C591.759 68.588 591.523 68.804 591.339 69.084C591.163 69.356 591.075 69.684 591.075 70.068ZM599.57 73.644C598.986 73.644 598.47 73.512 598.022 73.248C597.574 72.976 597.222 72.604 596.966 72.132C596.718 71.66 596.594 71.116 596.594 70.5C596.594 69.884 596.718 69.34 596.966 68.868C597.222 68.396 597.57 68.028 598.01 67.764C598.458 67.492 598.97 67.356 599.546 67.356C600.106 67.356 600.59 67.496 600.998 67.776C601.406 68.048 601.722 68.432 601.946 68.928C602.17 69.424 602.282 70.008 602.282 70.68H597.326L597.566 70.476C597.566 70.956 597.65 71.368 597.818 71.712C597.994 72.056 598.238 72.32 598.55 72.504C598.862 72.68 599.218 72.768 599.618 72.768C600.042 72.768 600.398 72.668 600.686 72.468C600.982 72.268 601.21 72.004 601.37 71.676L602.198 72.096C602.046 72.408 601.842 72.68 601.586 72.912C601.338 73.144 601.042 73.324 600.698 73.452C600.362 73.58 599.986 73.644 599.57 73.644ZM597.626 70.068L597.374 69.876H601.514L601.262 70.08C601.262 69.696 601.186 69.364 601.034 69.084C600.882 68.804 600.678 68.588 600.422 68.436C600.166 68.284 599.87 68.208 599.534 68.208C599.206 68.208 598.894 68.284 598.598 68.436C598.31 68.588 598.074 68.804 597.89 69.084C597.714 69.356 597.626 69.684 597.626 70.068Z"/></g><g filter="url(#filter3_d_615_357)"><rect width="106" height="29" x="531" y="88" fill="#002B57" fill-opacity=".2" rx="14.5" shape-rendering="crispEdges"/><path fill="#fff" d="M567.808 106.5V99.024H565.132V98.1H571.492V99.024H568.816V106.5H567.808ZM572.461 106.5V98.1H573.421V106.5H572.461ZM576.685 106.5V103.428H577.645V106.5H576.685ZM576.685 103.428C576.685 102.836 576.613 102.384 576.469 102.072C576.333 101.76 576.145 101.548 575.905 101.436C575.665 101.316 575.393 101.256 575.089 101.256C574.561 101.256 574.149 101.444 573.853 101.82C573.565 102.188 573.421 102.712 573.421 103.392H572.953C572.953 102.76 573.045 102.216 573.229 101.76C573.421 101.304 573.693 100.956 574.045 100.716C574.397 100.476 574.821 100.356 575.317 100.356C575.781 100.356 576.189 100.452 576.541 100.644C576.893 100.828 577.165 101.124 577.357 101.532C577.557 101.94 577.653 102.476 577.645 103.14V103.428H576.685ZM579.681 103.248C579.681 102.6 579.805 102.076 580.053 101.676C580.301 101.268 580.617 100.968 581.001 100.776C581.393 100.576 581.805 100.476 582.237 100.476V101.376C581.885 101.376 581.545 101.436 581.217 101.556C580.897 101.668 580.633 101.856 580.425 102.12C580.217 102.384 580.113 102.744 580.113 103.2L579.681 103.248ZM579.153 106.5V100.5H580.113V106.5H579.153ZM585.835 106.644C585.251 106.644 584.735 106.512 584.287 106.248C583.839 105.976 583.487 105.604 583.231 105.132C582.983 104.66 582.859 104.116 582.859 103.5C582.859 102.884 582.983 102.34 583.231 101.868C583.487 101.396 583.835 101.028 584.275 100.764C584.723 100.492 585.235 100.356 585.811 100.356C586.371 100.356 586.855 100.496 587.263 100.776C587.671 101.048 587.987 101.432 588.211 101.928C588.435 102.424 588.547 103.008 588.547 103.68H583.591L583.831 103.476C583.831 103.956 583.915 104.368 584.083 104.712C584.259 105.056 584.503 105.32 584.815 105.504C585.127 105.68 585.483 105.768 585.883 105.768C586.307 105.768 586.663 105.668 586.951 105.468C587.247 105.268 587.475 105.004 587.635 104.676L588.463 105.096C588.311 105.408 588.107 105.68 587.851 105.912C587.603 106.144 587.307 106.324 586.963 106.452C586.627 106.58 586.251 106.644 585.835 106.644ZM583.891 103.068L583.639 102.876H587.779L587.527 103.08C587.527 102.696 587.451 102.364 587.299 102.084C587.147 101.804 586.943 101.588 586.687 101.436C586.431 101.284 586.135 101.208 585.799 101.208C585.471 101.208 585.159 101.284 584.863 101.436C584.575 101.588 584.339 101.804 584.155 102.084C583.979 102.356 583.891 102.684 583.891 103.068ZM593.454 106.5L593.406 105.516V103.332C593.406 102.86 593.354 102.472 593.25 102.168C593.146 101.856 592.982 101.62 592.758 101.46C592.534 101.3 592.242 101.22 591.882 101.22C591.554 101.22 591.27 101.288 591.03 101.424C590.798 101.552 590.606 101.76 590.454 102.048L589.59 101.712C589.742 101.432 589.926 101.192 590.142 100.992C590.358 100.784 590.61 100.628 590.898 100.524C591.186 100.412 591.514 100.356 591.882 100.356C592.442 100.356 592.902 100.468 593.262 100.692C593.63 100.908 593.906 101.232 594.09 101.664C594.274 102.088 594.362 102.616 594.354 103.248L594.342 106.5H593.454ZM591.654 106.644C590.95 106.644 590.398 106.484 589.998 106.164C589.606 105.836 589.41 105.384 589.41 104.808C589.41 104.2 589.61 103.736 590.01 103.416C590.418 103.088 590.986 102.924 591.714 102.924H593.43V103.728H591.93C591.37 103.728 590.97 103.82 590.73 104.004C590.498 104.188 590.382 104.452 590.382 104.796C590.382 105.108 590.498 105.356 590.73 105.54C590.962 105.716 591.286 105.804 591.702 105.804C592.046 105.804 592.346 105.732 592.602 105.588C592.858 105.436 593.054 105.224 593.19 104.952C593.334 104.672 593.406 104.344 593.406 103.968H593.814C593.814 104.784 593.63 105.436 593.262 105.924C592.894 106.404 592.358 106.644 591.654 106.644ZM600.315 106.5L600.267 105.384V98.1H601.227V106.5H600.315ZM598.239 106.644C597.703 106.644 597.231 106.512 596.823 106.248C596.415 105.984 596.095 105.616 595.863 105.144C595.639 104.664 595.527 104.116 595.527 103.5C595.527 102.876 595.639 102.328 595.863 101.856C596.095 101.384 596.415 101.016 596.823 100.752C597.231 100.488 597.703 100.356 598.239 100.356C598.743 100.356 599.183 100.488 599.559 100.752C599.943 101.016 600.239 101.384 600.447 101.856C600.655 102.328 600.759 102.876 600.759 103.5C600.759 104.116 600.655 104.664 600.447 105.144C600.239 105.616 599.943 105.984 599.559 106.248C599.183 106.512 598.743 106.644 598.239 106.644ZM598.455 105.768C598.807 105.768 599.119 105.672 599.391 105.48C599.663 105.288 599.875 105.02 600.027 104.676C600.187 104.332 600.267 103.94 600.267 103.5C600.267 103.06 600.187 102.668 600.027 102.324C599.875 101.98 599.663 101.712 599.391 101.52C599.119 101.328 598.803 101.232 598.443 101.232C598.067 101.232 597.731 101.328 597.435 101.52C597.147 101.712 596.919 101.98 596.751 102.324C596.583 102.668 596.499 103.06 596.499 103.5C596.499 103.94 596.583 104.332 596.751 104.676C596.919 105.02 597.151 105.288 597.447 105.48C597.743 105.672 598.079 105.768 598.455 105.768Z"/></g><g filter="url(#filter4_d_615_357)"><rect width="106" height="29" x="531" y="121" fill="#002B57" fill-opacity=".2" rx="14.5" shape-rendering="crispEdges"/><path fill="#fff" d="M558.616 139.5V131.1H561.268C561.844 131.1 562.336 131.188 562.744 131.364C563.152 131.54 563.468 131.8 563.692 132.144C563.916 132.48 564.028 132.892 564.028 133.38C564.028 133.788 563.936 134.148 563.752 134.46C563.568 134.764 563.308 135.012 562.972 135.204C563.388 135.404 563.708 135.672 563.932 136.008C564.164 136.344 564.28 136.744 564.28 137.208C564.28 137.696 564.172 138.112 563.956 138.456C563.74 138.792 563.432 139.052 563.032 139.236C562.64 139.412 562.168 139.5 561.616 139.5H558.616ZM559.624 138.588H561.568C562.096 138.588 562.508 138.464 562.804 138.216C563.108 137.96 563.26 137.612 563.26 137.172C563.26 136.7 563.088 136.332 562.744 136.068C562.4 135.796 561.92 135.66 561.304 135.66H559.624V138.588ZM559.624 134.784H561.52C561.984 134.784 562.348 134.66 562.612 134.412C562.876 134.164 563.008 133.82 563.008 133.38C563.008 132.924 562.852 132.576 562.54 132.336C562.236 132.088 561.804 131.964 561.244 131.964H559.624V134.784ZM565.676 139.5V131.1H566.636V139.5H565.676ZM572.429 139.5L572.369 138.396V133.5H573.329V139.5H572.429ZM568.157 136.572V133.5H569.117V136.572H568.157ZM569.117 136.572C569.117 137.164 569.185 137.616 569.321 137.928C569.457 138.24 569.645 138.456 569.885 138.576C570.133 138.688 570.409 138.744 570.713 138.744C571.233 138.744 571.637 138.556 571.925 138.18C572.221 137.804 572.369 137.28 572.369 136.608H572.837C572.837 137.24 572.745 137.784 572.561 138.24C572.377 138.696 572.109 139.044 571.757 139.284C571.413 139.524 570.989 139.644 570.485 139.644C570.021 139.644 569.613 139.552 569.261 139.368C568.909 139.176 568.637 138.876 568.445 138.468C568.253 138.052 568.157 137.516 568.157 136.86V136.572H569.117ZM577.632 139.644C577.048 139.644 576.532 139.512 576.084 139.248C575.636 138.976 575.284 138.604 575.028 138.132C574.78 137.66 574.656 137.116 574.656 136.5C574.656 135.884 574.78 135.34 575.028 134.868C575.284 134.396 575.632 134.028 576.072 133.764C576.52 133.492 577.032 133.356 577.608 133.356C578.168 133.356 578.652 133.496 579.06 133.776C579.468 134.048 579.784 134.432 580.008 134.928C580.232 135.424 580.344 136.008 580.344 136.68H575.388L575.628 136.476C575.628 136.956 575.712 137.368 575.88 137.712C576.056 138.056 576.3 138.32 576.612 138.504C576.924 138.68 577.28 138.768 577.68 138.768C578.104 138.768 578.46 138.668 578.748 138.468C579.044 138.268 579.272 138.004 579.432 137.676L580.26 138.096C580.108 138.408 579.904 138.68 579.648 138.912C579.4 139.144 579.104 139.324 578.76 139.452C578.424 139.58 578.048 139.644 577.632 139.644ZM575.688 136.068L575.436 135.876H579.576L579.324 136.08C579.324 135.696 579.248 135.364 579.096 135.084C578.944 134.804 578.74 134.588 578.484 134.436C578.228 134.284 577.932 134.208 577.596 134.208C577.268 134.208 576.956 134.284 576.66 134.436C576.372 134.588 576.136 134.804 575.952 135.084C575.776 135.356 575.688 135.684 575.688 136.068ZM583.811 139.644C583.227 139.644 582.775 139.492 582.455 139.188C582.135 138.884 581.975 138.456 581.975 137.904V131.628H582.935V137.808C582.935 138.112 583.015 138.348 583.175 138.516C583.343 138.676 583.575 138.756 583.871 138.756C583.967 138.756 584.059 138.744 584.147 138.72C584.243 138.688 584.367 138.616 584.519 138.504L584.891 139.284C584.683 139.42 584.495 139.512 584.327 139.56C584.159 139.616 583.987 139.644 583.811 139.644ZM580.931 134.352V133.5H584.735V134.352H580.931ZM588.707 139.644C588.123 139.644 587.603 139.512 587.147 139.248C586.699 138.976 586.347 138.604 586.091 138.132C585.835 137.66 585.707 137.116 585.707 136.5C585.707 135.884 585.831 135.34 586.079 134.868C586.335 134.396 586.687 134.028 587.135 133.764C587.591 133.492 588.107 133.356 588.683 133.356C589.275 133.356 589.795 133.492 590.243 133.764C590.699 134.028 591.051 134.396 591.299 134.868C591.555 135.34 591.683 135.884 591.683 136.5C591.683 137.116 591.555 137.66 591.299 138.132C591.051 138.604 590.703 138.976 590.255 139.248C589.807 139.512 589.291 139.644 588.707 139.644ZM588.707 138.756C589.107 138.756 589.455 138.66 589.751 138.468C590.047 138.276 590.279 138.012 590.447 137.676C590.623 137.34 590.711 136.948 590.711 136.5C590.711 136.052 590.623 135.66 590.447 135.324C590.279 134.988 590.043 134.724 589.739 134.532C589.435 134.34 589.083 134.244 588.683 134.244C588.291 134.244 587.943 134.34 587.639 134.532C587.343 134.724 587.107 134.988 586.931 135.324C586.763 135.66 586.679 136.052 586.679 136.5C586.679 136.94 586.763 137.332 586.931 137.676C587.107 138.012 587.347 138.276 587.651 138.468C587.963 138.66 588.315 138.756 588.707 138.756ZM595.668 139.644C595.084 139.644 594.564 139.512 594.108 139.248C593.66 138.976 593.308 138.604 593.052 138.132C592.796 137.66 592.668 137.116 592.668 136.5C592.668 135.884 592.792 135.34 593.04 134.868C593.296 134.396 593.648 134.028 594.096 133.764C594.552 133.492 595.068 133.356 595.644 133.356C596.236 133.356 596.756 133.492 597.204 133.764C597.66 134.028 598.012 134.396 598.26 134.868C598.516 135.34 598.644 135.884 598.644 136.5C598.644 137.116 598.516 137.66 598.26 138.132C598.012 138.604 597.664 138.976 597.216 139.248C596.768 139.512 596.252 139.644 595.668 139.644ZM595.668 138.756C596.068 138.756 596.416 138.66 596.712 138.468C597.008 138.276 597.24 138.012 597.408 137.676C597.584 137.34 597.672 136.948 597.672 136.5C597.672 136.052 597.584 135.66 597.408 135.324C597.24 134.988 597.004 134.724 596.7 134.532C596.396 134.34 596.044 134.244 595.644 134.244C595.252 134.244 594.904 134.34 594.6 134.532C594.304 134.724 594.068 134.988 593.892 135.324C593.724 135.66 593.64 136.052 593.64 136.5C593.64 136.94 593.724 137.332 593.892 137.676C594.068 138.012 594.308 138.276 594.612 138.468C594.924 138.66 595.276 138.756 595.668 138.756ZM602.233 139.644C601.649 139.644 601.197 139.492 600.877 139.188C600.557 138.884 600.397 138.456 600.397 137.904V131.628H601.357V137.808C601.357 138.112 601.437 138.348 601.597 138.516C601.765 138.676 601.997 138.756 602.293 138.756C602.389 138.756 602.481 138.744 602.569 138.72C602.665 138.688 602.789 138.616 602.941 138.504L603.313 139.284C603.105 139.42 602.917 139.512 602.749 139.56C602.581 139.616 602.409 139.644 602.233 139.644ZM599.353 134.352V133.5H603.157V134.352H599.353ZM604.512 139.5V131.1H605.472V139.5H604.512ZM608.736 139.5V136.428H609.696V139.5H608.736ZM608.736 136.428C608.736 135.836 608.664 135.384 608.52 135.072C608.384 134.76 608.196 134.548 607.956 134.436C607.716 134.316 607.444 134.256 607.14 134.256C606.612 134.256 606.2 134.444 605.904 134.82C605.616 135.188 605.472 135.712 605.472 136.392H605.004C605.004 135.76 605.096 135.216 605.28 134.76C605.472 134.304 605.744 133.956 606.096 133.716C606.448 133.476 606.872 133.356 607.368 133.356C607.832 133.356 608.24 133.452 608.592 133.644C608.944 133.828 609.216 134.124 609.408 134.532C609.608 134.94 609.704 135.476 609.696 136.14V136.428H608.736Z"/></g><path fill="#fff" d="M165.187 259.12C164.675 259.12 164.203 259.028 163.771 258.844C163.347 258.652 163.007 258.38 162.751 258.028C162.495 257.676 162.367 257.264 162.367 256.792C162.367 256.432 162.439 256.1 162.583 255.796C162.735 255.492 162.935 255.228 163.183 255.004C163.439 254.78 163.727 254.604 164.047 254.476C164.367 254.348 164.703 254.284 165.055 254.284L165.127 254.428C164.823 254.428 164.547 254.352 164.299 254.2C164.059 254.04 163.867 253.828 163.723 253.564C163.587 253.3 163.519 253.008 163.519 252.688C163.519 252.336 163.587 252.012 163.723 251.716C163.867 251.42 164.067 251.164 164.323 250.948C164.579 250.724 164.879 250.552 165.223 250.432C165.567 250.304 165.943 250.24 166.351 250.24C166.847 250.24 167.291 250.332 167.683 250.516C168.083 250.7 168.395 250.956 168.619 251.284C168.851 251.604 168.967 251.98 168.967 252.412C168.967 252.732 168.899 253.028 168.763 253.3C168.635 253.564 168.459 253.796 168.235 253.996C168.011 254.196 167.751 254.352 167.455 254.464C167.167 254.568 166.859 254.62 166.531 254.62L166.495 254.476C166.815 254.476 167.107 254.564 167.371 254.74C167.635 254.916 167.847 255.152 168.007 255.448C168.167 255.744 168.247 256.076 168.247 256.444C168.247 256.82 168.171 257.172 168.019 257.5C167.875 257.82 167.663 258.104 167.383 258.352C167.111 258.592 166.787 258.78 166.411 258.916C166.043 259.052 165.635 259.12 165.187 259.12ZM165.187 258.256C165.475 258.256 165.739 258.212 165.979 258.124C166.219 258.028 166.427 257.9 166.603 257.74C166.787 257.572 166.927 257.376 167.023 257.152C167.127 256.928 167.179 256.688 167.179 256.432C167.179 255.944 167.007 255.568 166.663 255.304C166.327 255.032 165.907 254.896 165.403 254.896C165.099 254.896 164.827 254.944 164.587 255.04C164.347 255.128 164.139 255.256 163.963 255.424C163.795 255.592 163.663 255.784 163.567 256C163.479 256.216 163.435 256.444 163.435 256.684C163.435 257.18 163.607 257.568 163.951 257.848C164.295 258.12 164.707 258.256 165.187 258.256ZM166.135 254.056C166.399 254.056 166.639 254.016 166.855 253.936C167.079 253.856 167.267 253.744 167.419 253.6C167.579 253.456 167.699 253.292 167.779 253.108C167.867 252.916 167.911 252.708 167.911 252.484C167.911 252.052 167.763 251.716 167.467 251.476C167.171 251.228 166.803 251.104 166.363 251.104C166.107 251.104 165.871 251.144 165.655 251.224C165.439 251.304 165.247 251.42 165.079 251.572C164.919 251.716 164.795 251.884 164.707 252.076C164.619 252.268 164.575 252.48 164.575 252.712C164.575 253.128 164.723 253.456 165.019 253.696C165.315 253.936 165.687 254.056 166.135 254.056ZM172.575 259.132C172.023 259.132 171.543 259.016 171.135 258.784C170.735 258.552 170.423 258.212 170.199 257.764C169.983 257.308 169.875 256.752 169.875 256.096C169.875 255.744 169.907 255.356 169.971 254.932C170.043 254.508 170.151 254.08 170.295 253.648C170.439 253.208 170.619 252.788 170.835 252.388C171.059 251.988 171.319 251.628 171.615 251.308C171.919 250.988 172.263 250.736 172.647 250.552C173.031 250.368 173.459 250.276 173.931 250.276C174.459 250.276 174.911 250.392 175.287 250.624C175.671 250.848 175.955 251.14 176.139 251.5C176.331 251.852 176.403 252.228 176.355 252.628H175.323C175.355 252.42 175.323 252.2 175.227 251.968C175.131 251.736 174.971 251.54 174.747 251.38C174.523 251.22 174.227 251.14 173.859 251.14C173.443 251.14 173.055 251.26 172.695 251.5C172.343 251.74 172.031 252.112 171.759 252.616C171.487 253.112 171.267 253.744 171.099 254.512L170.931 255.28L170.739 255.148C170.947 254.66 171.287 254.272 171.759 253.984C172.239 253.696 172.755 253.552 173.307 253.552C173.739 253.552 174.139 253.648 174.507 253.84C174.875 254.024 175.171 254.296 175.395 254.656C175.619 255.016 175.731 255.464 175.731 256C175.731 256.416 175.659 256.812 175.515 257.188C175.371 257.564 175.159 257.9 174.879 258.196C174.607 258.484 174.275 258.712 173.883 258.88C173.499 259.048 173.063 259.132 172.575 259.132ZM172.659 258.256C173.019 258.256 173.323 258.184 173.571 258.04C173.827 257.888 174.035 257.696 174.195 257.464C174.355 257.232 174.471 256.984 174.543 256.72C174.615 256.456 174.651 256.212 174.651 255.988C174.651 255.62 174.571 255.32 174.411 255.088C174.259 254.848 174.055 254.672 173.799 254.56C173.551 254.448 173.279 254.392 172.983 254.392C172.663 254.392 172.375 254.448 172.119 254.56C171.863 254.672 171.643 254.828 171.459 255.028C171.283 255.228 171.147 255.456 171.051 255.712C170.955 255.96 170.907 256.224 170.907 256.504C170.907 257.032 171.071 257.456 171.399 257.776C171.727 258.096 172.147 258.256 172.659 258.256ZM179.41 259.12C178.946 259.12 178.534 259.052 178.174 258.916C177.822 258.772 177.526 258.584 177.286 258.352C177.054 258.112 176.882 257.844 176.77 257.548C176.666 257.252 176.634 256.948 176.674 256.636H177.682C177.666 256.916 177.722 257.18 177.85 257.428C177.978 257.676 178.174 257.876 178.438 258.028C178.702 258.18 179.03 258.256 179.422 258.256C179.678 258.256 179.914 258.216 180.13 258.136C180.354 258.056 180.55 257.944 180.718 257.8C180.894 257.648 181.042 257.472 181.162 257.272C181.29 257.072 181.386 256.856 181.45 256.624C181.514 256.384 181.546 256.136 181.546 255.88C181.546 255.312 181.394 254.884 181.09 254.596C180.786 254.308 180.37 254.164 179.842 254.164C179.522 254.164 179.222 254.224 178.942 254.344C178.67 254.456 178.446 254.64 178.27 254.896H177.394L178.822 250.36H183.394L183.202 251.224H179.218L179.638 250.864L178.558 254.344L178.426 254.068C178.61 253.852 178.85 253.684 179.146 253.564C179.45 253.436 179.79 253.372 180.166 253.372C180.654 253.372 181.082 253.476 181.45 253.684C181.818 253.892 182.102 254.188 182.302 254.572C182.51 254.948 182.614 255.396 182.614 255.916C182.614 256.284 182.562 256.628 182.458 256.948C182.354 257.268 182.206 257.564 182.014 257.836C181.83 258.1 181.606 258.328 181.342 258.52C181.078 258.712 180.782 258.86 180.454 258.964C180.134 259.068 179.786 259.12 179.41 259.12ZM182.905 259L183.193 257.764H184.429L184.141 259H182.905ZM185.297 259L185.489 258.16C186.553 257.44 187.453 256.8 188.189 256.24C188.933 255.68 189.529 255.176 189.977 254.728C190.433 254.272 190.765 253.856 190.973 253.48C191.181 253.104 191.285 252.748 191.285 252.412C191.285 252.004 191.153 251.688 190.889 251.464C190.633 251.232 190.269 251.116 189.797 251.116C189.285 251.116 188.845 251.268 188.477 251.572C188.109 251.868 187.833 252.3 187.649 252.868H186.641C186.873 252.036 187.273 251.396 187.841 250.948C188.409 250.492 189.093 250.264 189.893 250.264C190.397 250.264 190.829 250.352 191.189 250.528C191.557 250.696 191.841 250.936 192.041 251.248C192.241 251.56 192.341 251.928 192.341 252.352C192.341 252.776 192.233 253.208 192.017 253.648C191.801 254.088 191.461 254.556 190.997 255.052C190.533 255.54 189.921 256.076 189.161 256.66C188.409 257.244 187.493 257.892 186.413 258.604L186.293 258.136H191.225L191.021 259H185.297ZM195.367 256.192L195.583 255.28H199.735L199.519 256.192H195.367ZM205.927 259.132C205.391 259.132 204.931 259.016 204.547 258.784C204.163 258.552 203.875 258.236 203.683 257.836C203.491 257.436 203.419 256.988 203.467 256.492H204.499C204.475 256.804 204.507 257.096 204.595 257.368C204.691 257.632 204.851 257.848 205.075 258.016C205.307 258.184 205.619 258.268 206.011 258.268C206.467 258.268 206.867 258.14 207.211 257.884C207.563 257.628 207.867 257.24 208.123 256.72C208.379 256.2 208.587 255.552 208.747 254.776L208.903 254.008L209.095 254.14C208.959 254.46 208.759 254.74 208.495 254.98C208.231 255.22 207.931 255.408 207.595 255.544C207.259 255.672 206.911 255.736 206.551 255.736C206.127 255.736 205.731 255.644 205.363 255.46C205.003 255.276 204.711 255.008 204.487 254.656C204.263 254.296 204.151 253.86 204.151 253.348C204.151 252.948 204.223 252.564 204.367 252.196C204.511 251.828 204.719 251.5 204.991 251.212C205.263 250.924 205.591 250.696 205.975 250.528C206.367 250.36 206.803 250.276 207.283 250.276C207.835 250.276 208.311 250.392 208.711 250.624C209.111 250.856 209.419 251.196 209.635 251.644C209.851 252.084 209.959 252.632 209.959 253.288C209.959 253.624 209.927 254 209.863 254.416C209.799 254.832 209.699 255.26 209.563 255.7C209.427 256.14 209.251 256.564 209.035 256.972C208.819 257.38 208.563 257.748 208.267 258.076C207.971 258.396 207.627 258.652 207.235 258.844C206.851 259.036 206.415 259.132 205.927 259.132ZM206.875 254.896C207.187 254.896 207.467 254.84 207.715 254.728C207.971 254.616 208.187 254.464 208.363 254.272C208.547 254.072 208.687 253.852 208.783 253.612C208.879 253.364 208.927 253.108 208.927 252.844C208.927 252.348 208.763 251.944 208.435 251.632C208.115 251.312 207.703 251.152 207.199 251.152C206.847 251.152 206.543 251.228 206.287 251.38C206.039 251.524 205.835 251.712 205.675 251.944C205.523 252.168 205.411 252.408 205.339 252.664C205.267 252.912 205.231 253.144 205.231 253.36C205.231 253.704 205.307 253.992 205.459 254.224C205.619 254.448 205.823 254.616 206.071 254.728C206.327 254.84 206.595 254.896 206.875 254.896ZM209.965 259L210.157 258.16C211.221 257.44 212.121 256.8 212.857 256.24C213.601 255.68 214.197 255.176 214.645 254.728C215.101 254.272 215.433 253.856 215.641 253.48C215.849 253.104 215.953 252.748 215.953 252.412C215.953 252.004 215.821 251.688 215.557 251.464C215.301 251.232 214.937 251.116 214.465 251.116C213.953 251.116 213.513 251.268 213.145 251.572C212.777 251.868 212.501 252.3 212.317 252.868H211.309C211.541 252.036 211.941 251.396 212.509 250.948C213.077 250.492 213.761 250.264 214.561 250.264C215.065 250.264 215.497 250.352 215.857 250.528C216.225 250.696 216.509 250.936 216.709 251.248C216.909 251.56 217.009 251.928 217.009 252.352C217.009 252.776 216.901 253.208 216.685 253.648C216.469 254.088 216.129 254.556 215.665 255.052C215.201 255.54 214.589 256.076 213.829 256.66C213.077 257.244 212.161 257.892 211.081 258.604L210.961 258.136H215.893L215.689 259H209.965ZM220.34 259.132C219.788 259.132 219.308 259.016 218.9 258.784C218.5 258.552 218.188 258.212 217.964 257.764C217.748 257.308 217.64 256.752 217.64 256.096C217.64 255.744 217.672 255.356 217.736 254.932C217.808 254.508 217.916 254.08 218.06 253.648C218.204 253.208 218.384 252.788 218.6 252.388C218.824 251.988 219.084 251.628 219.38 251.308C219.684 250.988 220.028 250.736 220.412 250.552C220.796 250.368 221.224 250.276 221.696 250.276C222.224 250.276 222.676 250.392 223.052 250.624C223.436 250.848 223.72 251.14 223.904 251.5C224.096 251.852 224.168 252.228 224.12 252.628H223.088C223.12 252.42 223.088 252.2 222.992 251.968C222.896 251.736 222.736 251.54 222.512 251.38C222.288 251.22 221.992 251.14 221.624 251.14C221.208 251.14 220.82 251.26 220.46 251.5C220.108 251.74 219.796 252.112 219.524 252.616C219.252 253.112 219.032 253.744 218.864 254.512L218.696 255.28L218.504 255.148C218.712 254.66 219.052 254.272 219.524 253.984C220.004 253.696 220.52 253.552 221.072 253.552C221.504 253.552 221.904 253.648 222.272 253.84C222.64 254.024 222.936 254.296 223.16 254.656C223.384 255.016 223.496 255.464 223.496 256C223.496 256.416 223.424 256.812 223.28 257.188C223.136 257.564 222.924 257.9 222.644 258.196C222.372 258.484 222.04 258.712 221.648 258.88C221.264 259.048 220.828 259.132 220.34 259.132ZM220.424 258.256C220.784 258.256 221.088 258.184 221.336 258.04C221.592 257.888 221.8 257.696 221.96 257.464C222.12 257.232 222.236 256.984 222.308 256.72C222.38 256.456 222.416 256.212 222.416 255.988C222.416 255.62 222.336 255.32 222.176 255.088C222.024 254.848 221.82 254.672 221.564 254.56C221.316 254.448 221.044 254.392 220.748 254.392C220.428 254.392 220.14 254.448 219.884 254.56C219.628 254.672 219.408 254.828 219.224 255.028C219.048 255.228 218.912 255.456 218.816 255.712C218.72 255.96 218.672 256.224 218.672 256.504C218.672 257.032 218.836 257.456 219.164 257.776C219.492 258.096 219.912 258.256 220.424 258.256ZM223.78 259L224.068 257.764H225.304L225.016 259H223.78ZM229.241 259.132C228.785 259.132 228.369 259.064 227.993 258.928C227.625 258.792 227.313 258.604 227.057 258.364C226.809 258.116 226.629 257.824 226.517 257.488C226.405 257.152 226.377 256.788 226.433 256.396H227.417C227.393 256.676 227.417 256.932 227.489 257.164C227.569 257.388 227.689 257.584 227.849 257.752C228.017 257.92 228.221 258.048 228.461 258.136C228.701 258.224 228.969 258.268 229.265 258.268C229.553 258.268 229.813 258.224 230.045 258.136C230.285 258.04 230.493 257.908 230.669 257.74C230.845 257.572 230.977 257.376 231.065 257.152C231.161 256.92 231.209 256.664 231.209 256.384C231.209 255.944 231.085 255.588 230.837 255.316C230.589 255.036 230.265 254.896 229.865 254.896H228.809L228.989 254.056H230.021C230.405 254.056 230.737 253.988 231.017 253.852C231.305 253.716 231.529 253.528 231.689 253.288C231.849 253.048 231.929 252.768 231.929 252.448C231.929 252.032 231.793 251.708 231.521 251.476C231.249 251.244 230.865 251.128 230.369 251.128C229.873 251.128 229.457 251.264 229.121 251.536C228.793 251.808 228.553 252.212 228.401 252.748H227.369C227.577 251.956 227.941 251.344 228.461 250.912C228.989 250.472 229.629 250.252 230.381 250.252C230.901 250.252 231.357 250.34 231.749 250.516C232.141 250.692 232.445 250.936 232.661 251.248C232.885 251.56 232.997 251.924 232.997 252.34C232.997 252.684 232.925 253.004 232.781 253.3C232.637 253.596 232.441 253.852 232.193 254.068C231.945 254.276 231.665 254.428 231.353 254.524C231.049 254.62 230.729 254.64 230.393 254.584L230.381 254.344C230.965 254.424 231.421 254.648 231.749 255.016C232.085 255.376 232.253 255.848 232.253 256.432C232.253 256.824 232.177 257.184 232.025 257.512C231.881 257.84 231.673 258.128 231.401 258.376C231.137 258.616 230.821 258.804 230.453 258.94C230.085 259.068 229.681 259.132 229.241 259.132ZM235.678 259L237.67 250.36H239.134L240.334 258.688H239.854L244.87 250.36H246.478L244.486 259H243.514L245.386 250.876H245.518L240.634 259H239.458L238.306 250.948H238.438L236.578 259H235.678ZM246.565 259L248.545 250.36H249.529L247.549 259H246.565ZM252.337 259L254.317 250.36H255.301L253.321 259H252.337ZM248.197 254.068H253.909L253.717 254.932H248.005L248.197 254.068ZM255.016 259L255.172 258.304L259.948 253.252L260.32 253.696H256.36L256.552 252.88H261.064L260.896 253.576L256.132 258.628L255.76 258.184H259.96L259.768 259H255.016Z"/><path fill="#fff" d="M562.178 259L562.37 258.16C563.434 257.44 564.334 256.8 565.07 256.24C565.814 255.68 566.41 255.176 566.858 254.728C567.314 254.272 567.646 253.856 567.854 253.48C568.062 253.104 568.166 252.748 568.166 252.412C568.166 252.004 568.034 251.688 567.77 251.464C567.514 251.232 567.15 251.116 566.678 251.116C566.166 251.116 565.726 251.268 565.358 251.572C564.99 251.868 564.714 252.3 564.53 252.868H563.522C563.754 252.036 564.154 251.396 564.722 250.948C565.29 250.492 565.974 250.264 566.774 250.264C567.278 250.264 567.71 250.352 568.07 250.528C568.438 250.696 568.722 250.936 568.922 251.248C569.122 251.56 569.222 251.928 569.222 252.352C569.222 252.776 569.114 253.208 568.898 253.648C568.682 254.088 568.342 254.556 567.878 255.052C567.414 255.54 566.802 256.076 566.042 256.66C565.29 257.244 564.374 257.892 563.294 258.604L563.174 258.136H568.106L567.902 259H562.178ZM568.985 259L569.273 257.764H570.509L570.221 259H568.985ZM575.016 259L575.544 256.72L575.616 256.48L576.756 251.548H577.152L572.352 256.54L572.052 256.144H577.812L577.608 257.008H571.176L571.356 256.264L577.056 250.36H578.04L576.048 259H575.016ZM584.925 259.12C584.229 259.12 583.621 258.968 583.101 258.664C582.589 258.352 582.189 257.92 581.901 257.368C581.621 256.808 581.481 256.152 581.481 255.4C581.481 254.832 581.565 254.292 581.733 253.78C581.901 253.26 582.133 252.784 582.429 252.352C582.733 251.92 583.085 251.548 583.485 251.236C583.893 250.916 584.333 250.672 584.805 250.504C585.277 250.328 585.769 250.24 586.281 250.24C586.769 250.24 587.209 250.312 587.601 250.456C588.001 250.592 588.341 250.788 588.621 251.044C588.909 251.3 589.129 251.6 589.281 251.944C589.441 252.288 589.525 252.664 589.533 253.072H588.549C588.525 252.768 588.453 252.5 588.333 252.268C588.221 252.028 588.065 251.824 587.865 251.656C587.673 251.488 587.441 251.36 587.169 251.272C586.897 251.184 586.593 251.14 586.257 251.14C585.841 251.14 585.441 251.208 585.057 251.344C584.681 251.48 584.333 251.676 584.013 251.932C583.701 252.188 583.429 252.492 583.197 252.844C582.973 253.196 582.797 253.588 582.669 254.02C582.541 254.444 582.477 254.9 582.477 255.388C582.477 256.284 582.697 256.984 583.137 257.488C583.585 257.984 584.209 258.232 585.009 258.232C585.601 258.232 586.129 258.144 586.593 257.968C587.057 257.792 587.425 257.54 587.697 257.212L588.573 257.608C588.173 258.056 587.673 258.42 587.073 258.7C586.473 258.98 585.757 259.12 584.925 259.12ZM587.589 257.608L588.201 254.932L588.477 255.304H585.741L585.957 254.44H589.305L588.573 257.608H587.589ZM590.129 259L592.109 250.36H593.093L591.113 259H590.129ZM595.901 259L597.881 250.36H598.865L596.885 259H595.901ZM591.761 254.068H597.473L597.281 254.932H591.569L591.761 254.068ZM598.581 259L598.737 258.304L603.513 253.252L603.885 253.696H599.925L600.117 252.88H604.629L604.461 253.576L599.697 258.628L599.325 258.184H603.525L603.333 259H598.581Z"/></g><defs><filter id="filter0_d_615_357" width="39.4" height="39.4" x="192.3" y="164.3" color-interpolation-filters="sRGB" filterUnits="userSpaceOnUse"><feFlood flood-opacity="0" result="BackgroundImageFix"/><feColorMatrix in="SourceAlpha" result="hardAlpha" type="matrix" values="0 0 0 0 0 0 0 0 0 0 0 0 0 0 0 0 0 0 127 0"/><feMorphology in="SourceAlpha" operator="dilate" radius="2" result="effect1_dropShadow_615_357"/><feOffset/><feGaussianBlur stdDeviation="7.35"/><feComposite in2="hardAlpha" operator="out"/><feColorMatrix type="matrix" values="0 0 0 0 0 0 0 0 0 0.372549 0 0 0 0 0.745098 0 0 0 1 0"/><feBlend in2="BackgroundImageFix" mode="lighten" result="effect1_dropShadow_615_357"/><feBlend in="SourceGraphic" in2="effect1_dropShadow_615_357" mode="normal" result="shape"/></filter><filter id="filter1_d_615_357" width="139.4" height="62.4" x="514.3" y="5.3" color-interpolation-filters="sRGB" filterUnits="userSpaceOnUse"><feFlood flood-opacity="0" result="BackgroundImageFix"/><feColorMatrix in="SourceAlpha" result="hardAlpha" type="matrix" values="0 0 0 0 0 0 0 0 0 0 0 0 0 0 0 0 0 0 127 0"/><feMorphology in="SourceAlpha" operator="dilate" radius="2" result="effect1_dropShadow_615_357"/><feOffset/><feGaussianBlur stdDeviation="7.35"/><feComposite in2="hardAlpha" operator="out"/><feColorMatrix type="matrix" values="0 0 0 0 0 0 0 0 0 0.372549 0 0 0 0 0.745098 0 0 0 1 0"/><feBlend in2="BackgroundImageFix" mode="lighten" result="effect1_dropShadow_615_357"/><feBlend in="SourceGraphic" in2="effect1_dropShadow_615_357" mode="normal" result="shape"/></filter><filter id="filter2_d_615_357" width="139.4" height="62.4" x="514.3" y="38.3" color-interpolation-filters="sRGB" filterUnits="userSpaceOnUse"><feFlood flood-opacity="0" result="BackgroundImageFix"/><feColorMatrix in="SourceAlpha" result="hardAlpha" type="matrix" values="0 0 0 0 0 0 0 0 0 0 0 0 0 0 0 0 0 0 127 0"/><feMorphology in="SourceAlpha" operator="dilate" radius="2" result="effect1_dropShadow_615_357"/><feOffset/><feGaussianBlur stdDeviation="7.35"/><feComposite in2="hardAlpha" operator="out"/><feColorMatrix type="matrix" values="0 0 0 0 0 0 0 0 0 0.372549 0 0 0 0 0.745098 0 0 0 1 0"/><feBlend in2="BackgroundImageFix" mode="lighten" result="effect1_dropShadow_615_357"/><feBlend in="SourceGraphic" in2="effect1_dropShadow_615_357" mode="normal" result="shape"/></filter><filter id="filter3_d_615_357" width="139.4" height="62.4" x="514.3" y="71.3" color-interpolation-filters="sRGB" filterUnits="userSpaceOnUse"><feFlood flood-opacity="0" result="BackgroundImageFix"/><feColorMatrix in="SourceAlpha" result="hardAlpha" type="matrix" values="0 0 0 0 0 0 0 0 0 0 0 0 0 0 0 0 0 0 127 0"/><feMorphology in="SourceAlpha" operator="dilate" radius="2" result="effect1_dropShadow_615_357"/><feOffset/><feGaussianBlur stdDeviation="7.35"/><feComposite in2="hardAlpha" operator="out"/><feColorMatrix type="matrix" values="0 0 0 0 0 0 0 0 0 0.372549 0 0 0 0 0.745098 0 0 0 1 0"/><feBlend in2="BackgroundImageFix" mode="lighten" result="effect1_dropShadow_615_357"/><feBlend in="SourceGraphic" in2="effect1_dropShadow_615_357" mode="normal" result="shape"/></filter><filter id="filter4_d_615_357" width="139.4" height="62.4" x="514.3" y="104.3" color-interpolation-filters="sRGB" filterUnits="userSpaceOnUse"><feFlood flood-opacity="0" result="BackgroundImageFix"/><feColorMatrix in="SourceAlpha" result="hardAlpha" type="matrix" values="0 0 0 0 0 0 0 0 0 0 0 0 0 0 0 0 0 0 127 0"/><feMorphology in="SourceAlpha" operator="dilate" radius="2" result="effect1_dropShadow_615_357"/><feOffset/><feGaussianBlur stdDeviation="7.35"/><feComposite in2="hardAlpha" operator="out"/><feColorMatrix type="matrix" values="0 0 0 0 0 0 0 0 0 0.372549 0 0 0 0 0.745098 0 0 0 1 0"/><feBlend in2="BackgroundImageFix" mode="lighten" result="effect1_dropShadow_615_357"/><feBlend in="SourceGraphic" in2="effect1_dropShadow_615_357" mode="normal" result="shape"/></filter><linearGradient id="paint0_linear_615_357" x1="379.759" x2="379.759" y1="327" y2="160" gradientUnits="userSpaceOnUse"><stop stop-color="#005FBE" stop-opacity="0"/><stop offset="1" stop-color="#005FBE"/></linearGradient><linearGradient id="paint1_linear_615_357" x1="212.5" x2="212.5" y1="73" y2="237" gradientUnits="userSpaceOnUse"><stop stop-color="#00AEF8"/><stop offset="1" stop-color="#006692" stop-opacity="0"/></linearGradient><linearGradient id="paint2_linear_615_357" x1="106.5" x2="106.5" y1="13" y2="285" gradientUnits="userSpaceOnUse"><stop stop-color="#006692" stop-opacity="0"/><stop offset=".5" stop-color="#00AEF8"/><stop offset="1" stop-color="#006692" stop-opacity="0"/></linearGradient><linearGradient id="paint3_linear_615_357" x1="118.5" x2="118.5" y1="237" y2="223" gradientUnits="userSpaceOnUse"><stop stop-color="#00AEF8"/><stop offset="1" stop-color="#006692" stop-opacity="0"/></linearGradient><linearGradient id="paint4_linear_615_357" x1="130.5" x2="130.5" y1="237" y2="223" gradientUnits="userSpaceOnUse"><stop stop-color="#00AEF8"/><stop offset="1" stop-color="#006692" stop-opacity="0"/></linearGradient><linearGradient id="paint5_linear_615_357" x1="141.5" x2="141.5" y1="237" y2="223" gradientUnits="userSpaceOnUse"><stop stop-color="#00AEF8"/><stop offset="1" stop-color="#006692" stop-opacity="0"/></linearGradient><linearGradient id="paint6_linear_615_357" x1="153.5" x2="153.5" y1="237" y2="223" gradientUnits="userSpaceOnUse"><stop stop-color="#00AEF8"/><stop offset="1" stop-color="#006692" stop-opacity="0"/></linearGradient><linearGradient id="paint7_linear_615_357" x1="165.5" x2="165.5" y1="237" y2="223" gradientUnits="userSpaceOnUse"><stop stop-color="#00AEF8"/><stop offset="1" stop-color="#006692" stop-opacity="0"/></linearGradient><linearGradient id="paint8_linear_615_357" x1="177.5" x2="177.5" y1="237" y2="223" gradientUnits="userSpaceOnUse"><stop stop-color="#00AEF8"/><stop offset="1" stop-color="#006692" stop-opacity="0"/></linearGradient><linearGradient id="paint9_linear_615_357" x1="188.5" x2="188.5" y1="237" y2="223" gradientUnits="userSpaceOnUse"><stop stop-color="#00AEF8"/><stop offset="1" stop-color="#006692" stop-opacity="0"/></linearGradient><linearGradient id="paint10_linear_615_357" x1="200.5" x2="200.5" y1="237" y2="223" gradientUnits="userSpaceOnUse"><stop stop-color="#00AEF8"/><stop offset="1" stop-color="#006692" stop-opacity="0"/></linearGradient><linearGradient id="paint11_linear_615_357" x1="224.5" x2="224.5" y1="237" y2="223" gradientUnits="userSpaceOnUse"><stop stop-color="#00AEF8"/><stop offset="1" stop-color="#006692" stop-opacity="0"/></linearGradient><linearGradient id="paint12_linear_615_357" x1="212.5" x2="212.5" y1="237" y2="223" gradientUnits="userSpaceOnUse"><stop stop-color="#00AEF8"/><stop offset="1" stop-color="#006692" stop-opacity="0"/></linearGradient><linearGradient id="paint13_linear_615_357" x1="236.5" x2="236.5" y1="237" y2="223" gradientUnits="userSpaceOnUse"><stop stop-color="#00AEF8"/><stop offset="1" stop-color="#006692" stop-opacity="0"/></linearGradient><linearGradient id="paint14_linear_615_357" x1="247.5" x2="247.5" y1="237" y2="223" gradientUnits="userSpaceOnUse"><stop stop-color="#00AEF8"/><stop offset="1" stop-color="#006692" stop-opacity="0"/></linearGradient><linearGradient id="paint15_linear_615_357" x1="259.5" x2="259.5" y1="237" y2="223" gradientUnits="userSpaceOnUse"><stop stop-color="#00AEF8"/><stop offset="1" stop-color="#006692" stop-opacity="0"/></linearGradient><linearGradient id="paint16_linear_615_357" x1="271.5" x2="271.5" y1="237" y2="223" gradientUnits="userSpaceOnUse"><stop stop-color="#00AEF8"/><stop offset="1" stop-color="#006692" stop-opacity="0"/></linearGradient><linearGradient id="paint17_linear_615_357" x1="283.5" x2="283.5" y1="237" y2="223" gradientUnits="userSpaceOnUse"><stop stop-color="#00AEF8"/><stop offset="1" stop-color="#006692" stop-opacity="0"/></linearGradient><linearGradient id="paint18_linear_615_357" x1="294.5" x2="294.5" y1="237" y2="223" gradientUnits="userSpaceOnUse"><stop stop-color="#00AEF8"/><stop offset="1" stop-color="#006692" stop-opacity="0"/></linearGradient><linearGradient id="paint19_linear_615_357" x1="306.5" x2="306.5" y1="237" y2="223" gradientUnits="userSpaceOnUse"><stop stop-color="#00AEF8"/><stop offset="1" stop-color="#006692" stop-opacity="0"/></linearGradient><linearGradient id="paint20_linear_615_357" x1="318.5" x2="318.5" y1="13" y2="285" gradientUnits="userSpaceOnUse"><stop stop-color="#006692" stop-opacity="0"/><stop offset=".5" stop-color="#00AEF8"/><stop offset="1" stop-color="#006692" stop-opacity="0"/></linearGradient><linearGradient id="paint21_linear_615_357" x1="514.5" x2="514.5" y1="13" y2="285" gradientUnits="userSpaceOnUse"><stop stop-color="#006692" stop-opacity="0"/><stop offset=".5" stop-color="#00AEF8"/><stop offset="1" stop-color="#006692" stop-opacity="0"/></linearGradient><linearGradient id="paint22_linear_615_357" x1="522.368" x2="522.368" y1="237" y2="223" gradientUnits="userSpaceOnUse"><stop stop-color="#00AEF8"/><stop offset="1" stop-color="#006692" stop-opacity="0"/></linearGradient><linearGradient id="paint23_linear_615_357" x1="530.235" x2="530.235" y1="237" y2="223" gradientUnits="userSpaceOnUse"><stop stop-color="#00AEF8"/><stop offset="1" stop-color="#006692" stop-opacity="0"/></linearGradient><linearGradient id="paint24_linear_615_357" x1="537.448" x2="537.448" y1="237" y2="223" gradientUnits="userSpaceOnUse"><stop stop-color="#00AEF8"/><stop offset="1" stop-color="#006692" stop-opacity="0"/></linearGradient><linearGradient id="paint25_linear_615_357" x1="545.316" x2="545.316" y1="237" y2="223" gradientUnits="userSpaceOnUse"><stop stop-color="#00AEF8"/><stop offset="1" stop-color="#006692" stop-opacity="0"/></linearGradient><linearGradient id="paint26_linear_615_357" x1="553.184" x2="553.184" y1="237" y2="223" gradientUnits="userSpaceOnUse"><stop stop-color="#00AEF8"/><stop offset="1" stop-color="#006692" stop-opacity="0"/></linearGradient><linearGradient id="paint27_linear_615_357" x1="561.052" x2="561.052" y1="237" y2="223" gradientUnits="userSpaceOnUse"><stop stop-color="#00AEF8"/><stop offset="1" stop-color="#006692" stop-opacity="0"/></linearGradient><linearGradient id="paint28_linear_615_357" x1="568.264" x2="568.264" y1="237" y2="223" gradientUnits="userSpaceOnUse"><stop stop-color="#00AEF8"/><stop offset="1" stop-color="#006692" stop-opacity="0"/></linearGradient><linearGradient id="paint29_linear_615_357" x1="576.132" x2="576.132" y1="237" y2="223" gradientUnits="userSpaceOnUse"><stop stop-color="#00AEF8"/><stop offset="1" stop-color="#006692" stop-opacity="0"/></linearGradient><linearGradient id="paint30_linear_615_357" x1="591.868" x2="591.868" y1="237" y2="223" gradientUnits="userSpaceOnUse"><stop stop-color="#00AEF8"/><stop offset="1" stop-color="#006692" stop-opacity="0"/></linearGradient><linearGradient id="paint31_linear_615_357" x1="584.5" x2="584.5" y1="237" y2="223" gradientUnits="userSpaceOnUse"><stop stop-color="#00AEF8"/><stop offset="1" stop-color="#006692" stop-opacity="0"/></linearGradient><linearGradient id="paint32_linear_615_357" x1="599.735" x2="599.735" y1="237" y2="223" gradientUnits="userSpaceOnUse"><stop stop-color="#00AEF8"/><stop offset="1" stop-color="#006692" stop-opacity="0"/></linearGradient><linearGradient id="paint33_linear_615_357" x1="606.948" x2="606.948" y1="237" y2="223" gradientUnits="userSpaceOnUse"><stop stop-color="#00AEF8"/><stop offset="1" stop-color="#006692" stop-opacity="0"/></linearGradient><linearGradient id="paint34_linear_615_357" x1="614.816" x2="614.816" y1="237" y2="223" gradientUnits="userSpaceOnUse"><stop stop-color="#00AEF8"/><stop offset="1" stop-color="#006692" stop-opacity="0"/></linearGradient><linearGradient id="paint35_linear_615_357" x1="622.684" x2="622.684" y1="237" y2="223" gradientUnits="userSpaceOnUse"><stop stop-color="#00AEF8"/><stop offset="1" stop-color="#006692" stop-opacity="0"/></linearGradient><linearGradient id="paint36_linear_615_357" x1="630.552" x2="630.552" y1="237" y2="223" gradientUnits="userSpaceOnUse"><stop stop-color="#00AEF8"/><stop offset="1" stop-color="#006692" stop-opacity="0"/></linearGradient><linearGradient id="paint37_linear_615_357" x1="637.764" x2="637.764" y1="237" y2="223" gradientUnits="userSpaceOnUse"><stop stop-color="#00AEF8"/><stop offset="1" stop-color="#006692" stop-opacity="0"/></linearGradient><linearGradient id="paint38_linear_615_357" x1="645.632" x2="645.632" y1="237" y2="223" gradientUnits="userSpaceOnUse"><stop stop-color="#00AEF8"/><stop offset="1" stop-color="#006692" stop-opacity="0"/></linearGradient><linearGradient id="paint39_linear_615_357" x1="653.5" x2="653.5" y1="13" y2="285" gradientUnits="userSpaceOnUse"><stop stop-color="#006692" stop-opacity="0"/><stop offset=".5" stop-color="#00AEF8"/><stop offset="1" stop-color="#006692" stop-opacity="0"/></linearGradient><clipPath id="clip0_615_357"><rect width="760" height="312" fill="#fff"/></clipPath><clipPath id="clip1_615_357"><rect width="81" height="36" fill="#fff" transform="translate(172.5 60)"/></clipPath></defs></svg>