<svg xmlns="http://www.w3.org/2000/svg" width="65" height="19" fill="none" viewBox="0 0 65 19"><path fill="#F2F4F9" fill-rule="evenodd" d="M19.9446 19V14.0391L22.0005 14.0391V19" clip-rule="evenodd"/><path fill="#F2F4F9" fill-rule="evenodd" d="M26.7208 9.17888C26.7208 9.08949 26.7263 8.99452 26.7263 8.90513C26.7263 4.01681 22.704 2.45052e-06 17.8157 2.23685e-06C14.7431 2.10254e-06 11.8827 1.58661 10.257 4.18999C9.41905 3.88273 8.53078 3.7263 7.63692 3.7263C3.44697 3.7263 3.05176e-05 7.17327 3.05176e-05 11.3633C3.05176e-05 15.5533 3.31848 18.8717 7.40787 18.9946V12.1677L6.87714 12.1677C6.61457 12.1677 6.3967 11.9554 6.3967 11.6873C6.3967 11.4191 6.61457 11.2068 6.87714 11.2068L8.98329 11.2068V7.30735L8.44698 7.30735C8.19558 7.29618 7.99446 7.08388 7.99446 6.83248C7.99446 6.58108 8.19558 6.36879 8.44698 6.35203L24.4358 6.35203C24.6649 6.39114 24.8437 6.59226 24.8437 6.83248C24.8437 7.08388 24.6425 7.29618 24.3911 7.30735L23.8548 7.30735V11.2068L25.9554 11.2068C26.218 11.2068 26.4358 11.4247 26.4358 11.6873C26.4358 11.9499 26.218 12.1677 25.9554 12.1677L25.4191 12.1677V18.9946L26.0392 18.9946C28.7487 18.9946 30.9722 16.7656 30.9722 14.0616C30.9722 11.6091 29.1453 9.50849 26.7152 9.17329" clip-rule="evenodd"/><path fill="#F2F4F9" d="M14.1504 16.095V14.0391L8.98837 14.0391V16.095L14.1504 16.095Z"/><path fill="#F2F4F9" d="M22.0005 10.2958V8.23987L19.9446 8.23987V10.2958L22.0005 10.2958Z"/><path fill="#F2F4F9" d="M19.0781 10.2958V8.23987L17.0223 8.23987V10.2958L19.0781 10.2958Z"/><path fill="#F2F4F9" d="M16.1738 10.2958V8.23987L9.83862 8.23987V10.2958L16.1738 10.2958Z"/><path fill="#F2F4F9" fill-rule="evenodd" d="M52.9892 7.67081V2.57019L54.7769 2.57019C55.0451 2.57019 55.3132 2.59254 55.5702 2.65399C55.7825 2.69869 55.9836 2.78807 56.1624 2.91098C56.3188 3.02271 56.4473 3.17355 56.5311 3.34674C56.6205 3.54227 56.6596 3.75456 56.654 3.96686C56.654 4.07859 56.6372 4.19591 56.6093 4.30206C56.5479 4.51994 56.425 4.71547 56.2518 4.85514C56.1568 4.93335 56.0507 5.00039 55.9389 5.04508C56.073 5.0786 56.2071 5.13447 56.3244 5.21268C56.5255 5.35235 56.6764 5.56464 56.7378 5.80487C56.7713 5.92219 56.7881 6.05068 56.7881 6.17359C56.7881 6.6708 56.6317 7.0451 56.3076 7.2965C55.9892 7.5479 55.5367 7.6764 54.9445 7.6764L52.9892 7.6764V7.67081ZM54.0395 4.7043L54.816 4.7043C55.0283 4.71547 55.2406 4.6596 55.4138 4.5367C55.5479 4.41938 55.6205 4.24619 55.6093 4.073C55.6261 3.88306 55.5534 3.6987 55.4082 3.57579C55.2685 3.47523 55.0562 3.42495 54.7713 3.42495L54.0395 3.42495V4.70988V4.7043ZM54.0395 5.44732V6.82723L54.9445 6.82723C55.0618 6.82723 55.1791 6.81047 55.2965 6.77695C55.3858 6.74901 55.4696 6.69873 55.5423 6.63728C55.6093 6.58141 55.6596 6.50879 55.6875 6.42499C55.721 6.34119 55.7378 6.2518 55.7378 6.16241C55.7378 6.06185 55.7266 5.96129 55.6931 5.86632C55.6652 5.78252 55.6205 5.70431 55.5646 5.64285C55.5032 5.5814 55.425 5.53112 55.3356 5.50877C55.2238 5.47525 55.1065 5.45849 54.9948 5.45849L54.0507 5.45849L54.0395 5.44732Z" clip-rule="evenodd"/><path fill="#F2F4F9" d="M40.3858 7.67081L41.436 7.67081V2.57019L40.3858 2.57019V5.93336L38.3355 2.57019L37.2852 2.57019V7.67081L38.3355 7.67081V4.31323L40.3858 7.67081Z"/><path fill="#F2F4F9" fill-rule="evenodd" d="M46.3239 6.62052L48.1675 6.62052L48.5195 7.67081L49.6479 7.67081L47.7373 2.57019L46.7597 2.57019L44.8546 7.6764L45.972 7.6764L46.3239 6.62611V6.62052ZM47.8826 5.76576L46.6088 5.76576L47.2457 3.85512L47.8882 5.76576L47.8826 5.76576Z" clip-rule="evenodd"/><path fill="#F2F4F9" d="M64.3021 5.93895V2.57019L63.2574 2.57019V5.93895C63.2574 6.27973 63.1792 6.51996 63.0228 6.6708C62.6373 6.97807 62.0842 6.97807 61.6932 6.6708C61.5256 6.51437 61.4473 6.27415 61.4473 5.93895V2.57019L60.3971 2.57019V5.93895C60.3915 6.20711 60.4418 6.46968 60.5423 6.72108C60.6317 6.93896 60.7714 7.12891 60.9501 7.28533C61.1289 7.44176 61.3412 7.55908 61.5702 7.62612C62.0842 7.77696 62.6317 7.77696 63.1401 7.62612C63.3635 7.55349 63.5758 7.43617 63.7546 7.28533C63.9278 7.12891 64.0675 6.93337 64.1624 6.72108C64.263 6.47527 64.3133 6.20711 64.3077 5.93895"/><path fill="#F2F4F9" d="M41.4253 14.6597C41.4085 14.9055 41.3527 15.1458 41.2521 15.3748C41.1571 15.5871 41.0175 15.7771 40.8443 15.9335C40.6599 16.0955 40.4476 16.224 40.213 16.3022C39.9393 16.3972 39.6543 16.4419 39.3694 16.4363C39.0677 16.4363 38.7661 16.386 38.4867 16.2687C38.2298 16.157 38.0063 15.9894 37.8219 15.7771C37.632 15.548 37.4923 15.2854 37.4029 15.0061C37.3024 14.6765 37.2521 14.3301 37.2577 13.9893V13.6541C37.2577 13.3078 37.3024 12.967 37.4085 12.6318C37.4979 12.3469 37.6432 12.0843 37.8331 11.8552C38.0175 11.6429 38.2409 11.4753 38.5035 11.3636C38.7828 11.2463 39.0789 11.1848 39.3806 11.1904C39.6655 11.1904 39.9504 11.2295 40.2242 11.3245C40.4532 11.4083 40.6655 11.5312 40.8443 11.6988C41.0119 11.8608 41.1515 12.0563 41.2409 12.2686C41.3415 12.4977 41.4029 12.7435 41.4253 12.9893L40.375 12.9893C40.3638 12.8497 40.3415 12.7156 40.2968 12.5871C40.2577 12.4753 40.1962 12.3804 40.118 12.291C40.0342 12.2072 39.9337 12.1457 39.8219 12.1122C39.6823 12.0675 39.5314 12.0452 39.3806 12.0508C39.0677 12.034 38.7661 12.1793 38.5873 12.4362C38.4141 12.6932 38.3247 13.0955 38.3247 13.6374V13.9782C38.3247 14.2128 38.3415 14.4419 38.3806 14.6709C38.4085 14.8441 38.4756 15.0173 38.565 15.1681C38.6432 15.2966 38.7549 15.3972 38.889 15.4642C39.0398 15.5368 39.2018 15.5704 39.3694 15.5648C39.5147 15.5648 39.6599 15.548 39.7996 15.5089C39.9113 15.4754 40.0175 15.4195 40.1013 15.3413C40.1851 15.2631 40.2465 15.1625 40.2912 15.0564C40.3359 14.9279 40.3694 14.7938 40.375 14.6597L41.4253 14.6597Z"/><path fill="#F2F4F9" fill-rule="evenodd" d="M46.0282 15.3071L47.8662 15.3071L48.2294 16.3629L49.3467 16.3629L47.4361 11.2623L46.4584 11.2623L44.559 16.3629L45.6763 16.3629L46.0282 15.3127V15.3071ZM47.5757 14.4467L46.302 14.4467L46.9389 12.5361L47.5813 14.4467L47.5757 14.4467Z" clip-rule="evenodd"/><path fill="#F2F4F9" d="M55.3292 15.023C55.3292 14.9392 55.318 14.8554 55.2901 14.7772C55.2566 14.699 55.2063 14.632 55.1392 14.5817C55.0443 14.509 54.9437 14.4532 54.8376 14.4085C54.6756 14.3359 54.508 14.2744 54.3348 14.2241C54.1113 14.1515 53.8878 14.0677 53.6756 13.9727C53.48 13.8889 53.2957 13.7716 53.1337 13.6431C52.9828 13.5202 52.8599 13.375 52.7649 13.2018C52.67 13.023 52.6253 12.8219 52.6309 12.6208C52.6309 12.4196 52.6756 12.2185 52.7705 12.0397C52.8655 11.861 52.9996 11.7101 53.1616 11.5872C53.3404 11.4587 53.5415 11.3582 53.7594 11.2967C54.0052 11.2241 54.2621 11.1906 54.5191 11.1962C54.7817 11.1962 55.0443 11.2353 55.2901 11.3191C55.508 11.3917 55.7091 11.4978 55.8823 11.6487C56.0443 11.7828 56.1728 11.9559 56.2622 12.1459C56.3515 12.347 56.3962 12.5593 56.3962 12.7772L55.3459 12.7772C55.3459 12.6766 55.3292 12.5761 55.2957 12.4811C55.2621 12.3917 55.2119 12.3135 55.1392 12.2465C55.0666 12.1794 54.9716 12.1235 54.8767 12.0956C54.7594 12.0565 54.6365 12.0397 54.508 12.0397C54.3851 12.0397 54.2677 12.0509 54.1504 12.0844C54.061 12.1068 53.9716 12.1515 53.899 12.2073C53.8376 12.2576 53.7873 12.3247 53.7482 12.3973C53.7147 12.4699 53.6979 12.5481 53.6979 12.6263C53.6979 12.8051 53.804 12.9615 53.9549 13.0509C54.1895 13.1906 54.4465 13.2967 54.7091 13.3694C54.9605 13.4476 55.2063 13.5426 55.4465 13.6543C55.6365 13.7437 55.8152 13.8666 55.9772 14.0118C56.1113 14.1347 56.223 14.2912 56.2957 14.4588C56.3683 14.6375 56.4074 14.8275 56.4018 15.023C56.4018 15.2297 56.3627 15.4364 56.2733 15.6208C56.1895 15.794 56.061 15.9448 55.9046 16.0677C55.7258 16.1962 55.5303 16.2856 55.318 16.3471C55.0722 16.4141 54.8152 16.4476 54.5582 16.442C54.3906 16.442 54.223 16.4253 54.0554 16.3973C53.8878 16.3694 53.7314 16.3247 53.575 16.2633C53.4242 16.2018 53.2789 16.1292 53.1504 16.0342C53.0219 15.9448 52.9046 15.8331 52.8096 15.7102C52.7091 15.5817 52.6364 15.442 52.5806 15.2856C52.5247 15.118 52.4968 14.9392 52.4968 14.7604L53.5526 14.7604C53.5526 14.8945 53.575 15.0286 53.6253 15.1515C53.67 15.2521 53.7426 15.3415 53.832 15.4141C53.927 15.4811 54.0331 15.5314 54.1504 15.5593C54.2845 15.5929 54.4242 15.604 54.5638 15.604C54.6811 15.604 54.804 15.5929 54.9158 15.5593C55.0052 15.5314 55.089 15.4923 55.1616 15.4364C55.223 15.3862 55.2733 15.3247 55.3068 15.2521C55.3348 15.1794 55.3459 15.1012 55.3459 15.023"/><path fill="#F2F4F9" fill-rule="evenodd" d="M61.0111 15.3071L62.8547 15.3071L63.2123 16.3629L64.3296 16.3629L62.419 11.2623L61.4413 11.2623L59.5419 16.3629L60.6592 16.3629L61.0111 15.3127V15.3071ZM62.5698 14.4467L61.2961 14.4467L61.9274 12.5361L62.5698 14.4467Z" clip-rule="evenodd"/></svg>