<svg xmlns="http://www.w3.org/2000/svg" width="81" height="18" fill="none" viewBox="0 0 81 18"><path fill="#F2F4F9" d="M10.1868 13.9241L0.402248 13.9241C0.185285 13.9241 0.00536347 14.0988 0.00536348 14.321L0.00536363 17.6018C0.00536363 17.8188 0.179994 17.9987 0.402249 17.9987L1.64582 17.9987C1.86279 17.9987 2.04271 17.8241 2.04271 17.6018L2.04271 15.9614L10.1868 15.9614L10.1868 17.6018C10.1868 17.8188 10.3614 17.9987 10.5837 17.9987L11.8272 17.9987C12.0442 17.9987 12.2241 17.8241 12.2241 17.6018L12.2241 14.321C12.2241 14.1041 12.0442 13.9241 11.8272 13.9241L10.1868 13.9241Z"/><path fill="#F2F4F9" d="M6.67303 0.23019C6.36611 -0.0767256 5.86339 -0.0767256 5.55117 0.23019L0.560996 5.22021C0.254072 5.52713 6.70254e-05 6.13567 6.70444e-05 6.56958L6.72421e-05 11.0939C6.72611e-05 11.5279 0.354618 11.8877 0.793837 11.8877L11.4304 11.8877C11.8643 11.8877 12.2241 11.5332 12.2241 11.0939L12.2241 6.56958C12.2241 6.13567 11.9701 5.52713 11.6632 5.22021L6.67303 0.23019Z"/><path fill="#F2F4F9" d="M20.1297 1.70704C20.6906 1.70704 21.2145 1.80758 21.6961 2.01396C22.1776 2.21504 22.5851 2.50079 22.9185 2.85533C23.2519 3.21516 23.5112 3.64378 23.6964 4.14649C23.8816 4.6492 23.9768 5.19424 23.9768 5.77632C23.9821 6.35311 23.8922 6.89815 23.707 7.40614C23.5165 7.91414 23.2571 8.34806 22.9185 8.70789C22.5798 9.06772 22.1723 9.34818 21.6855 9.55455C21.2039 9.76093 20.6801 9.85618 20.1191 9.85089C19.3783 9.86147 18.7115 9.69214 18.1241 9.3376C17.5367 8.98835 17.0816 8.50152 16.7588 7.8771C16.4413 7.25269 16.2826 6.55419 16.2931 5.7869C16.2879 5.21011 16.3778 4.66507 16.563 4.15707C16.7535 3.64907 17.0128 3.21516 17.3462 2.85004C17.6796 2.4902 18.0924 2.20446 18.5739 1.99808C19.0555 1.79171 19.5741 1.69117 20.1244 1.70175M20.1403 8.28985C20.807 8.28985 21.3309 8.06231 21.7172 7.61252C22.1035 7.16273 22.2993 6.5489 22.2993 5.77103C22.2993 4.99315 22.1035 4.37403 21.7225 3.92424C21.3362 3.47445 20.807 3.2522 20.1403 3.2522C19.4735 3.2522 18.9443 3.47445 18.558 3.92424C18.1717 4.37403 17.9812 4.98786 17.9812 5.77103C17.9812 6.55419 18.1717 7.16802 18.558 7.61781C18.9443 8.06231 19.4735 8.28985 20.1403 8.28985Z"/><path fill="#F2F4F9" d="M30.9731 4.44639C30.9731 5.23485 30.735 5.86984 30.2587 6.35138C29.7825 6.83292 29.1316 7.07634 28.3114 7.07634L26.7503 7.07634L26.7503 9.71687L25.1575 9.71687L25.1575 1.8429L28.3272 1.8429C29.1528 1.8429 29.7984 2.07573 30.264 2.5414C30.7297 3.00706 30.9678 3.64206 30.9678 4.44639M29.2956 4.41464C29.2956 4.08127 29.1845 3.8061 28.9675 3.58914C28.7506 3.37219 28.4384 3.26106 28.0256 3.26106L26.7503 3.26106L26.7503 5.68993L28.0256 5.68993C28.4384 5.68993 28.7559 5.57351 28.9675 5.33539C29.1845 5.10255 29.2903 4.79564 29.2903 4.41464"/><path fill="#F2F4F9" d="M37.0532 8.21933L37.0532 9.71687L32.0948 9.71687L32.0948 1.8429L37.0532 1.8429L37.0532 3.35631L33.6876 3.35631L33.6876 5.03905L36.6775 5.03905L36.6775 6.44663L33.6876 6.44663L33.6876 8.21933L37.0532 8.21933Z"/><path fill="#F2F4F9" d="M45.3184 1.8429L45.3184 9.71687L43.7361 9.71687L40.2859 4.38818L40.2859 9.71687L38.7036 9.71687L38.7036 1.8429L40.2859 1.8429L43.7361 7.18746L43.7361 1.8429L45.3184 1.8429Z"/><path fill="#F2F4F9" d="M49.827 1.8429L51.4146 1.8429L51.4146 5.02847L54.5367 5.03905L54.5367 1.8429L56.1401 1.8429L56.1401 9.71687L54.5367 9.71687L54.5367 6.45722L51.4146 6.43605L51.4146 9.71687L49.827 9.71687L49.827 1.8429Z"/><path fill="#F2F4F9" d="M61.1468 1.70704C61.7077 1.70704 62.2316 1.80758 62.7132 2.01396C63.1947 2.21504 63.6022 2.50079 63.9356 2.85533C64.2689 3.21516 64.5282 3.64378 64.7135 4.14649C64.8987 4.6492 64.9939 5.19424 64.9939 5.77632C64.9992 6.35311 64.9093 6.89815 64.724 7.40614C64.5335 7.91414 64.2742 8.34806 63.9356 8.70789C63.5969 9.06772 63.1894 9.34818 62.7026 9.55455C62.221 9.76093 61.6971 9.85618 61.1362 9.85089C60.3954 9.86147 59.7286 9.69214 59.1412 9.3376C58.5538 8.98835 58.0987 8.50152 57.7759 7.8771C57.4584 7.25269 57.2996 6.55419 57.3102 5.7869C57.3049 5.21011 57.3949 4.66507 57.5801 4.15707C57.7706 3.64907 58.0299 3.21516 58.3633 2.85004C58.6967 2.4902 59.1094 2.20446 59.591 1.99808C60.0726 1.79171 60.5911 1.69117 61.1415 1.70175M61.1574 8.28985C61.8241 8.28985 62.348 8.06231 62.7343 7.61252C63.1206 7.16273 63.3164 6.5489 63.3164 5.77103C63.3164 4.99315 63.1206 4.37403 62.7396 3.92424C62.3533 3.47445 61.8241 3.2522 61.1574 3.2522C60.4906 3.2522 59.9614 3.47445 59.5751 3.92424C59.1888 4.37403 58.9983 4.98786 58.9983 5.77103C58.9983 6.55419 59.1888 7.16802 59.5751 7.61781C59.9614 8.06231 60.4906 8.28985 61.1574 8.28985Z"/><path fill="#F2F4F9" d="M74.127 1.8429L74.127 9.71687L72.5553 9.71687L72.5553 5.41476L70.8672 9.71687L69.359 9.71687L67.6974 5.44651L67.6974 9.71687L66.1787 9.71687L66.1787 1.8429L67.6974 1.8429L70.1158 7.8595L72.5553 1.8429L74.127 1.8429Z"/><path fill="#F2F4F9" d="M80.7524 8.21933L80.7524 9.71687L75.794 9.71687L75.794 1.8429L80.7524 1.8429L80.7524 3.35631L77.3869 3.35631L77.3869 5.03905L80.3767 5.03905L80.3767 6.44663L77.3869 6.44663L77.3869 8.21933L80.7524 8.21933Z"/><path fill="#F2F4F9" d="M17.1976 12.8354L17.1976 14.6081L19.4625 14.6081L19.4625 15.4177L17.1976 15.4177L17.1976 17.8889L16.2927 17.8889L16.2927 11.9834L17.1976 11.9834L19.8911 11.9834L19.8911 12.8354L17.1976 12.8354Z"/><path fill="#F2F4F9" d="M23.3315 11.8872C23.7443 11.8872 24.1253 11.956 24.4798 12.1095C24.8344 12.2629 25.1413 12.4746 25.39 12.7445C25.6387 13.0143 25.8345 13.3424 25.9774 13.7181C26.1203 14.0938 26.1891 14.5013 26.1838 14.9299C26.1891 15.3638 26.1203 15.7713 25.9774 16.1523C25.8345 16.5333 25.6387 16.8561 25.39 17.1259C25.1413 17.3958 24.8344 17.6075 24.4798 17.7609C24.1253 17.9144 23.739 17.9885 23.3315 17.9832C22.9188 17.9885 22.5378 17.9144 22.1832 17.7609C21.8287 17.6075 21.5217 17.3958 21.273 17.1259C21.0243 16.8561 20.8285 16.528 20.6856 16.1523C20.5427 15.7713 20.4792 15.3691 20.4845 14.9352C20.4792 14.5066 20.548 14.0991 20.6856 13.7181C20.8232 13.3371 21.019 13.0143 21.273 12.7445C21.5217 12.4746 21.8287 12.2629 22.1832 12.1042C22.5378 11.9507 22.9188 11.8766 23.3315 11.8819M21.9557 16.5068C22.3049 16.9037 22.7653 17.0995 23.3368 17.0995C23.9083 17.0995 24.3687 16.9037 24.718 16.5068C25.0619 16.1099 25.2366 15.5861 25.2366 14.9352C25.2366 14.2843 25.0619 13.7552 24.718 13.3583C24.3687 12.9614 23.9083 12.7656 23.3368 12.7656C22.7653 12.7656 22.2996 12.9614 21.9557 13.3583C21.6064 13.7552 21.4318 14.279 21.4318 14.9352C21.4318 15.5914 21.6064 16.1152 21.9557 16.5068Z"/><path fill="#F2F4F9" d="M27.1309 11.9834L28.0305 11.9834L28.0305 15.7616C28.0305 16.2114 28.1681 16.5501 28.4274 16.7829C28.692 17.0105 29.0359 17.1269 29.4593 17.1269C29.8826 17.1269 30.2107 17.0052 30.4859 16.7618C30.7558 16.5183 30.8934 16.185 30.8934 15.7616L30.8934 11.9834L31.793 11.9834L31.793 15.7987C31.793 16.1426 31.7295 16.4601 31.6078 16.7406C31.486 17.0211 31.3167 17.2539 31.0997 17.4338C30.8881 17.6137 30.6394 17.7566 30.3589 17.8518C30.0784 17.9471 29.7768 18 29.4593 18C29.1418 18 28.8507 17.9524 28.5755 17.8571C28.3004 17.7619 28.0517 17.6243 27.8347 17.4444C27.6177 17.2645 27.4484 17.0369 27.3214 16.7512C27.1944 16.4654 27.1309 16.1479 27.1309 15.7987L27.1309 11.9834Z"/><path fill="#F2F4F9" d="M37.8091 11.9834L37.8091 17.8889L36.9095 17.8889L33.999 13.4386L33.999 17.8889L33.0994 17.8889L33.0994 11.9834L33.999 11.9834L36.9095 16.4443L36.9095 11.9834L37.8091 11.9834Z"/><path fill="#F2F4F9" d="M44.1068 14.9413C44.1068 15.3646 44.038 15.7615 43.8845 16.1319C43.7364 16.5023 43.53 16.8145 43.2654 17.0738C43.0008 17.3331 42.6886 17.5342 42.3182 17.6823C41.9477 17.8252 41.5561 17.8993 41.1328 17.8887L39.1642 17.8887L39.1642 11.9832L41.1328 11.9832C41.6884 11.9726 42.1964 12.0996 42.6515 12.3536C43.1066 12.6076 43.4665 12.9622 43.7258 13.4173C43.9851 13.8723 44.1121 14.3803 44.1068 14.9465M43.149 14.9413C43.149 14.3168 42.9637 13.8088 42.5933 13.4173C42.2229 13.0257 41.7308 12.8299 41.1275 12.8299L40.0744 12.8299L40.0744 17.0473L41.1275 17.0473C41.7413 17.0473 42.2282 16.8515 42.5986 16.4652C42.969 16.079 43.1542 15.571 43.1542 14.936"/><path fill="#F2F4F9" d="M48.0599 16.4707L45.705 16.4707L45.1917 17.8889L44.2657 17.8889L46.3983 11.9834L47.3667 11.9834L49.5151 17.8889L48.5626 17.8889L48.0599 16.4707ZM47.8006 15.7034L46.8904 13.1264L45.9749 15.7034L47.8006 15.7034Z"/><path fill="#F2F4F9" d="M53.5576 12.8354L51.8431 12.8354L51.8431 17.8889L50.9382 17.8889L50.9382 12.8354L49.2236 12.8354L49.2236 11.9834L53.5576 11.9834L53.5576 12.8354Z"/><path fill="#F2F4F9" d="M55.2827 17.8889L55.2827 11.9834L54.3725 11.9834L54.3725 17.8889L55.2827 17.8889Z"/><path fill="#F2F4F9" d="M59.1255 11.8872C59.5382 11.8872 59.9192 11.956 60.2738 12.1095C60.6283 12.2629 60.9353 12.4746 61.184 12.7445C61.4327 13.0143 61.6285 13.3424 61.7714 13.7181C61.9142 14.0938 61.983 14.5013 61.9777 14.9299C61.983 15.3638 61.9142 15.7713 61.7714 16.1523C61.6285 16.5333 61.4327 16.8561 61.184 17.1259C60.9353 17.3958 60.6283 17.6075 60.2738 17.7609C59.9192 17.9144 59.5329 17.9885 59.1255 17.9832C58.7127 17.9885 58.3317 17.9144 57.9771 17.7609C57.6226 17.6075 57.3157 17.3958 57.067 17.1259C56.8182 16.8561 56.6224 16.528 56.4796 16.1523C56.3367 15.7713 56.2732 15.3691 56.2785 14.9352C56.2732 14.5066 56.342 14.0991 56.4796 13.7181C56.6172 13.3371 56.813 13.0143 57.067 12.7445C57.3157 12.4746 57.6226 12.2629 57.9771 12.1042C58.3317 11.9507 58.7127 11.8766 59.1255 11.8819M57.7496 16.5068C58.0989 16.9037 58.5592 17.0995 59.1308 17.0995C59.7023 17.0995 60.1627 16.9037 60.5119 16.5068C60.8559 16.1099 61.0305 15.5861 61.0305 14.9352C61.0305 14.2843 60.8559 13.7552 60.5119 13.3583C60.1627 12.9614 59.7023 12.7656 59.1308 12.7656C58.5592 12.7656 58.0936 12.9614 57.7496 13.3583C57.4003 13.7552 57.2257 14.279 57.2257 14.9352C57.2257 15.5914 57.4003 16.1152 57.7496 16.5068Z"/><path fill="#F2F4F9" d="M67.6973 11.9834L67.6973 17.8889L66.7924 17.8889L63.8819 13.4386L63.8819 17.8889L62.9823 17.8889L62.9823 11.9834L63.8819 11.9834L66.7924 16.4443L66.7924 11.9834L67.6973 11.9834Z"/></svg>