<svg xmlns="http://www.w3.org/2000/svg" width="70" height="142" fill="none" viewBox="0 0 70 142"><rect width="66.944" height="140" fill="#CCEFFE" stroke="#002332" stroke-width="2" rx="8" transform="matrix(1 0 0 -1 1.48389 141)"/><rect width="50.882" height="13" x="-.5" y=".5" stroke="#002332" rx="1.5" transform="matrix(-1 1.05525e-07 1.21415e-07 1 59.897 9.75)"/><rect width="2.5" height="5.694" x="-.5" y="-.5" stroke="#002332" rx="1.25" transform="matrix(-2.66453e-08 -1 -1 7.1708e-08 18.0566 17.5)"/><rect width="2.5" height="5.694" x="-.5" y="-.5" stroke="#002332" rx="1.25" transform="matrix(-2.66453e-08 -1 -1 7.1708e-08 26.4246 17.5)"/><rect width="50.882" height="13" x="-.5" y=".5" stroke="#002332" rx="1.5" transform="matrix(-1 1.05525e-07 1.21415e-07 1 59.897 29)"/><rect width="2.5" height="5.694" x="-.5" y="-.5" stroke="#002332" rx="1.25" transform="matrix(-2.66453e-08 -1 -1 7.1708e-08 18.0566 36.75)"/><rect width="2.5" height="5.694" x="-.5" y="-.5" stroke="#002332" rx="1.25" transform="matrix(-2.66453e-08 -1 -1 7.1708e-08 26.4246 36.75)"/><rect width="50.882" height="13" x="-.5" y=".5" stroke="#002332" rx="1.5" transform="matrix(-1 1.05525e-07 1.21415e-07 1 59.897 48.25)"/><rect width="2.5" height="5.694" x="-.5" y="-.5" stroke="#002332" rx="1.25" transform="matrix(-2.66453e-08 -1 -1 7.1708e-08 18.0566 56)"/><rect width="2.5" height="5.694" x="-.5" y="-.5" stroke="#002332" rx="1.25" transform="matrix(-2.66453e-08 -1 -1 7.1708e-08 26.4246 56)"/><rect width="50.882" height="13" x="-.5" y=".5" stroke="#002332" rx="1.5" transform="matrix(-1 1.05525e-07 1.21415e-07 1 59.897 67.5)"/><rect width="2.5" height="5.694" x="-.5" y="-.5" stroke="#002332" rx="1.25" transform="matrix(-2.66453e-08 -1 -1 7.1708e-08 18.0566 75.25)"/><rect width="2.5" height="5.694" x="-.5" y="-.5" stroke="#002332" rx="1.25" transform="matrix(-2.66453e-08 -1 -1 7.1708e-08 26.4246 75.25)"/><rect width="50.882" height="13" x="-.5" y=".5" stroke="#002332" rx="1.5" transform="matrix(-1 1.05525e-07 1.21415e-07 1 59.897 86.75)"/><rect width="2.5" height="5.694" x="-.5" y="-.5" stroke="#002332" rx="1.25" transform="matrix(-2.66453e-08 -1 -1 7.1708e-08 18.0566 94.5)"/><rect width="2.5" height="5.694" x="-.5" y="-.5" stroke="#002332" rx="1.25" transform="matrix(-2.66453e-08 -1 -1 7.1708e-08 26.4246 94.5)"/><rect width="50.882" height="13" x="-.5" y=".5" stroke="#002332" rx="1.5" transform="matrix(-1 1.05525e-07 1.21415e-07 1 59.897 106)"/><rect width="2.5" height="5.694" x="-.5" y="-.5" stroke="#002332" rx="1.25" transform="matrix(-2.66453e-08 -1 -1 7.1708e-08 18.0566 113.75)"/><rect width="2.5" height="5.694" x="-.5" y="-.5" stroke="#002332" rx="1.25" transform="matrix(-2.66453e-08 -1 -1 7.1708e-08 26.4246 113.75)"/><rect width="1.333" height="10.901" x=".5" y=".5" stroke="#002332" rx=".667" transform="matrix(-4.75477e-08 1 1 4.01846e-08 13.1992 128.75)"/><rect width="1.333" height="11.645" x=".5" y=".5" stroke="#002332" rx=".667" transform="matrix(-4.5472e-08 1 1 4.2019e-08 43.324 128.75)"/><rect width="9.889" height="9.414" x=".5" y=".5" stroke="#002332" rx="4.707" transform="matrix(-3.29507e-08 1 1 5.79862e-08 29.0981 125.25)"/></svg>