<svg xmlns="http://www.w3.org/2000/svg" width="122" height="123" fill="none" viewBox="0 0 122 123"><rect width="120" height="120" fill="#fff" stroke="#002332" stroke-width="2" rx="8" transform="matrix(1 0 0 -1 0.999512 121.471)"/><path fill="#002332" d="M85.6127 57.9451L63.3872 35.9726C62.0755 34.6758 59.9267 34.6758 58.615 35.9726L36.3872 57.9451C35.0755 59.2419 34 61.8066 34 63.6417V83.6612C34 85.4963 35.5188 86.9978 37.375 86.9978H58.1357L48.994 77.9601C48.5237 78.1203 48.022 78.2115 47.5 78.2115C44.9575 78.2115 42.8875 76.165 42.8875 73.6515C42.8875 71.1379 44.9575 69.0915 47.5 69.0915C50.0425 69.0915 52.1125 71.1379 52.1125 73.6515C52.1125 74.1698 52.0203 74.6658 51.8582 75.1307L58.975 82.1664V56.3902C57.445 55.6473 56.3875 54.0947 56.3875 52.2996C56.3875 49.786 58.4575 47.7396 61 47.7396C63.5425 47.7396 65.6125 49.786 65.6125 52.2996C65.6125 54.0947 64.555 55.6473 63.025 56.3902V74.4678L70.1035 67.4699C69.964 67.0339 69.8875 66.5713 69.8875 66.0908C69.8875 63.5772 71.9575 61.5308 74.5 61.5308C77.0425 61.5308 79.1125 63.5772 79.1125 66.0908C79.1125 68.6043 77.0425 70.6508 74.5 70.6508C73.9375 70.6508 73.402 70.5462 72.9047 70.3638L63.025 80.1311V87H84.625C86.4812 87 88 85.4985 88 83.6634V63.644C88 61.8088 86.9267 59.2464 85.6127 57.9473V57.9451Z"/></svg>