<svg xmlns="http://www.w3.org/2000/svg" width="660" height="780" fill="none" viewBox="0 0 660 780"><path fill="url(#paint0_linear_1813_708)" stroke="#fff" d="M301.128 12.3232C316.832 -3.43998 342.719 -3.44313 358.65 12.3262H358.651L630.534 281.002C638.424 288.811 645.67 300.554 650.944 313.15C656.219 325.747 659.5 339.146 659.5 350.255V738.682C659.5 760.79 641.14 778.971 618.792 778.971H41.208C18.8597 778.971 0.5 760.79 0.5 738.682V350.255C0.5 339.145 3.72558 325.8 8.97168 313.232C14.2177 300.665 21.4638 288.923 29.4658 281.002L301.125 12.3262L301.128 12.3232Z"/><defs><linearGradient id="paint0_linear_1813_708" x1="683" x2="213.5" y1="596.5" y2="92" gradientUnits="userSpaceOnUse"><stop stop-color="#E5F7FE"/><stop offset="1" stop-color="#E5F7FE" stop-opacity="0"/></linearGradient></defs></svg>