<svg xmlns="http://www.w3.org/2000/svg" width="123" height="142" fill="none" viewBox="0 0 123 142"><rect width="119.9" height="140" fill="#fff" stroke="#002332" stroke-width="2" rx="8" transform="matrix(1 0 0 -1 1.15234 141)"/><rect width="119.001" height="14.613" x="-.5" y="-.5" stroke="#002332" rx="1.5" transform="matrix(-2.10388e-08 -1 -1 9.0817e-08 66.7229 130.001)"/><rect width="2" height="6.993" x="-.5" y="-.5" stroke="#002332" rx="1" transform="matrix(-3.88623e-08 -1 -1 4.91655e-08 63.0999 20)"/><rect width="2" height="6.993" x="-.5" y="-.5" stroke="#002332" rx="1" transform="matrix(-3.88623e-08 -1 -1 4.91655e-08 63.0999 118)"/><rect width="2" height="6.993" x="-.5" y="-.5" stroke="#002332" rx="1" transform="matrix(-3.88623e-08 -1 -1 4.91655e-08 63.0999 124)"/><rect width="119.001" height="14.613" x="-.5" y="-.5" stroke="#002332" rx="1.5" transform="matrix(-2.10388e-08 -1 -1 9.0817e-08 86.7063 130.001)"/><rect width="2" height="6.993" x="-.5" y="-.5" stroke="#002332" rx="1" transform="matrix(-3.88623e-08 -1 -1 4.91655e-08 83.0833 20)"/><rect width="2" height="6.993" x="-.5" y="-.5" stroke="#002332" rx="1" transform="matrix(-3.88623e-08 -1 -1 4.91655e-08 83.0833 118)"/><rect width="2" height="6.993" x="-.5" y="-.5" stroke="#002332" rx="1" transform="matrix(-3.88623e-08 -1 -1 4.91655e-08 83.0833 124)"/><rect width="119.001" height="14.613" x="-.5" y="-.5" stroke="#002332" rx="1.5" transform="matrix(-2.10388e-08 -1 -1 9.0817e-08 106.69 130.001)"/><rect width="2" height="6.993" x="-.5" y="-.5" stroke="#002332" rx="1" transform="matrix(-3.88623e-08 -1 -1 4.91655e-08 103.067 20)"/><rect width="2" height="6.993" x="-.5" y="-.5" stroke="#002332" rx="1" transform="matrix(-3.88623e-08 -1 -1 4.91655e-08 103.067 118)"/><rect width="2" height="6.993" x="-.5" y="-.5" stroke="#002332" rx="1" transform="matrix(-3.88623e-08 -1 -1 4.91655e-08 103.067 124)"/><line x1="40.62" x2="40.62" y1="1" y2="141" stroke="#002332"/><rect width="2" height="11.989" x="-.5" y="-.5" stroke="#002332" rx="1" transform="matrix(-4.77449e-08 -1 -1 4.00186e-08 27.1299 25)"/><rect width="2" height="11.989" x="-.5" y="-.5" stroke="#002332" rx="1" transform="matrix(-4.77449e-08 -1 -1 4.00186e-08 27.1299 30)"/><rect width="2" height="11.989" x="-.5" y="-.5" stroke="#002332" rx="1" transform="matrix(-4.77449e-08 -1 -1 4.00186e-08 27.1299 20)"/></svg>