<svg xmlns="http://www.w3.org/2000/svg" width="21" height="44" fill="none" viewBox="0 0 21 44"><path fill="#fff" d="M4.11621 44C3.84018 43.9999 3.61621 43.7761 3.61621 43.5L3.61621 30.1367L0.500001 30.1367C0.223865 30.1367 1.23154e-06 29.9129 1.25568e-06 29.6367L3.80289e-06 0.499998C3.82703e-06 0.22386 0.223867 5.8574e-06 0.500004 -1.74786e-06L19.9932 -4.37114e-08C20.2693 -1.95703e-08 20.4932 0.223858 20.4932 0.5L20.4932 29.6367C20.4932 29.9129 20.2693 30.1367 19.9932 30.1367L16.2744 30.1367L16.2744 43.5C16.2744 43.776 16.0504 43.9998 15.7744 44L4.11621 44Z"/></svg>