<svg xmlns="http://www.w3.org/2000/svg" width="34" height="85" fill="none" viewBox="0 0 34 85"><path fill="#F2F4F9" d="M21.43 16.0269C21.915 16.027 22.3083 16.4202 22.3084 16.905V68.1988H22.323C22.315 68.3205 22.3102 68.4432 22.3084 68.5666V68.7081C22.3447 72.3396 25.2999 75.2722 28.9414 75.2724C29.0901 75.2724 29.2378 75.2649 29.384 75.2552V75.2732H34V79.7315C33.9999 82.6412 31.6402 85 28.7293 85H5.27067C2.35979 85 5.5233e-05 82.6411 0 79.7315V75.2732H4.61426V75.2552C4.76048 75.2649 4.90826 75.2724 5.05692 75.2724C8.72099 75.2723 11.6915 72.303 11.6916 68.6404C11.6916 68.492 11.6849 68.3447 11.6753 68.1988H11.6924V16.905C11.6925 16.4202 12.0859 16.0271 12.5709 16.0269H21.43Z"/><path fill="#F2F4F9" fill-rule="evenodd" d="M21.3742 0C21.8593 5.97341e-05 22.2527 0.393172 22.2527 0.878092V14.5966C22.2526 15.0814 21.8593 15.4746 21.3742 15.4747H12.6266C12.1415 15.4747 11.7483 15.0815 11.7482 14.5966V0.878092C11.7482 0.393136 12.1415 0 12.6266 0H21.3742ZM13.4064 13.8162H20.5944V1.65757H13.4064V13.8162Z" clip-rule="evenodd"/></svg>