<svg xmlns="http://www.w3.org/2000/svg" width="397" height="21" fill="none" viewBox="0 0 397 21"><path fill="#fff" d="M13.1038 20.328V0.728002H16.3518V20.328H13.1038ZM-0.00021863 20.328V0.728002H3.24778V20.328H-0.00021863ZM2.54778 11.76V8.792H14.4198V11.76H2.54778ZM26.8518 20.664C25.4518 20.664 24.2011 20.356 23.0998 19.74C22.0171 19.1053 21.1678 18.2373 20.5518 17.136C19.9358 16.0347 19.6278 14.7653 19.6278 13.328C19.6278 11.8907 19.9264 10.6213 20.5238 9.52C21.1398 8.41867 21.9891 7.56 23.0718 6.944C24.1544 6.30934 25.3958 5.992 26.7958 5.992C28.1958 5.992 29.4371 6.30934 30.5198 6.944C31.6024 7.56 32.4424 8.41867 33.0398 9.52C33.6558 10.6213 33.9638 11.8907 33.9638 13.328C33.9638 14.7653 33.6651 16.0347 33.0678 17.136C32.4704 18.2373 31.6304 19.1053 30.5478 19.74C29.4651 20.356 28.2331 20.664 26.8518 20.664ZM26.8518 17.78C27.6171 17.78 28.2984 17.5933 28.8958 17.22C29.4931 16.828 29.9598 16.3053 30.2958 15.652C30.6318 14.98 30.7998 14.2053 30.7998 13.328C30.7998 12.4507 30.6224 11.6853 30.2678 11.032C29.9318 10.36 29.4651 9.83734 28.8678 9.464C28.2704 9.072 27.5798 8.876 26.7958 8.876C26.0118 8.876 25.3211 9.06267 24.7238 9.436C24.1264 9.80934 23.6598 10.332 23.3238 11.004C22.9878 11.676 22.8198 12.4507 22.8198 13.328C22.8198 14.2053 22.9878 14.98 23.3238 15.652C23.6784 16.3053 24.1544 16.828 24.7518 17.22C25.3678 17.5933 26.0678 17.78 26.8518 17.78ZM36.6813 20.328V6.328H39.6213L39.7613 8.204C40.1906 7.476 40.7413 6.92534 41.4133 6.552C42.0853 6.17867 42.8506 5.992 43.7093 5.992C44.8293 5.992 45.7813 6.244 46.5653 6.748C47.3493 7.252 47.9186 8.01734 48.2733 9.044C48.684 8.05467 49.2626 7.29867 50.0093 6.776C50.756 6.25334 51.6333 5.992 52.6413 5.992C54.2653 5.992 55.516 6.51467 56.3933 7.56C57.2706 8.58667 57.7 10.1733 57.6813 12.32V20.328H54.5733V13.16C54.5733 12.04 54.452 11.1813 54.2093 10.584C53.9666 9.968 53.64 9.53867 53.2293 9.296C52.8186 9.05334 52.3426 8.932 51.8013 8.932C50.8306 8.91334 50.0746 9.25867 49.5333 9.968C49.0106 10.6773 48.7493 11.6947 48.7493 13.02V20.328H45.6133V13.16C45.6133 12.04 45.492 11.1813 45.2493 10.584C45.0253 9.968 44.708 9.53867 44.2973 9.296C43.8866 9.05334 43.4106 8.932 42.8693 8.932C41.8986 8.91334 41.1426 9.25867 40.6013 9.968C40.0786 10.6773 39.8173 11.6947 39.8173 13.02V20.328H36.6813ZM67.1245 20.664C65.7619 20.664 64.5485 20.356 63.4845 19.74C62.4392 19.1053 61.6085 18.2373 60.9925 17.136C60.3952 16.0347 60.0965 14.7653 60.0965 13.328C60.0965 11.8907 60.4045 10.6213 61.0205 9.52C61.6365 8.41867 62.4765 7.56 63.5405 6.944C64.6232 6.30934 65.8552 5.992 67.2365 5.992C68.4872 5.992 69.6165 6.31867 70.6245 6.972C71.6325 7.60667 72.4259 8.53067 73.0045 9.744C73.6019 10.9573 73.9005 12.404 73.9005 14.084H62.8965L63.3165 13.692C63.3165 14.5507 63.5032 15.2973 63.8765 15.932C64.2499 16.548 64.7445 17.024 65.3605 17.36C65.9765 17.696 66.6579 17.864 67.4045 17.864C68.2632 17.864 68.9725 17.6773 69.5325 17.304C70.0925 16.912 70.5312 16.408 70.8485 15.792L73.6205 16.968C73.2285 17.7147 72.7245 18.368 72.1085 18.928C71.5112 19.488 70.7925 19.9173 69.9525 20.216C69.1312 20.5147 68.1885 20.664 67.1245 20.664ZM63.5125 12.068L63.0645 11.676H70.9605L70.5405 12.068C70.5405 11.3027 70.3725 10.6773 70.0365 10.192C69.7005 9.688 69.2712 9.31467 68.7485 9.072C68.2445 8.81067 67.7125 8.68 67.1525 8.68C66.5925 8.68 66.0325 8.81067 65.4725 9.072C64.9125 9.31467 64.4459 9.688 64.0725 10.192C63.6992 10.6773 63.5125 11.3027 63.5125 12.068ZM97.2243 20.328L89.5803 0.728002H92.8283L100.668 20.328H97.2243ZM81.5723 20.328L89.3843 0.728002H92.6603L85.0163 20.328H81.5723ZM85.2403 15.512V12.628H96.9723V15.512H85.2403ZM107.73 20.664C106.797 20.664 105.938 20.524 105.154 20.244C104.37 19.964 103.698 19.572 103.138 19.068C102.578 18.5453 102.149 17.9387 101.85 17.248L104.566 16.044C104.846 16.5667 105.257 17.0053 105.798 17.36C106.358 17.7147 106.974 17.892 107.646 17.892C108.374 17.892 108.953 17.7707 109.382 17.528C109.83 17.2667 110.054 16.912 110.054 16.464C110.054 16.0347 109.886 15.708 109.55 15.484C109.214 15.2413 108.738 15.0453 108.122 14.896L106.806 14.532C105.481 14.196 104.445 13.664 103.698 12.936C102.952 12.1893 102.578 11.34 102.578 10.388C102.578 8.988 103.026 7.90534 103.922 7.14C104.837 6.37467 106.144 5.992 107.842 5.992C108.701 5.992 109.485 6.12267 110.194 6.384C110.922 6.62667 111.548 6.98134 112.07 7.448C112.593 7.896 112.957 8.428 113.162 9.044L110.558 10.22C110.372 9.75334 110.017 9.39867 109.494 9.156C108.972 8.89467 108.393 8.764 107.758 8.764C107.124 8.764 106.629 8.904 106.274 9.184C105.92 9.44534 105.742 9.81867 105.742 10.304C105.742 10.584 105.901 10.8453 106.218 11.088C106.536 11.312 106.993 11.4987 107.59 11.648L109.242 12.04C110.157 12.264 110.904 12.6187 111.482 13.104C112.061 13.5707 112.49 14.1027 112.77 14.7C113.05 15.2787 113.19 15.8667 113.19 16.464C113.19 17.304 112.948 18.0413 112.462 18.676C111.996 19.3107 111.352 19.8053 110.53 20.16C109.709 20.496 108.776 20.664 107.73 20.664ZM120.746 20.664C119.813 20.664 118.954 20.524 118.17 20.244C117.386 19.964 116.714 19.572 116.154 19.068C115.594 18.5453 115.165 17.9387 114.866 17.248L117.582 16.044C117.862 16.5667 118.273 17.0053 118.814 17.36C119.374 17.7147 119.99 17.892 120.662 17.892C121.39 17.892 121.969 17.7707 122.398 17.528C122.846 17.2667 123.07 16.912 123.07 16.464C123.07 16.0347 122.902 15.708 122.566 15.484C122.23 15.2413 121.754 15.0453 121.138 14.896L119.822 14.532C118.497 14.196 117.461 13.664 116.714 12.936C115.967 12.1893 115.594 11.34 115.594 10.388C115.594 8.988 116.042 7.90534 116.938 7.14C117.853 6.37467 119.159 5.992 120.858 5.992C121.717 5.992 122.501 6.12267 123.21 6.384C123.938 6.62667 124.563 6.98134 125.086 7.448C125.609 7.896 125.973 8.428 126.178 9.044L123.574 10.22C123.387 9.75334 123.033 9.39867 122.51 9.156C121.987 8.89467 121.409 8.764 120.774 8.764C120.139 8.764 119.645 8.904 119.29 9.184C118.935 9.44534 118.758 9.81867 118.758 10.304C118.758 10.584 118.917 10.8453 119.234 11.088C119.551 11.312 120.009 11.4987 120.606 11.648L122.258 12.04C123.173 12.264 123.919 12.6187 124.498 13.104C125.077 13.5707 125.506 14.1027 125.786 14.7C126.066 15.2787 126.206 15.8667 126.206 16.464C126.206 17.304 125.963 18.0413 125.478 18.676C125.011 19.3107 124.367 19.8053 123.546 20.16C122.725 20.496 121.791 20.664 120.746 20.664ZM128.889 20.328V6.328H131.997V20.328H128.889ZM130.457 3.668C129.953 3.668 129.514 3.49067 129.141 3.136C128.786 2.76267 128.609 2.324 128.609 1.82C128.609 1.316 128.786 0.886669 129.141 0.532002C129.514 0.177336 129.953 2.6226e-06 130.457 2.6226e-06C130.961 2.6226e-06 131.39 0.177336 131.745 0.532002C132.118 0.886669 132.305 1.316 132.305 1.82C132.305 2.324 132.118 2.76267 131.745 3.136C131.39 3.49067 130.961 3.668 130.457 3.668ZM140.789 20.664C139.856 20.664 138.997 20.524 138.213 20.244C137.429 19.964 136.757 19.572 136.197 19.068C135.637 18.5453 135.208 17.9387 134.909 17.248L137.625 16.044C137.905 16.5667 138.316 17.0053 138.857 17.36C139.417 17.7147 140.033 17.892 140.705 17.892C141.433 17.892 142.012 17.7707 142.441 17.528C142.889 17.2667 143.113 16.912 143.113 16.464C143.113 16.0347 142.945 15.708 142.609 15.484C142.273 15.2413 141.797 15.0453 141.181 14.896L139.865 14.532C138.54 14.196 137.504 13.664 136.757 12.936C136.01 12.1893 135.637 11.34 135.637 10.388C135.637 8.988 136.085 7.90534 136.981 7.14C137.896 6.37467 139.202 5.992 140.901 5.992C141.76 5.992 142.544 6.12267 143.253 6.384C143.981 6.62667 144.606 6.98134 145.129 7.448C145.652 7.896 146.016 8.428 146.221 9.044L143.617 10.22C143.43 9.75334 143.076 9.39867 142.553 9.156C142.03 8.89467 141.452 8.764 140.817 8.764C140.182 8.764 139.688 8.904 139.333 9.184C138.978 9.44534 138.801 9.81867 138.801 10.304C138.801 10.584 138.96 10.8453 139.277 11.088C139.594 11.312 140.052 11.4987 140.649 11.648L142.301 12.04C143.216 12.264 143.962 12.6187 144.541 13.104C145.12 13.5707 145.549 14.1027 145.829 14.7C146.109 15.2787 146.249 15.8667 146.249 16.464C146.249 17.304 146.006 18.0413 145.521 18.676C145.054 19.3107 144.41 19.8053 143.589 20.16C142.768 20.496 141.834 20.664 140.789 20.664ZM154.308 20.664C152.833 20.664 151.704 20.3 150.92 19.572C150.155 18.8253 149.772 17.7613 149.772 16.38V1.96H152.88V15.792C152.88 16.4453 153.029 16.94 153.328 17.276C153.645 17.612 154.103 17.78 154.7 17.78C154.887 17.78 155.092 17.7427 155.316 17.668C155.54 17.5933 155.792 17.4533 156.072 17.248L157.22 19.628C156.735 19.964 156.249 20.216 155.764 20.384C155.279 20.5707 154.793 20.664 154.308 20.664ZM147.448 9.016V6.328H156.66V9.016H147.448ZM168.077 20.328L167.937 17.696V13.132C167.937 12.18 167.834 11.3867 167.629 10.752C167.442 10.0987 167.125 9.604 166.677 9.268C166.247 8.91334 165.669 8.736 164.941 8.736C164.269 8.736 163.681 8.876 163.177 9.156C162.673 9.436 162.243 9.87467 161.889 10.472L159.145 9.464C159.443 8.848 159.835 8.27867 160.321 7.756C160.825 7.21467 161.45 6.78534 162.197 6.468C162.962 6.15067 163.877 5.992 164.941 5.992C166.303 5.992 167.442 6.26267 168.357 6.804C169.271 7.32667 169.943 8.08267 170.373 9.072C170.821 10.0613 171.045 11.256 171.045 12.656L170.961 20.328H168.077ZM164.045 20.664C162.365 20.664 161.058 20.2907 160.125 19.544C159.21 18.7973 158.753 17.7427 158.753 16.38C158.753 14.924 159.238 13.8133 160.209 13.048C161.198 12.2827 162.57 11.9 164.325 11.9H168.077V14.308H165.333C164.082 14.308 163.205 14.4853 162.701 14.84C162.197 15.176 161.945 15.6613 161.945 16.296C161.945 16.8373 162.159 17.2667 162.589 17.584C163.037 17.8827 163.653 18.032 164.437 18.032C165.146 18.032 165.762 17.8733 166.285 17.556C166.807 17.2387 167.209 16.8187 167.489 16.296C167.787 15.7733 167.937 15.1853 167.937 14.532H168.861C168.861 16.436 168.478 17.9387 167.713 19.04C166.947 20.1227 165.725 20.664 164.045 20.664ZM174.22 20.328V6.328H177.16L177.356 8.904V20.328H174.22ZM183.712 20.328V13.16H186.848V20.328H183.712ZM183.712 13.16C183.712 12.04 183.582 11.1813 183.32 10.584C183.078 9.968 182.723 9.53867 182.256 9.296C181.808 9.05334 181.276 8.932 180.66 8.932C179.615 8.91334 178.803 9.25867 178.224 9.968C177.646 10.6773 177.356 11.6947 177.356 13.02H176.18C176.18 11.5453 176.395 10.2853 176.824 9.24C177.254 8.176 177.87 7.37334 178.672 6.832C179.475 6.272 180.427 5.992 181.528 5.992C182.648 5.992 183.6 6.216 184.384 6.664C185.187 7.112 185.794 7.812 186.204 8.764C186.634 9.69734 186.848 10.92 186.848 12.432V13.16H183.712ZM195.597 20.664C194.122 20.664 192.993 20.3 192.209 19.572C191.444 18.8253 191.061 17.7613 191.061 16.38V1.96H194.169V15.792C194.169 16.4453 194.318 16.94 194.617 17.276C194.934 17.612 195.392 17.78 195.989 17.78C196.176 17.78 196.381 17.7427 196.605 17.668C196.829 17.5933 197.081 17.4533 197.361 17.248L198.509 19.628C198.024 19.964 197.538 20.216 197.053 20.384C196.568 20.5707 196.082 20.664 195.597 20.664ZM188.737 9.016V6.328H197.949V9.016H188.737ZM216.927 20.664C215.079 20.664 213.436 20.2347 211.999 19.376C210.58 18.4987 209.46 17.304 208.639 15.792C207.836 14.2613 207.435 12.5067 207.435 10.528C207.435 8.54934 207.836 6.804 208.639 5.292C209.442 3.76134 210.552 2.56667 211.971 1.708C213.39 0.830669 215.014 0.392003 216.843 0.392003C217.944 0.392003 219.018 0.597335 220.063 1.008C221.127 1.4 222.088 1.96 222.947 2.688C223.806 3.39734 224.468 4.21867 224.935 5.152L223.451 6.076C223.059 5.27334 222.508 4.57333 221.799 3.976C221.108 3.36 220.334 2.884 219.475 2.548C218.616 2.19333 217.739 2.016 216.843 2.016C215.368 2.016 214.052 2.38 212.895 3.108C211.756 3.836 210.86 4.844 210.207 6.132C209.554 7.40134 209.227 8.86667 209.227 10.528C209.227 12.208 209.554 13.692 210.207 14.98C210.86 16.268 211.766 17.276 212.923 18.004C214.099 18.732 215.434 19.096 216.927 19.096C217.842 19.096 218.728 18.9093 219.587 18.536C220.446 18.144 221.22 17.612 221.911 16.94C222.62 16.268 223.171 15.5027 223.563 14.644L225.047 15.568C224.562 16.5573 223.89 17.444 223.031 18.228C222.191 18.9933 221.239 19.5907 220.175 20.02C219.111 20.4493 218.028 20.664 216.927 20.664ZM234.308 20.664C232.964 20.664 231.769 20.356 230.724 19.74C229.697 19.1053 228.885 18.2373 228.288 17.136C227.709 16.0347 227.42 14.7653 227.42 13.328C227.42 11.8907 227.709 10.6213 228.288 9.52C228.867 8.41867 229.669 7.56 230.696 6.944C231.741 6.30934 232.927 5.992 234.252 5.992C235.596 5.992 236.781 6.30934 237.808 6.944C238.853 7.56 239.665 8.41867 240.244 9.52C240.823 10.6213 241.112 11.8907 241.112 13.328C241.112 14.7653 240.823 16.0347 240.244 17.136C239.665 18.2373 238.863 19.1053 237.836 19.74C236.809 20.356 235.633 20.664 234.308 20.664ZM234.308 19.124C235.316 19.124 236.203 18.8813 236.968 18.396C237.733 17.892 238.331 17.2107 238.76 16.352C239.208 15.4747 239.432 14.4667 239.432 13.328C239.432 12.1893 239.208 11.1907 238.76 10.332C238.331 9.45467 237.724 8.77334 236.94 8.288C236.156 7.784 235.26 7.532 234.252 7.532C233.244 7.532 232.348 7.784 231.564 8.288C230.799 8.77334 230.192 9.45467 229.744 10.332C229.315 11.1907 229.1 12.1893 229.1 13.328C229.1 14.4667 229.324 15.4747 229.772 16.352C230.22 17.2107 230.836 17.892 231.62 18.396C232.404 18.8813 233.3 19.124 234.308 19.124ZM244.475 20.328V6.328H246.043L246.155 8.904V20.328H244.475ZM254.527 20.328V13.16H256.207V20.328H254.527ZM254.527 13.16C254.527 11.6107 254.34 10.4347 253.967 9.632C253.612 8.82934 253.118 8.288 252.483 8.008C251.867 7.70934 251.167 7.56 250.383 7.56C249.058 7.56 248.022 8.05467 247.275 9.044C246.528 10.0147 246.155 11.3773 246.155 13.132H245.119C245.119 11.6387 245.334 10.36 245.763 9.296C246.192 8.232 246.818 7.42 247.639 6.86C248.479 6.28134 249.496 5.992 250.691 5.992C251.774 5.992 252.726 6.216 253.547 6.664C254.387 7.09334 255.04 7.784 255.507 8.736C255.992 9.688 256.226 10.948 256.207 12.516V13.16H254.527ZM259.979 20.328V6.328H261.547L261.659 8.904V20.328H259.979ZM270.031 20.328V13.16H271.711V20.328H270.031ZM270.031 13.16C270.031 11.6107 269.844 10.4347 269.471 9.632C269.116 8.82934 268.622 8.288 267.987 8.008C267.371 7.70934 266.671 7.56 265.887 7.56C264.562 7.56 263.526 8.05467 262.779 9.044C262.032 10.0147 261.659 11.3773 261.659 13.132H260.623C260.623 11.6387 260.838 10.36 261.267 9.296C261.696 8.232 262.322 7.42 263.143 6.86C263.983 6.28134 265 5.992 266.195 5.992C267.278 5.992 268.23 6.216 269.051 6.664C269.891 7.09334 270.544 7.784 271.011 8.736C271.496 9.688 271.73 10.948 271.711 12.516V13.16H270.031ZM281.531 20.664C280.187 20.664 278.992 20.356 277.947 19.74C276.92 19.1053 276.108 18.2373 275.511 17.136C274.932 16.0347 274.643 14.7653 274.643 13.328C274.643 11.8907 274.932 10.6213 275.511 9.52C276.089 8.41867 276.883 7.56 277.891 6.944C278.917 6.30934 280.084 5.992 281.391 5.992C282.716 5.992 283.836 6.31867 284.751 6.972C285.684 7.60667 286.393 8.49334 286.879 9.632C287.364 10.752 287.607 12.0493 287.607 13.524H275.651L276.295 12.992C276.295 14.28 276.509 15.3813 276.939 16.296C277.368 17.2107 277.975 17.9107 278.759 18.396C279.561 18.8813 280.485 19.124 281.531 19.124C282.613 19.124 283.528 18.8627 284.275 18.34C285.04 17.7987 285.637 17.108 286.067 16.268L287.467 17.136C287.112 17.8267 286.645 18.4427 286.067 18.984C285.507 19.5067 284.844 19.9173 284.079 20.216C283.313 20.5147 282.464 20.664 281.531 20.664ZM276.435 12.488L275.735 11.984H286.515L285.815 12.516C285.815 11.5267 285.628 10.6587 285.255 9.912C284.9 9.16534 284.396 8.58667 283.743 8.176C283.089 7.74667 282.305 7.532 281.391 7.532C280.495 7.532 279.664 7.74667 278.899 8.176C278.152 8.58667 277.555 9.16534 277.107 9.912C276.659 10.64 276.435 11.4987 276.435 12.488ZM296.734 20.664C295.39 20.664 294.195 20.356 293.15 19.74C292.123 19.1053 291.311 18.2373 290.714 17.136C290.135 16.0347 289.846 14.7653 289.846 13.328C289.846 11.8907 290.135 10.6213 290.714 9.52C291.293 8.41867 292.095 7.56 293.122 6.944C294.167 6.30934 295.353 5.992 296.678 5.992C298.003 5.992 299.179 6.29067 300.206 6.888C301.233 7.46667 302.026 8.27867 302.586 9.324L301.13 10.108C300.701 9.30534 300.094 8.68 299.31 8.232C298.545 7.76534 297.667 7.532 296.678 7.532C295.67 7.532 294.774 7.784 293.99 8.288C293.225 8.77334 292.618 9.45467 292.17 10.332C291.741 11.1907 291.526 12.1893 291.526 13.328C291.526 14.4667 291.75 15.4747 292.198 16.352C292.646 17.2107 293.262 17.892 294.046 18.396C294.83 18.8813 295.726 19.124 296.734 19.124C297.742 19.124 298.638 18.872 299.422 18.368C300.206 17.8453 300.803 17.1267 301.214 16.212L302.698 16.996C302.138 18.1347 301.335 19.0307 300.29 19.684C299.263 20.3373 298.078 20.664 296.734 20.664ZM310.848 20.664C309.56 20.664 308.552 20.328 307.824 19.656C307.096 18.9653 306.732 17.9947 306.732 16.744V1.96H308.412V16.744C308.412 17.4907 308.626 18.0787 309.056 18.508C309.485 18.9187 310.082 19.124 310.848 19.124C311.072 19.124 311.286 19.096 311.492 19.04C311.716 18.9653 312.033 18.788 312.444 18.508L313.144 19.964C312.64 20.2627 312.22 20.4493 311.884 20.524C311.548 20.6173 311.202 20.664 310.848 20.664ZM304.24 7.868V6.328H312.864V7.868H304.24ZM322.388 20.328V18.704L335.408 2.352H322.472V0.728002H337.62V2.352L324.6 18.704H337.536V20.328H322.388ZM341.808 20.328V0.728002H347.828C349.153 0.728002 350.282 0.933335 351.216 1.344C352.149 1.75467 352.868 2.352 353.372 3.136C353.876 3.92 354.128 4.86267 354.128 5.964C354.128 6.99067 353.904 7.87734 353.456 8.624C353.008 9.37067 352.373 9.95867 351.552 10.388C352.56 10.8547 353.334 11.4893 353.876 12.292C354.417 13.076 354.688 14.0093 354.688 15.092C354.688 16.1933 354.445 17.136 353.96 17.92C353.474 18.704 352.774 19.3013 351.86 19.712C350.964 20.1227 349.872 20.328 348.584 20.328H341.808ZM343.6 18.676H348.584C349.946 18.676 351.01 18.3587 351.776 17.724C352.541 17.0893 352.924 16.212 352.924 15.092C352.924 13.86 352.476 12.908 351.58 12.236C350.684 11.5453 349.433 11.2 347.828 11.2H343.6V18.676ZM343.6 9.548H348.584C349.778 9.548 350.702 9.23067 351.356 8.596C352.028 7.96134 352.364 7.084 352.364 5.964C352.364 4.80667 351.962 3.92 351.16 3.304C350.376 2.66934 349.265 2.352 347.828 2.352H343.6V9.548ZM362.762 20.328V2.352H356.378V0.728002H370.938V2.352H364.554V20.328H362.762ZM372.899 12.796V11.2H381.299V12.796H372.899ZM384.657 20.328V18.704C384.657 18.0693 384.759 17.4533 384.965 16.856C385.189 16.2587 385.515 15.68 385.945 15.12C386.374 14.5413 386.915 13.9907 387.569 13.468L392.049 10.08C392.553 9.70667 392.982 9.28667 393.337 8.82C393.71 8.35334 393.99 7.868 394.177 7.364C394.382 6.86 394.485 6.37467 394.485 5.908C394.485 5.19867 394.307 4.55467 393.953 3.976C393.598 3.37867 393.103 2.90267 392.469 2.548C391.853 2.19333 391.125 2.016 390.285 2.016C389.445 2.016 388.707 2.17467 388.073 2.492C387.438 2.80934 386.915 3.22934 386.505 3.752C386.094 4.256 385.805 4.79734 385.637 5.376L383.817 4.984C384.041 4.18134 384.442 3.43467 385.021 2.744C385.599 2.03467 386.327 1.46534 387.205 1.036C388.082 0.606669 389.053 0.392003 390.117 0.392003C391.367 0.392003 392.45 0.634669 393.365 1.12C394.298 1.60534 395.017 2.268 395.521 3.108C396.043 3.92934 396.305 4.86267 396.305 5.908C396.305 6.86 396.043 7.79334 395.521 8.708C395.017 9.604 394.242 10.4907 393.197 11.368L388.913 14.644C388.091 15.2787 387.475 15.932 387.065 16.604C386.654 17.276 386.449 17.976 386.449 18.704H396.585V20.328H384.657Z"/></svg>