<svg xmlns="http://www.w3.org/2000/svg" width="30" height="31" fill="none" viewBox="0 0 30 31"><path fill="#F3FFFF" d="M26.461 17.7244V14.1094C23.1044 15.072 20.2987 17.2305 18.5674 20.2212C16.8107 23.1595 16.3382 26.6715 17.2303 30.0006L20.3771 28.2058C20.1673 26.619 20.2732 25.0069 20.8222 23.4726L28.2177 27.6866L30 26.724V24.7463L22.5515 20.5071C23.6004 19.2334 24.965 18.3214 26.459 17.7244"/><path fill="#F3FFFF" d="M3.51348 14.1074V17.7224C5.06043 18.3214 6.3721 19.2314 7.42104 20.5051L0 24.7463V26.724L1.80968 27.6866L9.17974 23.4726C9.70324 25.0069 9.80911 26.619 9.59932 28.2058L12.7462 30.0006C13.6108 26.6715 13.1402 23.1595 11.4619 20.2212C9.67971 17.2304 6.87206 15.0719 3.51544 14.1094"/><path fill="#F3FFFF" d="M21.1106 8.5149C19.7989 9.47747 18.3834 10.1795 16.7305 10.4653V2.03938L15.0522 0.999023L13.268 2.03938V10.4673C11.6681 10.1814 10.1741 9.47942 8.91539 8.51684L5.76855 10.3117C8.33896 12.7055 11.5897 14.057 15.0522 14.057C18.5147 14.057 21.7655 12.7036 24.2574 10.3117L21.1106 8.51684V8.5149Z"/></svg>