<svg xmlns="http://www.w3.org/2000/svg" xmlns:xlink="http://www.w3.org/1999/xlink" width="60" height="60" fill="none" viewBox="0 0 60 60"><rect width="58" height="58" x="1" y="1" stroke="#fff" stroke-width="2" rx="6"/><rect width="46" height="46" fill="url(#pattern0_491_3283)" transform="translate(7 7)"/><g clip-path="url(#clip0_491_3283)"><rect width="40" height="18" fill="#000F1E" transform="translate(10 21)"/><path fill="#fff" d="M13.6476 34.5V25.4H15.2596L18.1196 29.612L20.9536 25.4H22.5786V34.5H21.0706V27.779L18.1066 32.16L15.1556 27.805V34.5H13.6476ZM28.3836 34.656C27.4649 34.656 26.6459 34.4567 25.9266 34.058C25.2159 33.6507 24.6569 33.096 24.2496 32.394C23.8422 31.6833 23.6386 30.873 23.6386 29.963C23.6386 29.0357 23.8422 28.221 24.2496 27.519C24.6569 26.8083 25.2159 26.2537 25.9266 25.855C26.6459 25.4477 27.4649 25.244 28.3836 25.244C28.9122 25.244 29.4062 25.3263 29.8656 25.491C30.3336 25.6557 30.7539 25.881 31.1266 26.167C31.4992 26.4443 31.8026 26.7693 32.0366 27.142L30.8146 27.922C30.6499 27.6707 30.4376 27.4453 30.1776 27.246C29.9176 27.0467 29.6316 26.895 29.3196 26.791C29.0162 26.6783 28.7042 26.622 28.3836 26.622C27.7596 26.622 27.2049 26.765 26.7196 27.051C26.2429 27.337 25.8659 27.7313 25.5886 28.234C25.3112 28.728 25.1726 29.3043 25.1726 29.963C25.1726 30.6043 25.3069 31.1763 25.5756 31.679C25.8529 32.1817 26.2342 32.576 26.7196 32.862C27.2136 33.148 27.7812 33.291 28.4226 33.291C28.9252 33.291 29.3759 33.187 29.7746 32.979C30.1732 32.771 30.4852 32.4807 30.7106 32.108C30.9446 31.7353 31.0616 31.3063 31.0616 30.821L32.5046 30.639C32.5046 31.4623 32.3269 32.1773 31.9716 32.784C31.6249 33.382 31.1396 33.8457 30.5156 34.175C29.9002 34.4957 29.1896 34.656 28.3836 34.656ZM28.8776 30.938V29.716H32.5046V30.73L31.6986 30.938H28.8776ZM33.0636 34.5V33.343C33.0636 33.0743 33.1329 32.797 33.2716 32.511C33.4102 32.2163 33.6052 31.9217 33.8566 31.627C34.1166 31.3323 34.4199 31.055 34.7666 30.795L36.3526 29.651C36.5519 29.5123 36.7339 29.352 36.8986 29.17C37.0719 28.988 37.2106 28.7973 37.3146 28.598C37.4186 28.39 37.4706 28.1863 37.4706 27.987C37.4706 27.7357 37.4056 27.506 37.2756 27.298C37.1542 27.09 36.9766 26.9253 36.7426 26.804C36.5172 26.6827 36.2399 26.622 35.9106 26.622C35.6159 26.622 35.3516 26.6827 35.1176 26.804C34.8922 26.9167 34.7059 27.0683 34.5586 27.259C34.4112 27.4497 34.3072 27.6577 34.2466 27.883L32.6996 27.597C32.7862 27.181 32.9682 26.7953 33.2456 26.44C33.5316 26.076 33.8956 25.7857 34.3376 25.569C34.7882 25.3523 35.2996 25.244 35.8716 25.244C36.5129 25.244 37.0676 25.361 37.5356 25.595C38.0122 25.829 38.3762 26.154 38.6276 26.57C38.8876 26.9773 39.0176 27.4453 39.0176 27.974C39.0176 28.5113 38.8702 28.9967 38.5756 29.43C38.2896 29.8547 37.8866 30.262 37.3666 30.652L35.9106 31.731C35.6246 31.939 35.3906 32.1643 35.2086 32.407C35.0266 32.641 34.9009 32.8923 34.8316 33.161H39.1346V34.5H33.0636ZM43.9093 34.5V32.55H39.6973V31.354L43.7663 25.4H45.3523V31.237H47.0423V32.55H45.3523V34.5H43.9093ZM41.2963 31.237H43.9093V27.402L41.2963 31.237Z"/></g><defs><clipPath id="clip0_491_3283"><rect width="40" height="18" fill="#fff" transform="translate(10 21)"/></clipPath><pattern id="pattern0_491_3283" width="1" height="1" patternTransform="matrix(3.608 0 0 3.608 21.975 21.975)" patternUnits="userSpaceOnUse" preserveAspectRatio="none" viewBox="0 0 8.8 8.8"><g id="pattern0_491_3283_inner"><circle cx="2.5" cy="2.5" r="2.5" fill="#fff" opacity=".34"/></g></pattern></defs></svg>